<svg width="114" height="16" viewBox="0 0 114 16" fill="none" xmlns="http://www.w3.org/2000/svg">
<path d="M11.9165 1.15677V15.5224H9.03512V9.40981H2.88136V15.5224H0V1.15677H2.88136V7.06356H9.03512V1.15677H11.9165Z" fill="white"/>
<path d="M14.0116 9.78027C14.0116 8.62772 14.238 7.60553 14.6908 6.71368C15.1573 5.82183 15.7816 5.13579 16.5636 4.65556C17.3594 4.17533 18.2444 3.93522 19.2186 3.93522C20.0693 3.93522 20.8102 4.10673 21.4414 4.44975C22.0863 4.79277 22.6008 5.22497 22.985 5.74636V4.12045H25.8869V15.5224H22.985V13.8553C22.6145 14.3904 22.1 14.8364 21.4414 15.1931C20.7965 15.5361 20.0487 15.7076 19.198 15.7076C18.2376 15.7076 17.3594 15.4607 16.5636 14.9667C15.7816 14.4728 15.1573 13.7799 14.6908 12.888C14.238 11.9825 14.0116 10.9465 14.0116 9.78027ZM22.985 9.82143C22.985 9.12167 22.8478 8.52482 22.5733 8.03087C22.2989 7.5232 21.9285 7.13902 21.462 6.87833C20.9955 6.60391 20.4946 6.4667 19.9595 6.4667C19.4244 6.4667 18.9305 6.59705 18.4777 6.85774C18.0249 7.11844 17.6544 7.50262 17.3663 8.01029C17.0919 8.50424 16.9547 9.09423 16.9547 9.78027C16.9547 10.4663 17.0919 11.07 17.3663 11.5914C17.6544 12.0991 18.0249 12.4901 18.4777 12.7645C18.9442 13.0389 19.4381 13.1762 19.9595 13.1762C20.4946 13.1762 20.9955 13.0458 21.462 12.7851C21.9285 12.5107 22.2989 12.1265 22.5733 11.6326C22.8478 11.1249 22.985 10.5212 22.985 9.82143Z" fill="white"/>
<path d="M33.0643 15.7076C32.1312 15.7076 31.2943 15.543 30.5534 15.2137C29.8124 14.8707 29.2224 14.411 28.7834 13.8348C28.358 13.2585 28.1248 12.6205 28.0836 11.9207H30.9856C31.0404 12.3598 31.2531 12.7234 31.6236 13.0115C32.0078 13.2996 32.4811 13.4437 33.0437 13.4437C33.5925 13.4437 34.0179 13.3339 34.3197 13.1144C34.6353 12.8949 34.7931 12.6136 34.7931 12.2706C34.7931 11.9001 34.601 11.6257 34.2168 11.4473C33.8463 11.2552 33.2495 11.0494 32.4262 10.8299C31.5756 10.6241 30.8758 10.4114 30.327 10.1919C29.7919 9.97236 29.3254 9.6362 28.9274 9.18341C28.5433 8.73063 28.3512 8.12005 28.3512 7.35169C28.3512 6.72054 28.5295 6.14427 28.8863 5.62288C29.2567 5.10149 29.7781 4.68986 30.4505 4.38801C31.1365 4.08615 31.9392 3.93522 32.8584 3.93522C34.2168 3.93522 35.3007 4.27824 36.1103 4.96428C36.9198 5.6366 37.3657 6.54903 37.448 7.70157H34.6902C34.649 7.24879 34.4569 6.89205 34.1139 6.63135C33.7846 6.35694 33.3387 6.21973 32.7761 6.21973C32.2547 6.21973 31.85 6.31577 31.5618 6.50787C31.2874 6.69996 31.1502 6.96751 31.1502 7.31053C31.1502 7.69471 31.3423 7.98971 31.7265 8.19552C32.1107 8.38761 32.7075 8.58656 33.517 8.79237C34.3403 8.99818 35.0195 9.21086 35.5546 9.43039C36.0897 9.64992 36.5493 9.99294 36.9335 10.4594C37.3314 10.9122 37.5372 11.5159 37.5509 12.2706C37.5509 12.9292 37.3657 13.5192 36.9953 14.0406C36.6385 14.562 36.1171 14.9736 35.4311 15.2754C34.7588 15.5636 33.9698 15.7076 33.0643 15.7076Z" fill="white"/>
<path d="M46.3375 3.9558C47.2019 3.9558 47.9703 4.14789 48.6426 4.53207C49.3149 4.90253 49.8363 5.45823 50.2067 6.19915C50.5909 6.92635 50.783 7.80448 50.783 8.83353V15.5224H47.9017V9.22458C47.9017 8.31901 47.6753 7.62611 47.2225 7.14588C46.7697 6.65193 46.1523 6.40496 45.3702 6.40496C44.5744 6.40496 43.9432 6.65193 43.4767 7.14588C43.0239 7.62611 42.7975 8.31901 42.7975 9.22458V15.5224H39.9162V0.292358H42.7975V5.54055C43.168 5.0466 43.6619 4.66242 44.2794 4.38801C44.8968 4.09987 45.5828 3.9558 46.3375 3.9558Z" fill="white"/>
<path d="M56.4044 5.78752C56.7749 5.23869 57.2825 4.79277 57.9274 4.44975C58.586 4.10673 59.3338 3.93522 60.1708 3.93522C61.1449 3.93522 62.0231 4.17533 62.8051 4.65556C63.6009 5.13579 64.2252 5.82183 64.678 6.71368C65.1445 7.59181 65.3778 8.614 65.3778 9.78027C65.3778 10.9465 65.1445 11.9825 64.678 12.888C64.2252 13.7799 63.6009 14.4728 62.8051 14.9667C62.0231 15.4607 61.1449 15.7076 60.1708 15.7076C59.3201 15.7076 58.5723 15.543 57.9274 15.2137C57.2963 14.8707 56.7886 14.4316 56.4044 13.8965V15.5224H53.523V0.292358H56.4044V5.78752ZM62.4347 9.78027C62.4347 9.09423 62.2906 8.50424 62.0025 8.01029C61.7281 7.50262 61.3576 7.11844 60.8911 6.85774C60.4383 6.59705 59.9444 6.4667 59.4093 6.4667C58.8879 6.4667 58.3939 6.60391 57.9274 6.87833C57.4746 7.13902 57.1042 7.5232 56.816 8.03087C56.5416 8.53854 56.4044 9.13539 56.4044 9.82143C56.4044 10.5075 56.5416 11.1043 56.816 11.612C57.1042 12.1197 57.4746 12.5107 57.9274 12.7851C58.3939 13.0458 58.8879 13.1762 59.4093 13.1762C59.9444 13.1762 60.4383 13.0389 60.8911 12.7645C61.3576 12.4901 61.7281 12.0991 62.0025 11.5914C62.2906 11.0837 62.4347 10.48 62.4347 9.78027Z" fill="white"/>
<path d="M72.5346 15.7076C71.4369 15.7076 70.449 15.4675 69.5709 14.9873C68.6927 14.4934 67.9998 13.8005 67.4922 12.9086C66.9982 12.0168 66.7513 10.9877 66.7513 9.82143C66.7513 8.65516 67.0051 7.62611 67.5128 6.73426C68.0341 5.84241 68.7408 5.15637 69.6326 4.67614C70.5245 4.1822 71.5192 3.93522 72.6169 3.93522C73.7145 3.93522 74.7093 4.1822 75.6011 4.67614C76.493 5.15637 77.1928 5.84241 77.7004 6.73426C78.2218 7.62611 78.4825 8.65516 78.4825 9.82143C78.4825 10.9877 78.215 12.0168 77.6798 12.9086C77.1585 13.8005 76.445 14.4934 75.5394 14.9873C74.6476 15.4675 73.6459 15.7076 72.5346 15.7076ZM72.5346 13.1967C73.0559 13.1967 73.543 13.0733 73.9958 12.8263C74.4623 12.5656 74.8328 12.1814 75.1072 11.6737C75.3816 11.1661 75.5188 10.5486 75.5188 9.82143C75.5188 8.73749 75.2307 7.90738 74.6544 7.33111C74.0919 6.74112 73.399 6.44612 72.5757 6.44612C71.7525 6.44612 71.0596 6.74112 70.497 7.33111C69.9482 7.90738 69.6738 8.73749 69.6738 9.82143C69.6738 10.9054 69.9413 11.7423 70.4764 12.3323C71.0253 12.9086 71.7113 13.1967 72.5346 13.1967Z" fill="white"/>
<path d="M79.8552 9.78027C79.8552 8.62772 80.0816 7.60553 80.5344 6.71368C81.0009 5.82183 81.6252 5.13579 82.4072 4.65556C83.203 4.17533 84.088 3.93522 85.0622 3.93522C85.9129 3.93522 86.6538 4.10673 87.285 4.44975C87.9298 4.79277 88.4444 5.22497 88.8286 5.74636V4.12045H91.7305V15.5224H88.8286V13.8553C88.4581 14.3904 87.9436 14.8364 87.285 15.1931C86.6401 15.5361 85.8923 15.7076 85.0416 15.7076C84.0812 15.7076 83.203 15.4607 82.4072 14.9667C81.6252 14.4728 81.0009 13.7799 80.5344 12.888C80.0816 11.9825 79.8552 10.9465 79.8552 9.78027ZM88.8286 9.82143C88.8286 9.12167 88.6914 8.52482 88.4169 8.03087C88.1425 7.5232 87.7721 7.13902 87.3056 6.87833C86.839 6.60391 86.3382 6.4667 85.8031 6.4667C85.268 6.4667 84.7741 6.59705 84.3213 6.85774C83.8685 7.11844 83.498 7.50262 83.2099 8.01029C82.9355 8.50424 82.7983 9.09423 82.7983 9.78027C82.7983 10.4663 82.9355 11.07 83.2099 11.5914C83.498 12.0991 83.8685 12.4901 84.3213 12.7645C84.7878 13.0389 85.2817 13.1762 85.8031 13.1762C86.3382 13.1762 86.839 13.0458 87.3056 12.7851C87.7721 12.5107 88.1425 12.1265 88.4169 11.6326C88.6914 11.1249 88.8286 10.5212 88.8286 9.82143Z" fill="white"/>
<path d="M97.426 5.89043C97.7965 5.28672 98.2767 4.81335 98.8667 4.47033C99.4704 4.12731 100.156 3.9558 100.925 3.9558V6.98123H100.163C99.2577 6.98123 98.5717 7.1939 98.1052 7.61925C97.6524 8.04459 97.426 8.78551 97.426 9.84201V15.5224H94.5447V4.12045H97.426V5.89043Z" fill="white"/>
<path d="M102.125 9.78027C102.125 8.62772 102.351 7.60553 102.804 6.71368C103.27 5.82183 103.901 5.13579 104.697 4.65556C105.493 4.17533 106.378 3.93522 107.352 3.93522C108.093 3.93522 108.8 4.09987 109.472 4.42917C110.144 4.74475 110.68 5.17009 111.077 5.7052V0.292358H114V15.5224H111.077V13.8348C110.721 14.3973 110.22 14.8501 109.575 15.1931C108.93 15.5361 108.182 15.7076 107.332 15.7076C106.371 15.7076 105.493 15.4607 104.697 14.9667C103.901 14.4728 103.27 13.7799 102.804 12.888C102.351 11.9825 102.125 10.9465 102.125 9.78027ZM111.098 9.82143C111.098 9.12167 110.961 8.52482 110.686 8.03087C110.412 7.5232 110.041 7.13902 109.575 6.87833C109.108 6.60391 108.608 6.4667 108.073 6.4667C107.537 6.4667 107.044 6.59705 106.591 6.85774C106.138 7.11844 105.767 7.50262 105.479 8.01029C105.205 8.50424 105.068 9.09423 105.068 9.78027C105.068 10.4663 105.205 11.07 105.479 11.5914C105.767 12.0991 106.138 12.4901 106.591 12.7645C107.057 13.0389 107.551 13.1762 108.073 13.1762C108.608 13.1762 109.108 13.0458 109.575 12.7851C110.041 12.5107 110.412 12.1265 110.686 11.6326C110.961 11.1249 111.098 10.5212 111.098 9.82143Z" fill="white"/>
</svg>
