<svg width="44" height="44" viewBox="0 0 44 44" fill="none" xmlns="http://www.w3.org/2000/svg">
<mask id="mask0_185_446468" style="mask-type:alpha" maskUnits="userSpaceOnUse" x="0" y="0" width="44" height="44">
<rect width="44" height="44" fill="white"/>
</mask>
<g mask="url(#mask0_185_446468)">
<path fill-rule="evenodd" clip-rule="evenodd" d="M2.37703 16.2613C-0.792344 19.4307 -0.792343 24.5693 2.37703 27.7387L16.2613 41.623C19.4307 44.7923 24.5693 44.7923 27.7387 41.623L41.623 27.7387C44.7923 24.5693 44.7923 19.4307 41.623 16.2613L27.7387 2.37703C24.5693 -0.792344 19.4307 -0.792344 16.2613 2.37703L2.37703 16.2613Z" fill="#0075FF"/>
<path d="M28.448 20.1587C28.2957 20.1587 28.1642 20.265 28.1323 20.4139L27.4413 23.6383C27.4073 23.7972 27.5284 23.9471 27.691 23.9471H28.9619C29.811 23.9471 30.4994 24.6355 30.4994 25.4846V25.4846C30.4994 26.3338 29.811 27.0221 28.9619 27.0221H26.9709C26.8194 27.0221 26.6885 27.1282 26.6571 27.2765L26.094 29.9353C25.9374 30.675 25.2844 31.2042 24.5283 31.2042V31.2042C23.511 31.2042 22.7519 30.2674 22.9626 29.2722L23.3653 27.3706C23.4033 27.1911 23.2664 27.0221 23.0829 27.0221H19.3181C19.1104 27.0221 18.9311 27.1675 18.8881 27.3706L18.3429 29.9449C18.1875 30.679 17.5394 31.2042 16.789 31.2042V31.2042C15.7793 31.2042 15.0259 30.2745 15.2351 29.2867L15.6408 27.3706C15.6789 27.1911 15.5419 27.0221 15.3584 27.0221H13.5375C12.6884 27.0221 12 26.3338 12 25.4846V25.4846C12 24.6355 12.6884 23.9471 13.5375 23.9471H16.0791C16.2539 23.9471 16.405 23.825 16.4417 23.654L17.1125 20.5234C17.1527 20.3357 17.0096 20.1587 16.8176 20.1587H15.0381C14.189 20.1587 13.5006 19.4703 13.5006 18.6212V18.6212C13.5006 17.772 14.189 17.0836 15.0381 17.0836H17.5558C17.7301 17.0836 17.8806 16.9616 17.9166 16.791L18.45 14.2609C18.605 13.526 19.2534 13 20.0045 13V13C21.0138 13 21.7673 13.9289 21.559 14.9164L21.1738 16.7433C21.1369 16.9187 21.2707 17.0836 21.4499 17.0836H25.2316C25.4343 17.0836 25.6093 16.9417 25.6511 16.7433L26.1725 14.2705C26.3286 13.53 26.982 13 27.7388 13V13C28.7557 13 29.5148 13.9359 29.305 14.931L28.9166 16.7731C28.8829 16.9331 29.005 17.0836 29.1685 17.0836H30.4625C31.3116 17.0836 32 17.772 32 18.6212V18.6212C32 19.4703 31.3116 20.1587 30.4625 20.1587H28.448ZM24.6554 21.3706C24.7507 20.9261 24.7983 20.7039 24.7288 20.5329C24.6842 20.4231 24.6082 20.329 24.5102 20.2624C24.3575 20.1587 24.1302 20.1587 23.6757 20.1587H21.2479C20.9386 20.1587 20.7839 20.1587 20.659 20.2198C20.5781 20.2595 20.5071 20.3169 20.4514 20.3877C20.3654 20.497 20.333 20.6482 20.2682 20.9507L19.8858 22.7352C19.7905 23.1796 19.7429 23.4019 19.8124 23.5729C19.857 23.6827 19.933 23.7768 20.031 23.8433C20.1837 23.9471 20.411 23.9471 20.8655 23.9471H23.2933C23.6027 23.9471 23.7573 23.9471 23.8822 23.8859C23.9631 23.8463 24.0341 23.7889 24.0898 23.7181C24.1758 23.6088 24.2082 23.4576 24.273 23.1551L24.6554 21.3706Z" fill="white"/>
</g>
</svg>
