<svg width="33" height="32" viewBox="0 0 33 32" fill="none" xmlns="http://www.w3.org/2000/svg">
<g clip-path="url(#clip0_325_43769)">
<path d="M21.5 22C22.6046 22 23.5 21.1046 23.5 20C23.5 18.8954 22.6046 18 21.5 18C20.3954 18 19.5 18.8954 19.5 20C19.5 21.1046 20.3954 22 21.5 22Z" fill="#898989" fill-opacity="0.6"/>
<path d="M14.5 14C15.6046 14 16.5 13.1046 16.5 12C16.5 10.8954 15.6046 10 14.5 10C13.3954 10 12.5 10.8954 12.5 12C12.5 13.1046 13.3954 14 14.5 14Z" fill="#898989" fill-opacity="0.6"/>
<path d="M29.5 20C30.0523 20 30.5 19.5523 30.5 19C30.5 18.4477 30.0523 18 29.5 18C28.9477 18 28.5 18.4477 28.5 19C28.5 19.5523 28.9477 20 29.5 20Z" fill="#898989" fill-opacity="0.6"/>
<path d="M27 30C26.3078 30 25.6311 29.7947 25.0555 29.4101C24.4799 29.0256 24.0313 28.4789 23.7664 27.8394C23.5015 27.1999 23.4322 26.4961 23.5673 25.8172C23.7023 25.1383 24.0356 24.5146 24.5251 24.0251C25.0146 23.5356 25.6383 23.2023 26.3172 23.0673C26.9961 22.9322 27.6999 23.0015 28.3394 23.2664C28.9789 23.5313 29.5256 23.9799 29.9101 24.5555C30.2947 25.1311 30.5 25.8078 30.5 26.5C30.4989 27.4279 30.1298 28.3175 29.4737 28.9737C28.8175 29.6298 27.9279 29.9989 27 30V30ZM27 25C26.7033 25 26.4133 25.088 26.1666 25.2528C25.92 25.4176 25.7277 25.6519 25.6142 25.926C25.5007 26.2001 25.4709 26.5017 25.5288 26.7926C25.5867 27.0836 25.7296 27.3509 25.9393 27.5607C26.1491 27.7704 26.4164 27.9133 26.7074 27.9712C26.9983 28.0291 27.2999 27.9994 27.574 27.8858C27.8481 27.7723 28.0824 27.58 28.2472 27.3334C28.412 27.0867 28.5 26.7967 28.5 26.5C28.4996 26.1023 28.3414 25.721 28.0602 25.4398C27.779 25.1586 27.3977 25.0005 27 25V25Z" fill="#898989" fill-opacity="0.6"/>
<path d="M14.5 30C13.7466 29.9996 13.0091 29.7841 12.374 29.3789C11.0145 29.9907 9.49529 30.1524 8.03757 29.8404C6.57985 29.5284 5.25986 28.7591 4.26995 27.6445C3.28005 26.5299 2.67196 25.1282 2.5343 23.6439C2.39664 22.1595 2.73661 20.67 3.50467 19.3923C4.27272 18.1147 5.42872 17.1157 6.8042 16.541C8.17968 15.9663 9.70277 15.8458 11.1515 16.1972C12.6002 16.5485 13.8989 17.3534 14.8582 18.4944C15.8176 19.6354 16.3875 21.053 16.4849 22.5405C17.2505 22.9769 17.8503 23.6545 18.1905 24.4675C18.5308 25.2804 18.5924 26.1832 18.3657 27.0349C18.1391 27.8865 17.637 28.6393 16.9377 29.1757C16.2384 29.712 15.3813 30.0019 14.5 30V30ZM12.6157 26.9722L13.1548 27.4668C13.3721 27.6683 13.6316 27.8187 13.9145 27.9071C14.1973 27.9955 14.4963 28.0196 14.7897 27.9778C15.0831 27.9359 15.3634 27.8292 15.6103 27.6652C15.8571 27.5013 16.0643 27.2843 16.2167 27.0301C16.369 26.776 16.4627 26.491 16.491 26.196C16.5192 25.901 16.4813 25.6035 16.3799 25.325C16.2785 25.0465 16.1163 24.7942 15.905 24.5864C15.6937 24.3786 15.4388 24.2206 15.1587 24.1238L14.4678 23.8806L14.4978 23.0339C14.5071 21.9302 14.1516 20.8544 13.4865 19.9735C12.8214 19.0927 11.884 18.4562 10.8199 18.163C9.75582 17.8698 8.62468 17.9363 7.60229 18.3522C6.5799 18.7681 5.72351 19.51 5.16623 20.4627C4.60894 21.4154 4.38197 22.5256 4.52059 23.6206C4.6592 24.7156 5.15565 25.7341 5.93276 26.5179C6.70987 27.3017 7.72413 27.8068 8.8179 27.9548C9.91167 28.1028 11.0237 27.8854 11.9812 27.3362L12.6157 26.9722Z" fill="#898989" fill-opacity="0.6"/>
<path d="M24.5 16C22.9093 15.9982 21.3842 15.3655 20.2593 14.2407C19.1345 13.1159 18.5018 11.5908 18.5 10C18.5001 9.82212 18.5091 9.64433 18.5269 9.46732C17.9104 9.12289 17.3972 8.6197 17.0408 8.00999C16.6844 7.40028 16.4977 6.70627 16.5 6.00002C16.5012 4.93952 16.923 3.9228 17.6729 3.17291C18.4228 2.42302 19.4395 2.00121 20.5 2.00002C21.2063 1.99767 21.9003 2.18442 22.51 2.54088C23.1197 2.89734 23.6229 3.41051 23.9673 4.02712C24.1484 4.00902 24.3252 4.00002 24.5 4.00002C26.0913 4.00002 27.6174 4.63216 28.7427 5.75738C29.8679 6.8826 30.5 8.40872 30.5 10C30.5 11.5913 29.8679 13.1174 28.7427 14.2427C27.6174 15.3679 26.0913 16 24.5 16ZM20.5 4.00002C19.9698 4.00058 19.4614 4.21147 19.0864 4.58642C18.7115 4.96137 18.5006 5.46976 18.5 6.00002C18.5001 6.42924 18.6395 6.84682 18.8974 7.18991C19.1553 7.533 19.5177 7.78302 19.93 7.90232L20.8318 8.17292L20.6165 9.08912C20.4287 9.89665 20.4969 10.7426 20.8116 11.5097C21.1262 12.2767 21.6718 12.9268 22.3726 13.3698C23.0735 13.8127 23.8948 14.0266 24.7226 13.9818C25.5505 13.9369 26.3439 13.6355 26.9927 13.1194C27.6416 12.6033 28.1137 11.898 28.3436 11.1015C28.5736 10.3049 28.5499 9.45653 28.2759 8.67403C28.002 7.89153 27.4912 7.21369 26.8146 6.73454C26.138 6.25538 25.3291 5.99868 24.5 6.00002C24.1925 6.00362 23.8865 6.04261 23.5879 6.11622L22.6724 6.33032L22.4024 5.42972C22.283 5.01748 22.033 4.65517 21.6899 4.39732C21.3468 4.13948 20.9292 4.00005 20.5 4.00002V4.00002Z" fill="#898989" fill-opacity="0.6"/>
<path d="M7 11C6.10999 11 5.23996 10.7361 4.49994 10.2416C3.75991 9.74715 3.18314 9.04434 2.84254 8.22208C2.50195 7.39981 2.41283 6.49501 2.58647 5.6221C2.7601 4.74918 3.18868 3.94736 3.81802 3.31802C4.44736 2.68868 5.24918 2.2601 6.1221 2.08647C6.99501 1.91283 7.89981 2.00195 8.72208 2.34254C9.54434 2.68314 10.2471 3.25991 10.7416 3.99994C11.2361 4.73996 11.5 5.60999 11.5 6.5C11.4987 7.69306 11.0241 8.83687 10.1805 9.68049C9.33687 10.5241 8.19306 10.9987 7 11ZM7 4C6.50555 4 6.0222 4.14662 5.61108 4.42133C5.19995 4.69603 4.87952 5.08648 4.6903 5.54329C4.50108 6.00011 4.45158 6.50278 4.54804 6.98773C4.6445 7.47268 4.8826 7.91814 5.23223 8.26777C5.58187 8.6174 6.02732 8.8555 6.51228 8.95197C6.99723 9.04843 7.4999 8.99892 7.95671 8.8097C8.41353 8.62048 8.80397 8.30005 9.07868 7.88893C9.35338 7.4778 9.5 6.99446 9.5 6.5C9.49921 5.8372 9.23556 5.20178 8.76689 4.73311C8.29822 4.26444 7.6628 4.0008 7 4V4Z" fill="#898989" fill-opacity="0.6"/>
</g>
<defs>
<clipPath id="clip0_325_43769">
<rect width="32" height="32" fill="#898989" transform="translate(0.5)"/>
</clipPath>
</defs>
</svg>
