<svg width="33" height="32" viewBox="0 0 33 32" fill="none" xmlns="http://www.w3.org/2000/svg">
<path d="M15.1513 1.67611C15.1889 1.15161 15.3796 0.741137 15.7233 0.444682C16.0671 0.148227 16.5128 0 17.0607 0C17.4259 0 17.7401 0.0712632 18.0033 0.21379C18.2718 0.350615 18.4732 0.538749 18.6075 0.778194C18.7471 1.01764 18.8169 1.28844 18.8169 1.59059C18.8169 1.94406 18.7203 2.24906 18.5269 2.50561C18.3389 2.76216 18.0919 2.92749 17.7857 3.0016V3.04436C18.1348 3.13558 18.4114 3.31516 18.6155 3.58311C18.8196 3.85106 18.9217 4.20167 18.9217 4.63495C18.9217 4.95991 18.8519 5.25352 18.7122 5.51577C18.5726 5.77231 18.3631 5.9747 18.0838 6.12293C17.8045 6.27116 17.4689 6.34527 17.0768 6.34527C16.5075 6.34527 16.0402 6.18849 15.675 5.87493C15.3098 5.55567 15.1057 5.10529 15.0627 4.52378H15.7717C15.8093 4.86585 15.9409 5.1452 16.1664 5.36184C16.392 5.57848 16.6928 5.6868 17.0687 5.6868C17.4447 5.6868 17.7293 5.58418 17.9227 5.37894C18.1214 5.168 18.2208 4.8972 18.2208 4.56654C18.2208 4.13896 18.0865 3.83111 17.818 3.64297C17.5494 3.45484 17.1439 3.36077 16.6015 3.36077H16.4162V2.71085H16.6095C17.1036 2.70515 17.4769 2.61963 17.7293 2.4543C17.9818 2.28327 18.108 2.02102 18.108 1.66756C18.108 1.3654 18.014 1.12311 17.826 0.940674C17.6434 0.75824 17.3802 0.667023 17.0365 0.667023C16.7035 0.667023 16.435 0.75824 16.2309 0.940674C16.0268 1.12311 15.9059 1.36825 15.8683 1.67611H15.1513Z" fill="#898989" fill-opacity="0.6"/>
<path d="M13.5265 13.6569V12.9471H15.0411V19.1299H14.2999V13.6569H13.5265Z" fill="#898989" fill-opacity="0.6"/>
<path d="M16.3004 15.9743C16.3004 14.9938 16.4507 14.2298 16.7515 13.6825C17.0523 13.1295 17.5786 12.853 18.3305 12.853C19.0771 12.853 19.6008 13.1295 19.9015 13.6825C20.2023 14.2298 20.3527 14.9938 20.3527 15.9743C20.3527 16.972 20.2023 17.7474 19.9015 18.3004C19.6008 18.8534 19.0771 19.1299 18.3305 19.1299C17.5786 19.1299 17.0523 18.8534 16.7515 18.3004C16.4507 17.7474 16.3004 16.972 16.3004 15.9743ZM19.6276 15.9743C19.6276 15.4784 19.5954 15.0593 19.5309 14.7173C19.4719 14.3695 19.3456 14.0901 19.1523 13.8792C18.9643 13.6683 18.6904 13.5628 18.3305 13.5628C17.9653 13.5628 17.686 13.6683 17.4927 13.8792C17.3047 14.0901 17.1785 14.3695 17.114 14.7173C17.055 15.0593 17.0254 15.4784 17.0254 15.9743C17.0254 16.4874 17.055 16.9179 17.114 17.2656C17.1785 17.6134 17.3047 17.8927 17.4927 18.1037C17.686 18.3146 17.9653 18.4201 18.3305 18.4201C18.6904 18.4201 18.9643 18.3146 19.1523 18.1037C19.3456 17.8927 19.4719 17.6134 19.5309 17.2656C19.5954 16.9179 19.6276 16.4874 19.6276 15.9743Z" fill="#898989" fill-opacity="0.6"/>
<path d="M10.0886 27.3308C10.1262 26.8063 10.3169 26.3959 10.6606 26.0994C11.0044 25.803 11.4501 25.6547 11.998 25.6547C12.3632 25.6547 12.6774 25.726 12.9405 25.8685C13.2091 26.0053 13.4105 26.1935 13.5448 26.4329C13.6844 26.6724 13.7542 26.9432 13.7542 27.2453C13.7542 27.5988 13.6576 27.9038 13.4642 28.1603C13.2762 28.4169 13.0292 28.5822 12.723 28.6563V28.6991C13.0721 28.7903 13.3487 28.9699 13.5528 29.2378C13.7569 29.5058 13.859 29.8564 13.859 30.2897C13.859 30.6146 13.7891 30.9082 13.6495 31.1705C13.5099 31.427 13.3004 31.6294 13.0211 31.7777C12.7418 31.9259 12.4061 32 12.0141 32C11.4448 32 10.9775 31.8432 10.6123 31.5297C10.2471 31.2104 10.043 30.76 10 30.1785H10.709C10.7465 30.5206 10.8781 30.7999 11.1037 31.0166C11.3293 31.2332 11.6301 31.3415 12.006 31.3415C12.382 31.3415 12.6666 31.2389 12.86 31.0337C13.0587 30.8227 13.1581 30.5519 13.1581 30.2213C13.1581 29.7937 13.0238 29.4858 12.7553 29.2977C12.4867 29.1096 12.0812 29.0155 11.5388 29.0155H11.3535V28.3656H11.5468C12.0409 28.3599 12.4142 28.2744 12.6666 28.109C12.9191 27.938 13.0453 27.6758 13.0453 27.3223C13.0453 27.0201 12.9513 26.7778 12.7633 26.5954C12.5807 26.413 12.3175 26.3218 11.9738 26.3218C11.6408 26.3218 11.3723 26.413 11.1682 26.5954C10.9641 26.7778 10.8432 27.023 10.8056 27.3308H10.0886Z" fill="#898989" fill-opacity="0.6"/>
<path d="M14.6716 30.5804V29.9904L17.4993 25.8343H18.3775V29.9049H19.1831V30.5804H18.3775V31.9572H17.6524V30.5804H14.6716ZM17.6846 26.6467L15.5175 29.9049H17.6846V26.6467Z" fill="#898989" fill-opacity="0.6"/>
<path d="M23.6294 26.45H20.8017V28.3998C20.9252 28.2174 21.1078 28.0691 21.3495 27.9551C21.5912 27.8354 21.8517 27.7755 22.1309 27.7755C22.5767 27.7755 22.9393 27.8753 23.2185 28.0748C23.4978 28.2687 23.6965 28.5224 23.8147 28.8359C23.9382 29.1438 24 29.4716 24 29.8193C24 30.2298 23.9275 30.5975 23.7825 30.9225C23.6375 31.2475 23.4146 31.504 23.1138 31.6921C22.8184 31.8803 22.4505 31.9743 22.0101 31.9743C21.4462 31.9743 20.9896 31.8204 20.6405 31.5126C20.2914 31.2047 20.0793 30.7942 20.0041 30.2811H20.7211C20.7909 30.6061 20.9386 30.8598 21.1642 31.0422C21.3898 31.2247 21.6744 31.3159 22.0182 31.3159C22.4425 31.3159 22.762 31.1819 22.9769 30.914C23.1917 30.6403 23.2991 30.2811 23.2991 29.8365C23.2991 29.3918 23.1917 29.0497 22.9769 28.8103C22.762 28.5651 22.4451 28.4425 22.0262 28.4425C21.7416 28.4425 21.4918 28.5167 21.277 28.6649C21.0675 28.8074 20.9144 29.0041 20.8178 29.2549H20.1249V25.7659H23.6294V26.45Z" fill="#898989" fill-opacity="0.6"/>
</svg>
