<svg width="33" height="32" viewBox="0 0 33 32" fill="none" xmlns="http://www.w3.org/2000/svg">
<g clip-path="url(#clip0_325_43803)">
<path d="M13.0757 25.968V20.6348" stroke="white" stroke-opacity="0.6" stroke-linecap="round" stroke-linejoin="round"/>
<path d="M9.07544 25.9693V23.3027" stroke="white" stroke-opacity="0.6" stroke-linecap="round" stroke-linejoin="round"/>
<path d="M21.0759 25.9691V19.3027" stroke="white" stroke-opacity="0.6" stroke-linecap="round" stroke-linejoin="round"/>
<path d="M25.0762 25.969V13.9688" stroke="white" stroke-opacity="0.6" stroke-linecap="round" stroke-linejoin="round"/>
<path d="M17.0757 25.9684V17.9688" stroke="white" stroke-opacity="0.6" stroke-linecap="round" stroke-linejoin="round"/>
<path d="M6.45972 19.2307L6.48713 19.1699" stroke="white" stroke-opacity="0.6" stroke-linecap="round" stroke-linejoin="round"/>
<path d="M7.4873 16.9564L9.09297 13.4023" stroke="white" stroke-opacity="0.6" stroke-linecap="round" stroke-linejoin="round" stroke-dasharray="0.1 1.82"/>
<path d="M9.59351 12.2963L9.62017 12.2363L9.67751 12.271" stroke="white" stroke-opacity="0.6" stroke-linecap="round" stroke-linejoin="round"/>
<path d="M11.8669 13.6152L13.0769 14.3588" stroke="white" stroke-opacity="0.6" stroke-linecap="round" stroke-linejoin="round" stroke-dasharray="0.1 1.93"/>
<path d="M14.1721 15.0318L14.2281 15.0665L14.2601 15.0078" stroke="white" stroke-opacity="0.6" stroke-linecap="round" stroke-linejoin="round"/>
<path d="M15.3071 13.0176L18.0912 7.72852" stroke="white" stroke-opacity="0.6" stroke-linecap="round" stroke-linejoin="round" stroke-dasharray="0.09 1.69"/>
<path d="M18.6147 6.73383L18.6454 6.67383L18.7014 6.71249" stroke="white" stroke-opacity="0.6" stroke-linecap="round" stroke-linejoin="round"/>
<path d="M20.7341 8.10938L21.8578 8.88192" stroke="white" stroke-opacity="0.6" stroke-linecap="round" stroke-linejoin="round" stroke-dasharray="0.1 1.85"/>
<path d="M22.8748 9.5816L22.9294 9.61893L22.9761 9.57227" stroke="white" stroke-opacity="0.6" stroke-linecap="round" stroke-linejoin="round"/>
<path d="M24.9705 7.57539L28.1714 4.36914" stroke="white" stroke-opacity="0.6" stroke-linecap="round" stroke-linejoin="round" stroke-dasharray="0.11 2.12"/>
<path d="M29.1685 3.36943L29.2155 3.32227" stroke="white" stroke-opacity="0.6" stroke-linecap="round" stroke-linejoin="round"/>
<path d="M2.51001 0.746094V31.3177" stroke="white" stroke-opacity="0.6" stroke-linecap="round" stroke-linejoin="round"/>
<path d="M31.7481 29.9844H1.17651" stroke="white" stroke-opacity="0.6" stroke-linecap="round" stroke-linejoin="round"/>
<path d="M7.84375 29.9844V31.3178" stroke="white" stroke-opacity="0.6" stroke-linecap="round" stroke-linejoin="round"/>
<path d="M13.1772 29.9844V31.3178" stroke="white" stroke-opacity="0.6" stroke-linecap="round" stroke-linejoin="round"/>
<path d="M18.511 29.9844V31.3178" stroke="white" stroke-opacity="0.6" stroke-linecap="round" stroke-linejoin="round"/>
<path d="M23.8447 29.9844V31.3178" stroke="white" stroke-opacity="0.6" stroke-linecap="round" stroke-linejoin="round"/>
<path d="M29.1782 29.9844V31.3178" stroke="white" stroke-opacity="0.6" stroke-linecap="round" stroke-linejoin="round"/>
<path d="M2.50998 3.32227H1.17651" stroke="white" stroke-opacity="0.6" stroke-linecap="round" stroke-linejoin="round"/>
<path d="M2.50998 8.65625H1.17651" stroke="white" stroke-opacity="0.6" stroke-linecap="round" stroke-linejoin="round"/>
<path d="M2.50998 13.9902H1.17651" stroke="white" stroke-opacity="0.6" stroke-linecap="round" stroke-linejoin="round"/>
<path d="M2.50998 19.3242H1.17651" stroke="white" stroke-opacity="0.6" stroke-linecap="round" stroke-linejoin="round"/>
<path d="M2.50998 24.6582H1.17651" stroke="white" stroke-opacity="0.6" stroke-linecap="round" stroke-linejoin="round"/>
</g>
<defs>
<clipPath id="clip0_325_43803">
<rect width="32" height="32" fill="white" transform="translate(0.5)"/>
</clipPath>
</defs>
</svg>
