<svg width="33" height="32" viewBox="0 0 33 32" fill="none" xmlns="http://www.w3.org/2000/svg">
<g clip-path="url(#clip0_325_43679)">
<path d="M22.519 0.679688V6.01302H27.8524" stroke="#898989" stroke-opacity="0.6" stroke-miterlimit="10" stroke-linecap="round" stroke-linejoin="round"/>
<path d="M27.8523 30.2798C27.8523 30.862 27.3803 31.3464 26.797 31.3464H6.23539C5.65326 31.3464 5.18579 30.862 5.18579 30.2798V1.75382C5.18579 1.17195 5.65326 0.679688 6.23539 0.679688H22.519C22.7958 0.679688 22.9245 0.798887 23.1213 0.992887L27.5378 5.35115C27.7382 5.54889 27.8523 5.73115 27.8523 6.01302V30.2798Z" stroke="#898989" stroke-opacity="0.6" stroke-miterlimit="10" stroke-linecap="round" stroke-linejoin="round"/>
<path d="M13.1982 14.0605H9.24902V18.0565H13.1982V14.0605Z" stroke="#898989" stroke-opacity="0.6" stroke-linecap="round" stroke-linejoin="round"/>
<path d="M13.1982 10.0645H9.24902V14.0605H13.1982V10.0645Z" stroke="#898989" stroke-opacity="0.6" stroke-linecap="round" stroke-linejoin="round"/>
<path d="M13.1982 18.0566H9.24902V22.0525H13.1982V18.0566Z" stroke="#898989" stroke-opacity="0.6" stroke-linecap="round" stroke-linejoin="round"/>
<path d="M13.1982 22.0527H9.24902V26.0486H13.1982V22.0527Z" stroke="#898989" stroke-opacity="0.6" stroke-linecap="round" stroke-linejoin="round"/>
<path d="M18.4809 14.0605H13.1982V18.0565H18.4809V14.0605Z" stroke="#898989" stroke-opacity="0.6" stroke-linecap="round" stroke-linejoin="round"/>
<path d="M18.4809 10.0645H13.1982V14.0605H18.4809V10.0645Z" stroke="#898989" stroke-opacity="0.6" stroke-linecap="round" stroke-linejoin="round"/>
<path d="M18.4809 18.0566H13.1982V22.0525H18.4809V18.0566Z" stroke="#898989" stroke-opacity="0.6" stroke-linecap="round" stroke-linejoin="round"/>
<path d="M18.4809 22.0527H13.1982V26.0486H18.4809V22.0527Z" stroke="#898989" stroke-opacity="0.6" stroke-linecap="round" stroke-linejoin="round"/>
<path d="M23.7639 14.0605H18.4812V18.0565H23.7639V14.0605Z" stroke="#898989" stroke-opacity="0.6" stroke-linecap="round" stroke-linejoin="round"/>
<path d="M23.7639 10.0645H18.4812V14.0605H23.7639V10.0645Z" stroke="#898989" stroke-opacity="0.6" stroke-linecap="round" stroke-linejoin="round"/>
<path d="M23.7639 18.0566H18.4812V22.0525H23.7639V18.0566Z" stroke="#898989" stroke-opacity="0.6" stroke-linecap="round" stroke-linejoin="round"/>
<path d="M23.7639 22.0527H18.4812V26.0486H23.7639V22.0527Z" stroke="#898989" stroke-opacity="0.6" stroke-linecap="round" stroke-linejoin="round"/>
</g>
<defs>
<clipPath id="clip0_325_43679">
<rect width="32" height="32" fill="#898989" transform="translate(0.5)"/>
</clipPath>
</defs>
</svg>
