<svg width="33" height="32" viewBox="0 0 33 32" fill="none" xmlns="http://www.w3.org/2000/svg">
<g clip-path="url(#clip0_325_43698)">
<path d="M28.0409 26.9713C28.8286 26.0255 29.4985 24.9793 30.0376 23.8585C30.9848 21.8896 31.5197 19.6852 31.5197 17.354C31.5197 15.6105 31.2078 13.9437 30.6622 12.3865C28.6086 6.52627 23.0437 2.31641 16.482 2.31641C9.90916 2.31641 4.33609 6.54027 2.29076 12.416C1.75169 13.9648 1.44409 15.6217 1.44409 17.354C1.44409 19.6715 1.97156 21.8643 2.90836 23.8245C3.45036 24.9585 4.12716 26.0159 4.92303 26.9715" stroke="white" stroke-opacity="0.6" stroke-linecap="round" stroke-linejoin="round"/>
<path d="M22.4819 28.6555C22.4819 29.3976 21.8802 29.9993 21.1381 29.9993H11.8258C11.0835 29.9993 10.4819 29.3978 10.4819 28.6555V26.0099C10.4819 25.2677 11.0837 24.666 11.8258 24.666H21.1379C21.8802 24.666 22.4818 25.2676 22.4818 26.0099V28.6555H22.4819Z" stroke="white" stroke-opacity="0.6" stroke-miterlimit="10" stroke-linecap="round" stroke-linejoin="round"/>
<path d="M31.5197 17.2559H27.6013" stroke="white" stroke-opacity="0.6" stroke-miterlimit="10" stroke-linecap="round" stroke-linejoin="round"/>
<path d="M5.52423 17.2559H1.44409" stroke="white" stroke-opacity="0.6" stroke-miterlimit="10" stroke-linecap="round" stroke-linejoin="round"/>
<path d="M6.98407 22.7383L3.45874 24.7736" stroke="white" stroke-opacity="0.6" stroke-miterlimit="10" stroke-linecap="round" stroke-linejoin="round"/>
<path d="M23.9564 4.30859L22.0205 7.66153" stroke="white" stroke-opacity="0.6" stroke-miterlimit="10" stroke-linecap="round" stroke-linejoin="round"/>
<path d="M16.4819 2.31641V6.21841" stroke="white" stroke-opacity="0.6" stroke-miterlimit="10" stroke-linecap="round" stroke-linejoin="round"/>
<path d="M9.00732 4.30859L10.9833 7.73139" stroke="white" stroke-opacity="0.6" stroke-miterlimit="10" stroke-linecap="round" stroke-linejoin="round"/>
<path d="M3.51294 9.76758L6.98401 11.7716" stroke="white" stroke-opacity="0.6" stroke-miterlimit="10" stroke-linecap="round" stroke-linejoin="round"/>
<path d="M26.1008 22.8086L29.5511 24.7874" stroke="white" stroke-opacity="0.6" stroke-miterlimit="10" stroke-linecap="round" stroke-linejoin="round"/>
<path d="M16.4819 20.3413C17.8372 20.3413 18.9358 19.2427 18.9358 17.8875C18.9358 16.5322 17.8372 15.4336 16.4819 15.4336C15.1267 15.4336 14.0281 16.5322 14.0281 17.8875C14.0281 19.2427 15.1267 20.3413 16.4819 20.3413Z" stroke="white" stroke-opacity="0.6" stroke-miterlimit="10" stroke-linecap="round" stroke-linejoin="round"/>
<path d="M18.5432 16.557L27.2269 10.9492" stroke="white" stroke-opacity="0.6" stroke-miterlimit="10" stroke-linecap="round" stroke-linejoin="round"/>
</g>
<defs>
<clipPath id="clip0_325_43698">
<rect width="32" height="32" fill="white" transform="translate(0.5)"/>
</clipPath>
</defs>
</svg>
