<svg width="33" height="32" viewBox="0 0 33 32" fill="none" xmlns="http://www.w3.org/2000/svg">
<g clip-path="url(#clip0_325_43718)">
<path d="M21.6515 31.3144H11.3452L12.2025 28.2324H20.7941L21.6515 31.3144Z" stroke="white" stroke-opacity="0.6" stroke-linecap="round" stroke-linejoin="round"/>
<path d="M7.91681 15.5505C5.57414 16.1739 3.02308 14.2327 2.22001 11.2148C1.41708 8.19747 2.66534 5.24587 5.00761 4.62241C5.64601 4.45254 6.29974 4.47294 6.92934 4.65374" stroke="white" stroke-opacity="0.6" stroke-linecap="round" stroke-linejoin="round"/>
<path d="M25.0803 15.5506C27.423 16.174 29.9739 14.2328 30.7771 11.2149C31.5801 8.19743 30.3318 5.24583 27.9897 4.62236C27.3433 4.45036 26.6811 4.47356 26.0442 4.66063" stroke="white" stroke-opacity="0.6" stroke-linecap="round" stroke-linejoin="round"/>
<path d="M25.0323 0.679688H7.9646C7.40994 0.679688 6.96021 1.12929 6.96021 1.68409V10.9996C6.96021 16.6901 11.2389 21.3196 16.4982 21.3196C21.7578 21.3196 26.0366 16.6901 26.0366 10.9996V1.68395C26.0367 1.12929 25.587 0.679688 25.0323 0.679688Z" stroke="white" stroke-opacity="0.6" stroke-miterlimit="10" stroke-linecap="round" stroke-linejoin="round"/>
<path d="M17.8455 8.30757C16.2937 3.88917 16.6651 3.99464 15.1497 8.30757C10.4101 8.40251 10.6469 8.09904 14.3147 10.851C12.9443 15.3324 12.7133 15.0258 16.4977 12.4204C20.3829 15.0949 20.0172 15.2186 18.6803 10.851C22.4571 8.01771 22.4472 8.39971 17.8455 8.30757Z" stroke="white" stroke-opacity="0.6" stroke-miterlimit="10" stroke-linecap="round" stroke-linejoin="round"/>
<path d="M15.2017 28.2623V23.6602" stroke="white" stroke-opacity="0.6" stroke-linecap="round" stroke-linejoin="round"/>
<path d="M17.7954 28.2623V23.6602" stroke="white" stroke-opacity="0.6" stroke-linecap="round" stroke-linejoin="round"/>
</g>
<defs>
<clipPath id="clip0_325_43718">
<rect width="32" height="32" fill="white" transform="translate(0.5)"/>
</clipPath>
</defs>
</svg>
