<svg width="33" height="32" viewBox="0 0 33 32" fill="none" xmlns="http://www.w3.org/2000/svg">
<g clip-path="url(#clip0_325_43740)">
<path d="M10.5293 20.6674L15.8627 15.334" stroke="#898989" stroke-opacity="0.6" stroke-linecap="round" stroke-linejoin="round"/>
<path d="M6.5293 20.6681L14.5295 12.668" stroke="#898989" stroke-opacity="0.6" stroke-linecap="round" stroke-linejoin="round"/>
<path d="M2.52905 20.6681L10.5292 12.668" stroke="#898989" stroke-opacity="0.6" stroke-linecap="round" stroke-linejoin="round"/>
<path d="M1.1958 18.0011L6.52896 12.668" stroke="#898989" stroke-opacity="0.6" stroke-linecap="round" stroke-linejoin="round"/>
<path d="M15.8627 12.668H1.1958V20.6681H15.8627V12.668Z" stroke="#898989" stroke-opacity="0.6" stroke-linecap="round" stroke-linejoin="round"/>
<path d="M31.8715 10H1.20483V23.3334H31.8715V10Z" stroke="#898989" stroke-opacity="0.6" stroke-linecap="round" stroke-linejoin="round"/>
<path d="M21.9864 15.2927C22.5365 15.2927 22.9824 14.751 22.9824 14.0829C22.9824 13.4147 22.5365 12.873 21.9864 12.873C21.4364 12.873 20.9905 13.4147 20.9905 14.0829C20.9905 14.751 21.4364 15.2927 21.9864 15.2927Z" stroke="#898989" stroke-opacity="0.6" stroke-linecap="round" stroke-linejoin="round"/>
<path d="M27.3688 20.4255C27.9188 20.4255 28.3647 19.8839 28.3647 19.2157C28.3647 18.5475 27.9188 18.0059 27.3688 18.0059C26.8187 18.0059 26.3728 18.5475 26.3728 19.2157C26.3728 19.8839 26.8187 20.4255 27.3688 20.4255Z" stroke="#898989" stroke-opacity="0.6" stroke-linecap="round" stroke-linejoin="round"/>
<path d="M27.3688 12.9883L21.9832 20.4261" stroke="#898989" stroke-opacity="0.6" stroke-linecap="round" stroke-linejoin="round"/>
</g>
<defs>
<clipPath id="clip0_325_43740">
<rect width="32.0383" height="32" fill="#898989" transform="translate(0.5)"/>
</clipPath>
</defs>
</svg>
