<svg width="20" height="21" viewBox="0 0 20 21" fill="none" xmlns="http://www.w3.org/2000/svg">
<path fill-rule="evenodd" clip-rule="evenodd" d="M11.0875 19.25L10 18.625L12.5 14.25H16.25C16.9404 14.25 17.5 13.6904 17.5 13V5.5C17.5 4.80964 16.9404 4.25 16.25 4.25H3.75C3.05964 4.25 2.5 4.80964 2.5 5.5V13C2.5 13.6904 3.05964 14.25 3.75 14.25H9.375V15.5H3.75C2.36929 15.5 1.25 14.3807 1.25 13V5.5C1.25 4.11929 2.36929 3 3.75 3H16.25C17.6307 3 18.75 4.11929 18.75 5.5V13C18.75 14.3807 17.6307 15.5 16.25 15.5H13.225L11.0875 19.25ZM15 6.75H5V8H15V6.75ZM11.25 10.5H5V11.75H11.25V10.5Z" fill="white" fill-opacity="0.6"/>
</svg>
