<svg width="24" height="24" viewBox="0 0 24 24" fill="none" xmlns="http://www.w3.org/2000/svg">
<path d="M15.6935 9.53977C16.5992 9.53977 17.3335 8.80551 17.3335 7.89977C17.3335 6.99402 16.5992 6.25977 15.6935 6.25977C14.7877 6.25977 14.0535 6.99402 14.0535 7.89977C14.0535 8.80551 14.7877 9.53977 15.6935 9.53977Z" fill="#EEEEEE" stroke="#2E3133" stroke-width="1.5" stroke-miterlimit="10" stroke-linecap="round" stroke-linejoin="round"/>
<path d="M8.30675 9.53977C9.2125 9.53977 9.94675 8.80551 9.94675 7.89977C9.94675 6.99402 9.2125 6.25977 8.30675 6.25977C7.40101 6.25977 6.66675 6.99402 6.66675 7.89977C6.66675 8.80551 7.40101 9.53977 8.30675 9.53977Z" fill="#EEEEEE" stroke="#2E3133" stroke-width="1.5" stroke-miterlimit="10" stroke-linecap="round" stroke-linejoin="round"/>
<path d="M15.6935 17.739C16.5992 17.739 17.3335 17.0047 17.3335 16.099C17.3335 15.1932 16.5992 14.459 15.6935 14.459C14.7877 14.459 14.0535 15.1932 14.0535 16.099C14.0535 17.0047 14.7877 17.739 15.6935 17.739Z" fill="#EEEEEE" stroke="#2E3133" stroke-width="1.5" stroke-miterlimit="10" stroke-linecap="round" stroke-linejoin="round"/>
<path d="M8.30675 17.739C9.2125 17.739 9.94675 17.0047 9.94675 16.099C9.94675 15.1932 9.2125 14.459 8.30675 14.459C7.40101 14.459 6.66675 15.1932 6.66675 16.099C6.66675 17.0047 7.40101 17.739 8.30675 17.739Z" fill="#EEEEEE" stroke="#2E3133" stroke-width="1.5" stroke-miterlimit="10" stroke-linecap="round" stroke-linejoin="round"/>
</svg>
