<svg width="16" height="18" viewBox="0 0 16 18" fill="none" xmlns="http://www.w3.org/2000/svg">
<path fill-rule="evenodd" clip-rule="evenodd" d="M11.375 15.4875L9.75625 13.8687L8.875 14.75L11.375 17.25L15.75 12.875L14.8687 11.9937L11.375 15.4875ZM3.875 4.125C4.22018 4.125 4.5 3.84518 4.5 3.5C4.5 3.15482 4.22018 2.875 3.875 2.875C3.52982 2.875 3.25 3.15482 3.25 3.5C3.25 3.84518 3.52982 4.125 3.875 4.125ZM3.875 9.125C4.22018 9.125 4.5 8.84518 4.5 8.5C4.5 8.15482 4.22018 7.875 3.875 7.875C3.52982 7.875 3.25 8.15482 3.25 8.5C3.25 8.84518 3.52982 9.125 3.875 9.125ZM3.875 14.125C4.22018 14.125 4.5 13.8452 4.5 13.5C4.5 13.1548 4.22018 12.875 3.875 12.875C3.52982 12.875 3.25 13.1548 3.25 13.5C3.25 13.8452 3.52982 14.125 3.875 14.125ZM12 0.375H2C1.30964 0.375 0.75 0.934644 0.75 1.625V15.375C0.75 16.0654 1.30964 16.625 2 16.625H7V15.375H2V11.625H13.25V1.625C13.25 0.934644 12.6904 0.375 12 0.375ZM12 10.375H2V6.625H12V10.375ZM2 5.375H12V1.625H2V5.375Z" fill="white"/>
</svg>
