<svg width="20" height="21" viewBox="0 0 20 21" fill="none" xmlns="http://www.w3.org/2000/svg">
<path fill-rule="evenodd" clip-rule="evenodd" d="M16.8748 10.9756V10.0194L18.0748 8.96937C18.5315 8.56684 18.6318 7.89383 18.3123 7.37562L16.8373 4.87562C16.6143 4.48927 16.2022 4.25108 15.7561 4.25062C15.6203 4.24958 15.4851 4.27069 15.3561 4.31312L13.8373 4.82562C13.5751 4.65138 13.3016 4.49478 13.0186 4.35687L12.6998 2.78187C12.5819 2.18798 12.0552 1.76402 11.4498 1.77562H8.52484C7.91946 1.76402 7.39281 2.18798 7.27485 2.78187L6.95609 4.35687C6.67105 4.49475 6.39545 4.65134 6.13109 4.82562L4.6436 4.28812C4.51316 4.25414 4.37808 4.24147 4.2436 4.25062C3.79747 4.25108 3.38541 4.48927 3.16235 4.87562L1.68735 7.37562C1.38647 7.89251 1.49389 8.5501 1.9436 8.94437L3.12485 10.0256V10.9819L1.9436 12.0319C1.48063 12.4294 1.37231 13.103 1.68735 13.6256L3.16235 16.1256C3.38541 16.512 3.79747 16.7502 4.2436 16.7506C4.37944 16.7517 4.51454 16.7306 4.6436 16.6881L6.16234 16.1756C6.42456 16.3499 6.69808 16.5065 6.9811 16.6444L7.29984 18.2194C7.41781 18.8133 7.94446 19.2372 8.54985 19.2256H11.4998C12.1052 19.2372 12.6319 18.8133 12.7498 18.2194L13.0686 16.6444C13.3536 16.5065 13.6292 16.3499 13.8936 16.1756L15.4061 16.6881C15.5351 16.7306 15.6703 16.7517 15.8061 16.7506C16.2522 16.7502 16.6643 16.512 16.8873 16.1256L18.3123 13.6256C18.6132 13.1087 18.5058 12.4512 18.0561 12.0569L16.8748 10.9756ZM6.24984 10.5007C6.24984 12.5717 7.92877 14.2507 9.99984 14.2507C10.9975 14.2608 11.9572 13.869 12.6627 13.1635C13.3681 12.458 13.76 11.4983 13.7498 10.5007C13.7498 8.4296 12.0709 6.75067 9.99984 6.75067C7.92877 6.75067 6.24984 8.4296 6.24984 10.5007ZM8.21493 8.71577C8.68719 8.24351 9.33215 7.98512 9.99984 8.00067C10.6675 7.98512 11.3125 8.24351 11.7847 8.71577C12.257 9.18802 12.5154 9.83298 12.4998 10.5007C12.5154 11.1684 12.257 11.8133 11.7847 12.2856C11.3125 12.7578 10.6675 13.0162 9.99984 13.0007C9.33215 13.0162 8.68719 12.7578 8.21493 12.2856C7.74268 11.8133 7.48428 11.1684 7.49984 10.5007C7.48428 9.83298 7.74268 9.18802 8.21493 8.71577ZM13.6123 14.7756L15.7561 15.5006L17.2311 13.0006L15.5311 11.4569C15.6467 10.8099 15.6467 10.1476 15.5311 9.50062L17.2311 8.00062L15.7561 5.50062L13.6061 6.20062C13.1025 5.78134 12.5321 5.44964 11.9186 5.21937L11.4748 3.00062H8.52484L8.08109 5.24437C7.46272 5.46828 6.88918 5.80056 6.38734 6.22562L4.24359 5.50062L2.7686 8.00062L4.46859 9.54437C4.35303 10.1913 4.35303 10.8537 4.46859 11.5006L2.7686 13.0006L4.24359 15.5006L6.39359 14.8006C6.89717 15.2199 7.46761 15.5516 8.08109 15.7819L8.52484 18.0006H11.4748L11.9186 15.7569C12.537 15.533 13.1105 15.2007 13.6123 14.7756Z" fill="white" fill-opacity="0.6"/>
</svg>
