<svg width="20" height="21" viewBox="0 0 20 21" fill="none" xmlns="http://www.w3.org/2000/svg">
<path fill-rule="evenodd" clip-rule="evenodd" d="M8.75 13.1125L6.50625 10.8688L5.625 11.75L8.75 14.875L14.375 9.25L13.4938 8.3625L8.75 13.1125ZM15.625 3.625H13.75V3C13.75 2.30964 13.1904 1.75 12.5 1.75H7.5C6.80964 1.75 6.25 2.30964 6.25 3V3.625H4.375C3.68464 3.625 3.125 4.18464 3.125 4.875V18C3.125 18.6904 3.68464 19.25 4.375 19.25H15.625C16.3154 19.25 16.875 18.6904 16.875 18V4.875C16.875 4.18464 16.3154 3.625 15.625 3.625ZM7.5 3H12.5V5.5H7.5V3ZM4.375 18H15.625V4.875H13.75V6.75H6.25V4.875H4.375V18Z" fill="white" fill-opacity="0.6"/>
</svg>
