<svg width="24" height="24" viewBox="0 0 24 24" fill="none" xmlns="http://www.w3.org/2000/svg">
<rect width="24" height="24" rx="12" fill="white"/>
<path d="M11.3335 5.33398H10.0002C6.66683 5.33398 5.3335 6.66732 5.3335 10.0007V14.0007C5.3335 17.334 6.66683 18.6673 10.0002 18.6673H14.0002C17.3335 18.6673 18.6668 17.334 18.6668 14.0007V12.6673" stroke="#727880" stroke-width="1.5" stroke-linecap="round" stroke-linejoin="round"/>
<path d="M14.6933 6.0135L9.43992 11.2668C9.23992 11.4668 9.03992 11.8602 8.99992 12.1468L8.71325 14.1535C8.60659 14.8802 9.11992 15.3868 9.84659 15.2868L11.8533 15.0002C12.1333 14.9602 12.5266 14.7602 12.7333 14.5602L17.9866 9.30684C18.8933 8.40017 19.3199 7.34684 17.9866 6.0135C16.6533 4.68017 15.5999 5.10684 14.6933 6.0135Z" stroke="#727880" stroke-width="1.5" stroke-miterlimit="10" stroke-linecap="round" stroke-linejoin="round"/>
<path d="M13.9399 6.76758C14.3866 8.36091 15.6333 9.60758 17.2333 10.0609" stroke="#727880" stroke-width="1.5" stroke-miterlimit="10" stroke-linecap="round" stroke-linejoin="round"/>
</svg>
