<svg width="24" height="24" viewBox="0 0 24 24" fill="none" xmlns="http://www.w3.org/2000/svg">
<rect width="24" height="24" rx="12" fill="white"/>
<path fill-rule="evenodd" clip-rule="evenodd" d="M15.4998 14.0003C14.7418 14.0042 14.0264 14.3517 13.5548 14.9453L9.89985 12.6603C10.0331 12.2304 10.0331 11.7703 9.89985 11.3403L13.5548 9.05534C14.3208 10.0038 15.6592 10.2615 16.7226 9.66515C17.786 9.06884 18.2641 7.79247 17.8543 6.64426C17.4445 5.49605 16.2663 4.81088 15.0656 5.02261C13.865 5.23434 12.9922 6.28121 12.9998 7.50034C13.0022 7.72393 13.0359 7.94609 13.0998 8.16034L9.44485 10.4453C8.78347 9.61276 7.66782 9.28962 6.66385 9.63985C5.65989 9.99008 4.9873 10.937 4.9873 12.0003C4.9873 13.0636 5.65989 14.0106 6.66385 14.3608C7.66782 14.7111 8.78347 14.3879 9.44485 13.5553L13.0998 15.8403C13.0359 16.0546 13.0022 16.2767 12.9998 16.5003C12.9998 17.8811 14.1191 19.0003 15.4998 19.0003C16.8806 19.0003 17.9998 17.8811 17.9998 16.5003C17.9998 15.1196 16.8806 14.0003 15.4998 14.0003ZM15.4998 6.00034C16.3283 6.00034 16.9998 6.67191 16.9998 7.50034C16.9998 8.32877 16.3283 9.00034 15.4998 9.00034C14.6714 9.00034 13.9998 8.32877 13.9998 7.50034C13.9998 6.67191 14.6714 6.00034 15.4998 6.00034ZM7.49985 13.5003C6.67142 13.5003 5.99985 12.8288 5.99985 12.0003C5.99985 11.1719 6.67142 10.5003 7.49985 10.5003C8.32827 10.5003 8.99985 11.1719 8.99985 12.0003C8.99985 12.8288 8.32827 13.5003 7.49985 13.5003V13.5003ZM15.4998 18.0003C14.6714 18.0003 13.9998 17.3288 13.9998 16.5003C13.9998 15.6719 14.6714 15.0003 15.4998 15.0003C16.3283 15.0003 16.9998 15.6719 16.9998 16.5003C16.9998 17.3288 16.3283 18.0003 15.4998 18.0003V18.0003Z" fill="#898F96"/>
</svg>
