<svg width="24" height="24" viewBox="0 0 24 24" fill="none" xmlns="http://www.w3.org/2000/svg">
<rect width="24" height="24" rx="12" fill="white"/>
<path fill-rule="evenodd" clip-rule="evenodd" d="M16.5 9.5L15.795 10.205L17.085 11.5H12.5V6.915L13.795 8.205L14.5 7.5L12 5L9.5 7.5L10.205 8.205L11.5 6.915V11.5H6.915L8.205 10.205L7.5 9.5L5 12L7.5 14.5L8.205 13.795L6.915 12.5H11.5V17.085L10.205 15.795L9.5 16.5L12 19L14.5 16.5L13.795 15.795L12.5 17.085V12.5H17.085L15.795 13.795L16.5 14.5L19 12L16.5 9.5Z" fill="#898F96"/>
</svg>
