<svg width="24" height="24" viewBox="0 0 24 24" fill="none" xmlns="http://www.w3.org/2000/svg">
<rect width="24" height="24" rx="12" fill="white"/>
<path fill-rule="evenodd" clip-rule="evenodd" d="M12.0001 7.26L13.3801 10.05L13.6101 10.55L14.1101 10.625L17.1901 11.07L15.0001 13.22L14.6251 13.585L14.7151 14.085L15.2401 17.15L12.4851 15.705L12.0001 15.5L11.5351 15.745L8.78014 17.17L9.28014 14.105L9.37014 13.605L9.00014 13.22L6.79014 11.045L9.87014 10.6L10.3701 10.525L10.6001 10.025L12.0001 7.26V7.26ZM12.0001 5L9.72514 9.61L4.64014 10.345L8.32014 13.935L7.45014 19L12.0001 16.61L16.5501 19L15.6801 13.935L19.3601 10.35L14.2751 9.61L12.0001 5Z" fill="#898F96"/>
</svg>
