<svg width="12" height="12" viewBox="0 0 12 12" fill="none" xmlns="http://www.w3.org/2000/svg">
<path d="M6 1C3.345 1 1 3.25 1 6C1 8.75 3.25 11 6 11C9.25 11 10.995 8.25 10.995 6C10.995 3.75 9.25 1 6 1ZM8.44 5.765C8.44 5.96 8.285 6.115 8.09 6.115C7.895 6.115 7.74 5.96 7.74 5.765V5.675L6.38 7.035C6.305 7.11 6.205 7.145 6.1 7.135C5.995 7.125 5.9 7.07 5.845 6.98L5.335 6.22L4.145 7.41C4.075 7.48 3.99 7.51 3.9 7.51C3.81 7.51 3.72 7.475 3.655 7.41C3.52 7.275 3.52 7.055 3.655 6.915L5.145 5.425C5.22 5.35 5.32 5.315 5.425 5.325C5.53 5.335 5.625 5.39 5.68 5.48L6.19 6.24L7.245 5.185H7.155C6.96 5.185 6.805 5.03 6.805 4.835C6.805 4.64 6.96 4.485 7.155 4.485H8.085C8.13 4.485 8.175 4.495 8.22 4.51C8.305 4.545 8.375 4.615 8.41 4.7C8.43 4.745 8.435 4.79 8.435 4.835V5.765H8.44Z" fill="#7DC066"/>
</svg>
