<svg width="16" height="16" viewBox="0 0 16 16" fill="none" xmlns="http://www.w3.org/2000/svg">
<path d="M3.33333 6.66602C2.6 6.66602 2 7.26602 2 7.99935C2 8.73268 2.6 9.33268 3.33333 9.33268C4.06667 9.33268 4.66667 8.73268 4.66667 7.99935C4.66667 7.26602 4.06667 6.66602 3.33333 6.66602Z" stroke="#9DA2A7" stroke-width="1.5"/>
<path d="M12.6666 6.66602C11.9333 6.66602 11.3333 7.26602 11.3333 7.99935C11.3333 8.73268 11.9333 9.33268 12.6666 9.33268C13.3999 9.33268 13.9999 8.73268 13.9999 7.99935C13.9999 7.26602 13.3999 6.66602 12.6666 6.66602Z" stroke="#9DA2A7" stroke-width="1.5"/>
<path d="M8.00008 6.66602C7.26675 6.66602 6.66675 7.26602 6.66675 7.99935C6.66675 8.73268 7.26675 9.33268 8.00008 9.33268C8.73341 9.33268 9.33341 8.73268 9.33341 7.99935C9.33341 7.26602 8.73341 6.66602 8.00008 6.66602Z" stroke="#9DA2A7" stroke-width="1.5"/>
</svg>
