<svg width="16" height="16" viewBox="0 0 16 16" fill="none" xmlns="http://www.w3.org/2000/svg">
<path fill-rule="evenodd" clip-rule="evenodd" d="M7.52914 13.0583C4.47548 13.0583 2 10.5828 2 7.52914C2 4.47548 4.47548 2 7.52914 2C10.5828 2 13.0583 4.47548 13.0583 7.52914C13.0583 8.89797 12.5609 10.1506 11.7369 11.1162L13.7426 13.091L13.091 13.7426L11.0827 11.7653C10.1217 12.5723 8.8822 13.0583 7.52914 13.0583ZM7.52914 2.92152C4.98442 2.92152 2.92152 4.98442 2.92152 7.52914C2.92152 10.0739 4.98442 12.1368 7.52914 12.1368C10.0739 12.1368 12.1368 10.0739 12.1368 7.52914C12.1368 6.30712 11.6513 5.13516 10.7872 4.27106C9.92312 3.40697 8.75115 2.92152 7.52914 2.92152Z" fill="#EEEEEE"/>
</svg>
