<svg width="16" height="16" viewBox="0 0 16 16" fill="none" xmlns="http://www.w3.org/2000/svg">
<path d="M12.44 4.89922C12.44 4.95641 12.3972 4.99922 12.34 4.99922C12.3184 4.99922 12.2931 4.99025 12.271 4.96817C12.249 4.94609 12.24 4.92078 12.24 4.89922V1.79922C12.24 1.74203 12.2828 1.69922 12.34 1.69922C12.3972 1.69922 12.44 1.74203 12.44 1.79922V4.89922Z" stroke="#9DA2A7"/>
<path d="M7.9999 10.5C7.66657 10.5 7.3999 10.7667 7.3999 11.1V14.2C7.3999 14.5333 7.66657 14.8 7.9999 14.8C8.33324 14.8 8.5999 14.5333 8.5999 14.2V11.1C8.5999 10.7733 8.33324 10.5 7.9999 10.5Z" fill="#9DA2A7"/>
<path d="M3.66006 5.49922C3.99339 5.49922 4.26006 5.23255 4.26006 4.89922V1.79922C4.26006 1.46589 3.99339 1.19922 3.66006 1.19922C3.32672 1.19922 3.06006 1.46589 3.06006 1.79922V4.89922C3.06006 5.22589 3.32672 5.49922 3.66006 5.49922Z" fill="#9DA2A7"/>
<path d="M4.90007 6.7793H2.42007C2.08674 6.7793 1.82007 7.04596 1.82007 7.3793C1.82007 7.71263 2.08674 7.9793 2.42007 7.9793H3.06007V14.1993C3.06007 14.5326 3.32673 14.7993 3.66007 14.7993C3.9934 14.7993 4.26007 14.5326 4.26007 14.1993V7.9793H4.90007C5.2334 7.9793 5.50007 7.71263 5.50007 7.3793C5.50007 7.04596 5.22673 6.7793 4.90007 6.7793Z" fill="#9DA2A7"/>
<path d="M13.58 6.7793H11.1C10.7667 6.7793 10.5 7.04596 10.5 7.3793C10.5 7.71263 10.7667 7.9793 11.1 7.9793H11.74V14.1993C11.74 14.5326 12.0067 14.7993 12.34 14.7993C12.6733 14.7993 12.94 14.5326 12.94 14.1993V7.9793H13.58C13.9133 7.9793 14.18 7.71263 14.18 7.3793C14.18 7.04596 13.9133 6.7793 13.58 6.7793Z" fill="#9DA2A7"/>
<path d="M9.23991 8.01922H8.59991V1.79922C8.59991 1.46589 8.33325 1.19922 7.99991 1.19922C7.66658 1.19922 7.39991 1.46589 7.39991 1.79922V8.01922H6.75991C6.42658 8.01922 6.15991 8.28589 6.15991 8.61922C6.15991 8.95255 6.42658 9.21922 6.75991 9.21922H9.23991C9.57325 9.21922 9.83991 8.95255 9.83991 8.61922C9.83991 8.28589 9.57325 8.01922 9.23991 8.01922Z" fill="#9DA2A7"/>
</svg>
