<svg width="16" height="16" viewBox="0 0 16 16" fill="none" xmlns="http://www.w3.org/2000/svg">
<path fill-rule="evenodd" clip-rule="evenodd" d="M8.00002 0.666016C3.93335 0.666016 0.666687 3.93268 0.666687 7.99935C0.666687 12.066 3.93335 15.3327 8.00002 15.3327C12.0667 15.3327 15.3334 12.066 15.3334 7.99935C15.3334 3.93268 12.0667 0.666016 8.00002 0.666016ZM7.40002 3.99935H8.60002V9.33268H7.40002V3.99935ZM8.00002 12.7993C7.53335 12.7993 7.20002 12.3993 7.20002 11.9993C7.20002 11.5993 7.60002 11.1993 8.00002 11.1993C8.40002 11.1993 8.80002 11.5993 8.80002 11.9993C8.80002 12.3993 8.46669 12.7993 8.00002 12.7993Z" fill="#E5646C"/>
<path fill-rule="evenodd" clip-rule="evenodd" d="M8.80001 12C8.80001 12.4667 8.40001 12.8 8.00001 12.8C7.60001 12.8 7.20001 12.4 7.20001 12C7.20001 11.6 7.60001 11.2 8.00001 11.2C8.40001 11.2 8.80001 11.5333 8.80001 12ZM8.60001 4H7.40001V9.33333H8.60001V4Z" fill="white"/>
</svg>
