<svg width="24" height="24" viewBox="0 0 24 24" fill="none" xmlns="http://www.w3.org/2000/svg">
<path d="M10.263 6.3843C10.883 6.2043 11.543 6.0943 12.223 6.0943C16.083 6.0943 19.223 9.2343 19.223 13.0943C19.223 13.7743 19.113 14.4343 18.933 15.0543L20.493 16.6143C20.963 15.5343 21.223 14.3443 21.223 13.0943C21.223 8.1243 17.193 4.0943 12.223 4.0943C10.973 4.0943 9.78301 4.3543 8.69301 4.8143L10.263 6.3843ZM17.56 1.9043L22.167 5.7493L20.887 7.2843L16.277 3.4413L17.56 1.9043ZM3.24301 2.1943L1.83301 3.6043L3.20301 4.9743L2.28301 5.7443L3.56301 7.2843L4.62301 6.4043L5.42301 7.2043C4.05301 8.7843 3.22301 10.8443 3.22301 13.0943C3.22301 18.0643 7.25301 22.0943 12.223 22.0943C14.473 22.0943 16.533 21.2643 18.113 19.8943L20.213 21.9943L21.623 20.5843L3.24301 2.1943ZM12.223 20.0943C8.36301 20.0943 5.22301 16.9543 5.22301 13.0943C5.22301 11.3943 5.83301 9.8343 6.84301 8.6243L16.693 18.4743C15.483 19.4843 13.923 20.0943 12.223 20.0943ZM7.70301 3.8243L8.16301 3.4443L6.88301 1.9043L6.28301 2.4043L7.70301 3.8243Z" fill="white"/>
</svg>
