<svg width="24" height="24" viewBox="0 0 24 24" fill="none" xmlns="http://www.w3.org/2000/svg">
<path d="M10.5396 14.6243L8.40964 12.4943L7.34964 13.5543L10.5296 16.7343L16.5296 10.7343L15.4696 9.6743L10.5396 14.6243ZM17.3366 1.9043L21.9436 5.7493L20.6636 7.2843L16.0536 3.4413L17.3366 1.9043ZM6.66264 1.9043L7.94464 3.4403L3.33664 7.2843L2.05664 5.7483L6.66264 1.9043ZM11.9996 4.0943C7.02964 4.0943 2.99964 8.1243 2.99964 13.0943C2.99964 18.0643 7.02964 22.0943 11.9996 22.0943C16.9696 22.0943 20.9996 18.0643 20.9996 13.0943C20.9996 8.1243 16.9696 4.0943 11.9996 4.0943ZM11.9996 20.0943C8.13964 20.0943 4.99964 16.9543 4.99964 13.0943C4.99964 9.2343 8.13964 6.0943 11.9996 6.0943C15.8596 6.0943 18.9996 9.2343 18.9996 13.0943C18.9996 16.9543 15.8596 20.0943 11.9996 20.0943Z" fill="white"/>
</svg>
