<svg width="24" height="24" viewBox="0 0 24 24" fill="none" xmlns="http://www.w3.org/2000/svg">
<path d="M17.6 9.79223L19.44 6.61223C19.6 6.30223 19.48 5.92223 19.18 5.76223C18.89 5.61223 18.53 5.70223 18.35 5.98223L16.47 9.22223C13.61 8.01223 10.39 8.01223 7.53 9.22223L5.65 5.98223C5.46 5.69223 5.07 5.60223 4.78 5.78223C4.5 5.96223 4.41 6.32223 4.56 6.61223L6.4 9.79223C3.3 11.5622 1.28 14.7522 1 18.3122H23C22.72 14.7522 20.7 11.5622 17.6 9.79223ZM7 15.5622C6.31 15.5622 5.75 15.0022 5.75 14.3122C5.75 13.6222 6.31 13.0622 7 13.0622C7.69 13.0622 8.25 13.6222 8.25 14.3122C8.25 15.0022 7.69 15.5622 7 15.5622ZM17 15.5622C16.31 15.5622 15.75 15.0022 15.75 14.3122C15.75 13.6222 16.31 13.0622 17 13.0622C17.69 13.0622 18.25 13.6222 18.25 14.3122C18.25 15.0022 17.69 15.5622 17 15.5622Z" fill="white"/>
</svg>
