<svg width="24" height="24" viewBox="0 0 24 24" fill="none" xmlns="http://www.w3.org/2000/svg">
<path d="M7.48473 3.29453H20.6547C21.7647 3.29453 22.6547 4.18453 22.6547 5.29453V17.2945C22.6547 17.6345 22.5747 17.9545 22.4247 18.2345L20.6547 16.4645V11.2945H15.4847L11.4847 7.29453H20.6547V5.29453H9.48473L7.48473 3.29453ZM21.1447 22.6045L17.8247 19.2945H4.65473C3.54473 19.2945 2.65473 18.4045 2.65473 17.2945L2.66473 5.29453C2.66473 4.95453 2.74473 4.63453 2.89473 4.36453L1.34473 2.80453L2.75473 1.39453L22.5547 21.1945L21.1447 22.6045ZM4.65473 6.12453V7.29453H5.82473L4.65473 6.12453ZM15.8247 17.2945L9.82473 11.2945H4.65473V17.2945H15.8247Z" fill="white"/>
</svg>
