<svg width="24" height="24" viewBox="0 0 24 24" fill="none" xmlns="http://www.w3.org/2000/svg">
<path d="M13.0254 5.08078C16.0854 5.52078 18.5054 7.94078 18.9454 11.0008H21.9754C21.5054 6.28078 17.7454 2.52078 13.0254 2.05078V5.08078ZM18.9454 13.0008C18.5054 16.0608 16.0854 18.4808 13.0254 18.9208V21.9508C17.7454 21.4808 21.5054 17.7208 21.9754 13.0008H18.9454ZM11.0254 18.9208C7.63539 18.4308 5.02539 15.5208 5.02539 12.0008C5.02539 8.48078 7.63539 5.57078 11.0254 5.08078V2.05078C5.97539 2.55078 2.02539 6.81078 2.02539 12.0008C2.02539 17.1908 5.97539 21.4508 11.0254 21.9508V18.9208Z" fill="white"/>
</svg>
