<svg width="24" height="24" viewBox="0 0 24 24" fill="none" xmlns="http://www.w3.org/2000/svg">
<path d="M14.8454 11.0008H21.9754C21.5054 6.28078 17.7454 2.52078 13.0254 2.05078V9.18078C13.8754 9.49078 14.5354 10.1508 14.8454 11.0008ZM15.0254 4.58078C17.0254 5.40078 18.6254 7.00078 19.4454 9.00078H16.0154C15.7354 8.63078 15.3954 8.29078 15.0254 8.01078V4.58078ZM2.02539 12.0008C2.02539 17.1908 5.97539 21.4508 11.0254 21.9508V14.8208C9.86539 14.4008 9.02539 13.3008 9.02539 12.0008C9.02539 10.7008 9.86539 9.60078 11.0254 9.18078V2.05078C5.97539 2.55078 2.02539 6.81078 2.02539 12.0008ZM9.02539 4.58078V8.02078C7.79539 8.94078 7.02539 10.4108 7.02539 12.0008C7.02539 13.5908 7.79539 15.0608 9.02539 15.9908V19.4308C6.06539 18.2408 4.02539 15.3508 4.02539 12.0008C4.02539 8.65078 6.06539 5.76078 9.02539 4.58078ZM13.0254 14.8208V21.9508C17.7454 21.4808 21.5054 17.7208 21.9754 13.0008H14.8454C14.5354 13.8508 13.8754 14.5108 13.0254 14.8208ZM15.0254 15.9908C15.3954 15.7108 15.7354 15.3808 16.0154 15.0008H19.4454C18.6254 17.0008 17.0254 18.6008 15.0254 19.4208V15.9908Z" fill="white"/>
</svg>
