<svg width="24" height="24" viewBox="0 0 24 24" fill="none" xmlns="http://www.w3.org/2000/svg">
<path d="M14.7696 8.30961L15.6896 9.22961L14.5796 10.3396L15.9896 11.7496L18.5096 9.22961L14.7596 5.47961L12.2396 7.99961L13.6496 9.40961L14.7696 8.30961ZM21.4196 6.32961C21.8096 5.93961 21.8096 5.30961 21.4196 4.91961L19.0796 2.57961C18.8796 2.37961 18.6296 2.28961 18.3696 2.28961C18.1096 2.28961 17.8596 2.38961 17.6696 2.57961L15.8396 4.40961L19.5896 8.15961L21.4196 6.32961ZM3.51961 2.09961L2.09961 3.50961L9.41961 10.8296L3.70961 16.5396V20.2896H7.45961L13.1696 14.5796L20.4896 21.8996L21.8996 20.4896L3.51961 2.09961ZM6.62961 18.2896H5.70961V17.3696L10.8396 12.2396L11.7596 13.1596L6.62961 18.2896Z" fill="white"/>
</svg>
