<svg width="24" height="24" viewBox="0 0 24 24" fill="none" xmlns="http://www.w3.org/2000/svg">
<path d="M1.44531 4.16922L3.06531 5.78922C3.06531 5.83922 3.05531 5.88922 3.05531 5.94922V9.74922C5.75531 9.74922 6.05531 11.9092 6.05531 12.4492C6.05531 12.9892 5.76531 15.1492 3.05531 15.1492V18.9492C3.05531 20.0492 3.95531 20.9492 5.05531 20.9492H8.85531C8.85531 18.2392 11.0153 17.9492 11.5553 17.9492C12.0953 17.9492 14.2553 18.2392 14.2553 20.9492H18.0553C18.1153 20.9492 18.1653 20.9492 18.2153 20.9392L19.8253 22.5492L21.2353 21.1392L2.86531 2.75922L1.44531 4.16922ZM11.5553 15.9492C10.0553 15.9492 7.98531 16.7792 7.18531 18.9492H5.05531V16.8192C7.22531 16.0192 8.05531 13.9492 8.05531 12.4492C8.05531 11.7592 7.87531 10.9492 7.47531 10.1992L13.8053 16.5292C13.0553 16.1292 12.2453 15.9492 11.5553 15.9492ZM8.88531 5.94922L6.88531 3.94922H9.05531C9.05531 2.56922 10.1753 1.44922 11.5553 1.44922C12.9353 1.44922 14.0553 2.56922 14.0553 3.94922H18.0553C19.1553 3.94922 20.0553 4.84922 20.0553 5.94922V9.94922C21.4353 9.94922 22.5553 11.0692 22.5553 12.4492C22.5553 13.8292 21.4353 14.9492 20.0553 14.9492V17.1192L18.0553 15.1192V12.9492H20.0553C20.3353 12.9492 20.5553 12.7292 20.5553 12.4492C20.5553 12.1692 20.3353 11.9492 20.0553 11.9492H18.0553V5.94922H12.0553V3.94922C12.0553 3.66922 11.8353 3.44922 11.5553 3.44922C11.2753 3.44922 11.0553 3.66922 11.0553 3.94922V5.94922H8.88531Z" fill="white"/>
</svg>
