<svg width="24" height="24" viewBox="0 0 24 24" fill="none" xmlns="http://www.w3.org/2000/svg">
<path d="M10.2549 5.25586C11.6349 5.25586 12.8849 5.81586 13.7949 6.71586L11.2549 9.25586H17.2549V3.25586L15.2049 5.30586C13.9349 4.03586 12.1849 3.25586 10.2549 3.25586C6.72488 3.25586 3.82488 5.86586 3.33488 9.25586H5.35488C5.81488 6.97586 7.83488 5.25586 10.2549 5.25586ZM15.8949 14.3959C16.5549 13.4959 17.0149 12.4259 17.1749 11.2559H15.1549C14.6949 13.5359 12.6749 15.2559 10.2549 15.2559C8.87488 15.2559 7.62488 14.6959 6.71488 13.7959L9.25488 11.2559H3.25488V17.2559L5.30488 15.2059C6.57488 16.4759 8.32488 17.2559 10.2549 17.2559C11.8049 17.2559 13.2349 16.7459 14.3949 15.8959L19.2549 20.7459L20.7449 19.2559L15.8949 14.3959Z" fill="white"/>
</svg>
