<svg width="24" height="24" viewBox="0 0 24 24" fill="none" xmlns="http://www.w3.org/2000/svg">
<path d="M17.8151 4.47C17.7351 4.47 17.6551 4.45 17.5851 4.41C15.6651 3.42 14.0051 3 12.0151 3C10.0351 3 8.15511 3.47 6.44511 4.41C6.20511 4.54 5.90511 4.45 5.76511 4.21C5.63511 3.97 5.72511 3.66 5.96511 3.53C7.82511 2.52 9.86511 2 12.0151 2C14.1451 2 16.0051 2.47 18.0451 3.52C18.2951 3.65 18.3851 3.95 18.2551 4.19C18.1651 4.37 17.9951 4.47 17.8151 4.47ZM3.50511 9.72C3.40511 9.72 3.30511 9.69 3.21511 9.63C2.98511 9.47 2.93511 9.16 3.09511 8.93C4.08511 7.53 5.34511 6.43 6.84511 5.66C9.98511 4.04 14.0051 4.03 17.1551 5.65C18.6551 6.42 19.9151 7.51 20.9051 8.9C21.0651 9.12 21.0151 9.44 20.7851 9.6C20.5551 9.76 20.2451 9.71 20.0851 9.48C19.1851 8.22 18.0451 7.23 16.6951 6.54C13.8251 5.07 10.1551 5.07 7.29511 6.55C5.93511 7.25 4.79511 8.25 3.89511 9.51C3.81511 9.65 3.66511 9.72 3.50511 9.72ZM9.75511 21.79C9.62511 21.79 9.49511 21.74 9.40511 21.64C8.53511 20.77 8.06511 20.21 7.39511 19C6.70511 17.77 6.34511 16.27 6.34511 14.66C6.34511 11.69 8.88511 9.27 12.0051 9.27C15.1251 9.27 17.6651 11.69 17.6651 14.66C17.6651 14.94 17.4451 15.16 17.1651 15.16C16.8851 15.16 16.6651 14.94 16.6651 14.66C16.6651 12.24 14.5751 10.27 12.0051 10.27C9.43511 10.27 7.34511 12.24 7.34511 14.66C7.34511 16.1 7.66511 17.43 8.27511 18.51C8.91511 19.66 9.35511 20.15 10.1251 20.93C10.3151 21.13 10.3151 21.44 10.1251 21.64C10.0151 21.74 9.88511 21.79 9.75511 21.79ZM16.9251 19.94C15.7351 19.94 14.6851 19.64 13.8251 19.05C12.3351 18.04 11.4451 16.4 11.4451 14.66C11.4451 14.38 11.6651 14.16 11.9451 14.16C12.2251 14.16 12.4451 14.38 12.4451 14.66C12.4451 16.07 13.1651 17.4 14.3851 18.22C15.0951 18.7 15.9251 18.93 16.9251 18.93C17.1651 18.93 17.5651 18.9 17.9651 18.83C18.2351 18.78 18.4951 18.96 18.5451 19.24C18.5951 19.51 18.4151 19.77 18.1351 19.82C17.5651 19.93 17.0651 19.94 16.9251 19.94ZM14.9151 22C14.8751 22 14.8251 21.99 14.7851 21.98C13.1951 21.54 12.1551 20.95 11.0651 19.88C9.66511 18.49 8.89511 16.64 8.89511 14.66C8.89511 13.04 10.2751 11.72 11.9751 11.72C13.6751 11.72 15.0551 13.04 15.0551 14.66C15.0551 15.73 15.9851 16.6 17.1351 16.6C18.2851 16.6 19.2151 15.73 19.2151 14.66C19.2151 10.89 15.9651 7.83 11.9651 7.83C9.12511 7.83 6.52511 9.41 5.35511 11.86C4.96511 12.67 4.76511 13.62 4.76511 14.66C4.76511 15.44 4.83511 16.67 5.43511 18.27C5.53511 18.53 5.40511 18.82 5.14511 18.91C4.88511 19.01 4.59511 18.87 4.50511 18.62C4.01511 17.31 3.77511 16.01 3.77511 14.66C3.77511 13.46 4.00511 12.37 4.45511 11.42C5.78511 8.63 8.73511 6.82 11.9651 6.82C16.5151 6.82 20.2151 10.33 20.2151 14.65C20.2151 16.27 18.8351 17.59 17.1351 17.59C15.4351 17.59 14.0551 16.27 14.0551 14.65C14.0551 13.58 13.1251 12.71 11.9751 12.71C10.8251 12.71 9.89511 13.58 9.89511 14.65C9.89511 16.36 10.5551 17.96 11.7651 19.16C12.7151 20.1 13.6251 20.62 15.0351 21.01C15.3051 21.08 15.4551 21.36 15.3851 21.62C15.3351 21.85 15.1251 22 14.9151 22Z" fill="white"/>
</svg>
