<svg width="24" height="24" viewBox="0 0 24 24" fill="none" xmlns="http://www.w3.org/2000/svg">
<path d="M11.07 11.4539C11.36 11.0639 11.88 10.8939 12.34 11.0839C12.51 11.1539 12.66 11.2639 12.77 11.4139C12.99 11.6939 13.02 12.0039 12.99 12.2639C12.94 12.5939 12.74 12.8939 12.45 13.0539C12.45 13.0539 7.58 16.0039 7.38 15.7439C7.18 15.4839 11.07 11.4539 11.07 11.4539ZM22 9.75391C22 12.2539 21 12.7539 20.5 12.7539C20.27 12.7539 20.06 12.6539 19.88 12.4939C19.4 15.8139 17.52 17.8039 14.55 18.4839C14.66 18.9239 15.03 19.2539 15.5 19.2539H16.08C16.3 19.2539 16.49 19.4039 16.56 19.6139C16.73 20.1339 17.22 20.6339 17.58 20.9339C17.83 21.1439 17.82 21.5239 17.55 21.7139C17.21 21.9539 16.65 22.2039 15.76 22.2439C15.58 22.2539 15.41 22.1739 15.31 22.0239C15.18 21.8239 15 21.4639 15 21.0139C15 20.7139 15.04 20.4439 15.09 20.2139C14.31 20.0539 13.7 19.4339 13.54 18.6539C13.05 18.7139 12.54 18.7539 12 18.7539C11.12 18.7539 10.3 18.6639 9.55 18.5039C9.53 18.5839 9.5 18.6639 9.5 18.7539C9.5 19.3039 9.95 19.7539 10.5 19.7539H11.08C11.3 19.7539 11.49 19.9039 11.56 20.1139C11.73 20.6339 12.22 21.1339 12.58 21.4339C12.83 21.6439 12.82 22.0239 12.55 22.2139C12.21 22.4539 11.65 22.7039 10.76 22.7439C10.58 22.7539 10.41 22.6739 10.31 22.5239C10.18 22.3239 10 21.9639 10 21.5139C10 21.2139 10.04 20.9439 10.09 20.7139C9.19 20.5239 8.5 19.7139 8.5 18.7539C8.5 18.5739 8.53 18.3939 8.58 18.2239C6.12 17.3639 4.55 15.4439 4.12 12.4839C3.94 12.6539 3.74 12.7539 3.5 12.7539C3 12.7539 2 12.2539 2 9.75391C2 7.48391 3.7 5.25391 5 5.25391C5.43 5.25391 5.49 5.74391 5.5 6.10391C6.78 4.32391 8.76 3.08391 11.05 2.81391C11.25 1.85391 12.13 1.25391 13 1.25391V2.25391C13 2.25391 13.33 1.75391 14 1.75391C14.67 1.75391 15 2.25391 15 2.25391C14.51 2.25391 14.15 2.60391 14.04 3.02391C15.86 3.50391 17.43 4.61391 18.5 6.10391C18.51 5.74391 18.57 5.25391 19 5.25391C20.3 5.25391 22 7.48391 22 9.75391ZM5 10.7539C5 11.5639 5.1 12.2839 5.25 12.9639C5.43 12.2739 5.71 11.6339 6.08 11.0439C5.87 10.5739 5.74 10.0539 5.74 9.50391C5.75 7.43391 7.43 5.75391 9.5 5.75391C10.46 5.75391 11.34 6.12391 12 6.72391C12.66 6.12391 13.54 5.75391 14.5 5.75391C16.57 5.75391 18.25 7.43391 18.25 9.50391C18.25 10.0539 18.13 10.5739 17.91 11.0439C18.28 11.6339 18.57 12.2839 18.75 12.9839C18.9 12.3039 19 11.5739 19 10.7539C19 6.89391 15.86 3.75391 12 3.75391C8.14 3.75391 5 6.89391 5 10.7539ZM17.98 15.0439C17.98 14.9439 18 14.8539 18 14.7539C18 13.7439 17.74 12.8039 17.3 11.9739C16.61 12.7539 15.62 13.2539 14.5 13.2539C14.23 13.2539 13.96 13.2239 13.71 13.1639C13.85 12.9339 13.94 12.6739 13.98 12.3939C13.99 12.3239 13.99 12.2639 14 12.2039C14.17 12.2339 14.33 12.2539 14.5 12.2539C16.02 12.2539 17.25 11.0239 17.25 9.50391C17.25 7.98391 16.02 6.75391 14.5 6.75391C13.83 6.75391 13.18 7.00391 12.67 7.47391L12 8.07391L11.33 7.47391C10.82 7.00391 10.17 6.75391 9.5 6.75391C7.98 6.75391 6.75 7.98391 6.75 9.50391C6.75 10.8439 7.71 11.9639 8.98 12.2039L8.22 13.0339C7.62 12.8139 7.1 12.4439 6.69 11.9839C6.26 12.8139 6 13.7539 6 14.7539C6 14.8339 6.01 14.9039 6.01 14.9939C7.13 16.8139 9.14 17.7539 12 17.7539C14.88 17.7539 16.88 16.8439 17.98 15.0439ZM16 9.50391C16 10.4739 15.33 11.2539 14.5 11.2539C13.67 11.2539 13 10.4739 13 9.50391C13 8.53391 13.67 7.75391 14.5 7.75391C15.33 7.75391 16 8.53391 16 9.50391ZM15.25 8.63391C15.25 8.42391 15.08 8.25391 14.87 8.25391C14.66 8.25391 14.5 8.42391 14.5 8.63391C14.5 8.84391 14.67 9.01391 14.88 9.01391C15.09 9.01391 15.25 8.83391 15.25 8.63391ZM11 9.50391C11 10.4739 10.33 11.2539 9.5 11.2539C8.67 11.2539 8 10.4739 8 9.50391C8 8.53391 8.67 7.75391 9.5 7.75391C10.33 7.75391 11 8.53391 11 9.50391ZM10.25 8.63391C10.25 8.42391 10.08 8.25391 9.87 8.25391C9.66 8.25391 9.5 8.42391 9.5 8.63391C9.5 8.84391 9.67 9.01391 9.88 9.01391C10.09 9.01391 10.25 8.83391 10.25 8.63391Z" fill="white"/>
</svg>
