<svg width="24" height="24" viewBox="0 0 24 24" fill="none" xmlns="http://www.w3.org/2000/svg">
<path d="M3.11531 2.50531L1.69531 3.91531L3.96531 6.18531C2.91531 7.76531 2.30531 9.65531 2.30531 11.6953C2.30531 17.2153 6.78531 21.6953 12.3053 21.6953C14.3453 21.6953 16.2353 21.0853 17.8153 20.0353L20.0853 22.3053L21.4953 20.8953L3.11531 2.50531ZM12.3053 19.6953C7.89531 19.6953 4.30531 16.1053 4.30531 11.6953C4.30531 10.2153 4.71531 8.83531 5.42531 7.63531L16.3653 18.5753C15.1653 19.2853 13.7853 19.6953 12.3053 19.6953ZM8.24531 4.81531L6.79531 3.35531C8.37531 2.30531 10.2653 1.69531 12.3053 1.69531C17.8253 1.69531 22.3053 6.17531 22.3053 11.6953C22.3053 13.7353 21.6953 15.6253 20.6453 17.2053L19.1853 15.7453C19.8953 14.5553 20.3053 13.1753 20.3053 11.6953C20.3053 7.28531 16.7153 3.69531 12.3053 3.69531C10.8253 3.69531 9.44531 4.10531 8.24531 4.81531Z" fill="white"/>
</svg>
