<svg width="24" height="24" viewBox="0 0 24 24" fill="none" xmlns="http://www.w3.org/2000/svg">
<path d="M18.5455 14.2955H20.2155C20.7655 14.2955 21.2155 13.8455 21.2155 13.2955V11.7955C21.2155 11.2455 20.7655 10.7955 20.2155 10.7955H17.7155V9.79547H19.7155V10.2955H21.2155V9.29547C21.2155 8.74547 20.7655 8.29547 20.2155 8.29547H17.2155C16.6655 8.29547 16.2155 8.74547 16.2155 9.29547V10.7955C16.2155 11.3455 16.6655 11.7955 17.2155 11.7955H19.7155V12.7955H17.7155V12.2955H16.5455L18.5455 14.2955ZM8.71547 10.1255V14.2955H7.21547V11.7955H5.21547V14.2955H3.71547V8.29547H5.21547V10.2955H7.21547V8.62547L2.10547 3.51547L3.51547 2.10547L21.8955 20.4855L20.4855 21.8955L12.8855 14.2955H10.7155V12.1255L8.71547 10.1255Z" fill="white"/>
</svg>
