<svg width="24" height="24" viewBox="0 0 24 24" fill="none" xmlns="http://www.w3.org/2000/svg">
<path d="M16 7.19055L19.55 12.1905L17.92 14.4805L19.35 15.9105L22 12.1905L17.63 6.03055C17.27 5.52055 16.67 5.19055 16 5.19055L8.63 5.20055L10.63 7.19055H16ZM2 4.22055L3.58 5.80055C3.22 6.15055 3 6.65055 3 7.19055V17.1905C3 18.2905 3.9 19.1805 5 19.1805L16 19.1905C16.28 19.1905 16.55 19.1205 16.79 19.0105L18.97 21.1905L20.38 19.7805L3.41 2.81055L2 4.22055ZM14.97 17.1905H5V7.22055L14.97 17.1905Z" fill="white"/>
</svg>
