<svg width="24" height="24" viewBox="0 0 24 24" fill="none" xmlns="http://www.w3.org/2000/svg">
<path d="M4.0698 13.0008H2.0498C2.2498 15.0108 3.0498 16.8408 4.2598 18.3308L5.6898 16.9008C4.8298 15.7908 4.2498 14.4608 4.0698 13.0008Z" fill="white"/>
<path d="M5.6898 7.10078L4.2598 5.67078C3.0498 7.16078 2.2498 8.99078 2.0498 11.0008H4.0698C4.2498 9.54078 4.8298 8.21078 5.6898 7.10078Z" fill="white"/>
<path d="M10.9998 4.07078V2.05078C8.9898 2.25078 7.1598 3.05078 5.6698 4.26078L7.0998 5.69078C8.2098 4.83078 9.5398 4.25078 10.9998 4.07078Z" fill="white"/>
<path d="M18.3298 4.26078C16.8398 3.05078 15.0098 2.25078 12.9998 2.05078V4.07078C14.4598 4.25078 15.7898 4.83078 16.8998 5.69078L18.3298 4.26078Z" fill="white"/>
<path d="M18.3098 16.9008L19.7398 18.3308C20.9498 16.8508 21.7498 15.0108 21.9498 13.0008H19.9298C19.7498 14.4608 19.1698 15.7908 18.3098 16.9008Z" fill="white"/>
<path d="M19.9298 11.0008H21.9498C21.7498 8.99078 20.9498 7.16078 19.7398 5.67078L18.3098 7.10078C19.1698 8.21078 19.7498 9.54078 19.9298 11.0008Z" fill="white"/>
<path d="M12.9998 19.9308V21.9508C15.0098 21.7508 16.8398 20.9508 18.3298 19.7408L16.8998 18.3108C15.7898 19.1708 14.4598 19.7508 12.9998 19.9308Z" fill="white"/>
<path d="M5.6698 19.7408C7.1498 20.9508 8.9898 21.7508 10.9998 21.9508V19.9308C9.5398 19.7508 8.2098 19.1708 7.0998 18.3108L5.6698 19.7408Z" fill="white"/>
<path d="M11.9998 17.0008C14.7612 17.0008 16.9998 14.7622 16.9998 12.0008C16.9998 9.23936 14.7612 7.00078 11.9998 7.00078C9.23838 7.00078 6.9998 9.23936 6.9998 12.0008C6.9998 14.7622 9.23838 17.0008 11.9998 17.0008Z" fill="white"/>
</svg>
