<svg width="24" height="24" viewBox="0 0 24 24" fill="none" xmlns="http://www.w3.org/2000/svg">
<path d="M10.7096 3.69531C10.7096 2.59531 11.6096 1.69531 12.7096 1.69531C13.8096 1.69531 14.7096 2.59531 14.7096 3.69531C14.7096 4.79531 13.8096 5.69531 12.7096 5.69531C11.6096 5.69531 10.7096 4.79531 10.7096 3.69531ZM19.7096 12.6953V10.6953C18.1696 10.7153 16.6196 9.94531 15.6396 8.86531L14.3496 7.43531C14.1096 7.19531 13.9096 7.07531 13.7196 6.97531C13.3596 6.78531 12.9996 6.67531 12.5196 6.71531C12.0296 6.75531 11.6096 6.98531 11.2896 7.32531L14.7096 10.7453C15.9996 11.8153 17.9596 12.6853 19.7096 12.6953ZM10.7096 19.6953C9.04961 19.6953 7.70961 18.3553 7.70961 16.6953C7.70961 15.3853 8.54961 14.2853 9.70961 13.8653V11.7953C7.42961 12.2553 5.70961 14.2753 5.70961 16.6953C5.70961 19.4553 7.94961 21.6953 10.7096 21.6953C13.1296 21.6953 15.1496 19.9753 15.6096 17.6953H13.5396C13.1296 18.8553 12.0196 19.6953 10.7096 19.6953ZM3.51961 2.50531L2.09961 3.91531L10.7096 12.5253V14.6953C10.7096 15.7953 11.6096 16.6953 12.7096 16.6953H14.8796L20.4896 22.3053L21.8996 20.8953L3.51961 2.50531Z" fill="white"/>
</svg>
