<svg width="24" height="24" viewBox="0 0 24 24" fill="none" xmlns="http://www.w3.org/2000/svg">
<path d="M17.5055 5.08961L14.7155 2.28961H21.7155V9.28961L18.9255 6.48961L14.8355 10.5796L13.4255 9.16961L17.5055 5.08961ZM19.7155 11.2896V15.4596L21.7155 17.4596V11.2896H19.7155ZM20.4955 21.8996L18.8855 20.2896H5.71547C4.60547 20.2896 3.71547 19.3896 3.71547 18.2896V5.11961L2.10547 3.50961L3.51547 2.09961L21.8955 20.4796L20.4955 21.8996ZM16.8855 18.2896L12.0055 13.4096L10.4155 14.9996L9.00547 13.5896L10.5955 11.9996L5.71547 7.11961V18.2896H16.8855ZM8.54547 4.28961H12.7155V2.28961H6.54547L8.54547 4.28961Z" fill="white"/>
</svg>
