<svg width="24" height="24" viewBox="0 0 24 24" fill="none" xmlns="http://www.w3.org/2000/svg">
<path d="M18.3699 23.9959H11.8199C10.7399 23.9959 9.67988 23.5459 8.92988 22.7659L1.62988 15.1559L3.69988 13.3259C4.31988 12.7759 5.22988 12.6659 5.95988 13.0559L8.36988 14.3359V4.78586C8.36988 3.40586 9.48988 2.28586 10.8699 2.28586C11.0399 2.28586 11.2099 2.30586 11.3799 2.33586C11.4699 1.03586 12.5499 0.00585938 13.8699 0.00585938C14.7299 0.00585938 15.4799 0.435859 15.9299 1.09586C16.2199 0.975859 16.5399 0.915859 16.8699 0.915859C18.2499 0.915859 19.3699 2.03586 19.3699 3.41586V3.69586C19.5299 3.66586 19.6999 3.64586 19.8699 3.64586C21.2499 3.64586 22.3699 4.76586 22.3699 6.14586V19.9959C22.3699 22.2059 20.5799 23.9959 18.3699 23.9959ZM4.50988 15.2759L10.3699 21.3759C10.7499 21.7659 11.2699 21.9959 11.8099 21.9959H18.3699C19.4699 21.9959 20.3699 21.0959 20.3699 19.9959V6.14586C20.3699 5.86586 20.1499 5.64586 19.8699 5.64586C19.5899 5.64586 19.3699 5.86586 19.3699 6.14586V11.9959H17.3699V3.41586C17.3699 3.13586 17.1499 2.91586 16.8699 2.91586C16.5899 2.91586 16.3699 3.13586 16.3699 3.41586V11.9959H14.3699V2.50586C14.3699 2.22586 14.1499 2.00586 13.8699 2.00586C13.5899 2.00586 13.3699 2.22586 13.3699 2.50586V11.9959H11.3699V4.78586C11.3699 4.50586 11.1499 4.28586 10.8699 4.28586C10.5899 4.28586 10.3699 4.51586 10.3699 4.78586V17.6559L5.01988 14.8259L4.50988 15.2759Z" fill="white"/>
</svg>
