<svg width="24" height="24" viewBox="0 0 24 24" fill="none" xmlns="http://www.w3.org/2000/svg">
<path d="M9.00098 13.5C11.211 13.5 13.001 11.71 13.001 9.5C13.001 7.29 11.211 5.5 9.00098 5.5C6.79098 5.5 5.00098 7.29 5.00098 9.5C5.00098 11.71 6.79098 13.5 9.00098 13.5ZM9.00098 7.5C10.101 7.5 11.001 8.4 11.001 9.5C11.001 10.6 10.101 11.5 9.00098 11.5C7.90098 11.5 7.00098 10.6 7.00098 9.5C7.00098 8.4 7.90098 7.5 9.00098 7.5ZM9.00098 15.5C6.33098 15.5 1.00098 16.84 1.00098 19.5V21.5H17.001V19.5C17.001 16.84 11.671 15.5 9.00098 15.5ZM3.00098 19.5C3.22098 18.78 6.31098 17.5 9.00098 17.5C11.701 17.5 14.801 18.79 15.001 19.5H3.00098ZM15.081 7.55C15.921 8.73 15.921 10.26 15.081 11.44L16.761 13.13C18.781 11.11 18.781 8.06 16.761 5.86L15.081 7.55ZM20.071 2.5L18.441 4.13C21.211 7.15 21.211 11.69 18.441 14.87L20.071 16.5C23.971 12.61 23.981 6.55 20.071 2.5Z" fill="white"/>
</svg>
