<svg width="24" height="24" viewBox="0 0 24 24" fill="none" xmlns="http://www.w3.org/2000/svg">
<g clip-path="url(#clip0_281_45077)">
<path d="M1.97543 0.564453L0.56543 1.97445L4.95543 6.36445L7.16543 11.0245L5.81543 13.4745C5.65543 13.7545 5.56543 14.0845 5.56543 14.4345C5.56543 15.5345 6.46543 16.4345 7.56543 16.4345H15.0254L16.4054 17.8145C15.9054 18.1745 15.5754 18.7645 15.5754 19.4345C15.5754 20.5345 16.4654 21.4345 17.5654 21.4345C18.2354 21.4345 18.8254 21.1045 19.1854 20.5945L22.0254 23.4345L23.4354 22.0245L1.97543 0.564453ZM7.56543 14.4345L8.66543 12.4345H11.0254L13.0254 14.4345H7.56543ZM20.5654 3.43445H7.68543L9.68543 5.43445H18.8754L16.1154 10.4345H14.6754L16.6154 12.3745C17.1554 12.2345 17.6054 11.8845 17.8654 11.4045L21.4454 4.91445C21.8154 4.25445 21.3254 3.43445 20.5654 3.43445ZM7.56543 17.4345C6.46543 17.4345 5.57543 18.3345 5.57543 19.4345C5.57543 20.5345 6.46543 21.4345 7.56543 21.4345C8.66543 21.4345 9.56543 20.5345 9.56543 19.4345C9.56543 18.3345 8.66543 17.4345 7.56543 17.4345Z" fill="white"/>
</g>
<defs>
<clipPath id="clip0_281_45077">
<rect width="24" height="24" fill="white"/>
</clipPath>
</defs>
</svg>
