<svg width="24" height="24" viewBox="0 0 24 24" fill="none" xmlns="http://www.w3.org/2000/svg">
<g clip-path="url(#clip0_281_45090)">
<path d="M21.5021 14.5005H23.5021C23.5021 19.4705 19.4721 23.5005 14.5021 23.5005V21.5005C18.3721 21.5005 21.5021 18.3705 21.5021 14.5005ZM14.5021 17.5005V19.5005C17.2621 19.5005 19.5021 17.2605 19.5021 14.5005H17.5021C17.5021 16.1605 16.1621 17.5005 14.5021 17.5005ZM18.7621 1.09055L22.3021 4.63055C23.0821 5.41055 23.0821 6.68055 22.3021 7.46055L19.1221 10.6405C18.3421 11.4205 17.0721 11.4205 16.2921 10.6405L15.0521 9.40055L14.3421 10.1005L15.5821 11.3405C16.3621 12.1205 16.3621 13.3905 15.5821 14.1705L14.1721 15.5805C13.3921 16.3605 12.1221 16.3605 11.3421 15.5805L10.1021 14.3405L9.39207 15.0505L10.6321 16.2905C11.4121 17.0705 11.4121 18.3405 10.6321 19.1205L7.45207 22.3005C6.67207 23.0805 5.40207 23.0805 4.62207 22.3005L1.08207 18.7605C0.30207 17.9805 0.30207 16.7105 1.08207 15.9305L4.26207 12.7505C5.04207 11.9705 6.31207 11.9705 7.09207 12.7505L8.33207 13.9905L9.04207 13.2805L7.80207 12.0505C7.02207 11.2705 7.02207 10.0005 7.80207 9.22055L9.22207 7.80055C10.0021 7.02055 11.2721 7.02055 12.0521 7.80055L13.2921 9.04055L14.0021 8.33055L12.7521 7.10055C11.9721 6.32055 11.9721 5.05055 12.7521 4.27055L15.9321 1.09055C16.7221 0.300547 17.9821 0.300547 18.7621 1.09055ZM3.56207 16.2905L2.50207 17.3505L6.04207 20.8905L7.10207 19.8305L3.56207 16.2905ZM5.68207 14.1705L4.62207 15.2305L8.16207 18.7705L9.22207 17.7105L5.68207 14.1705ZM10.6321 9.22055L9.22207 10.6305L12.7621 14.1705L14.1721 12.7605L10.6321 9.22055ZM15.2321 4.62055L14.1721 5.68055L17.7121 9.22055L18.7721 8.16055L15.2321 4.62055ZM17.3521 2.50055L16.2921 3.56055L19.8321 7.10055L20.8921 6.04055L17.3521 2.50055Z" fill="white"/>
</g>
<defs>
<clipPath id="clip0_281_45090">
<rect width="24" height="24" fill="white"/>
</clipPath>
</defs>
</svg>
