<svg width="24" height="24" viewBox="0 0 24 24" fill="none" xmlns="http://www.w3.org/2000/svg">
<path d="M16.845 14.2559H16.055L15.775 13.9859C16.755 12.8459 17.345 11.3659 17.345 9.75586C17.345 6.16586 14.435 3.25586 10.845 3.25586C7.42504 3.25586 4.62504 5.89586 4.37504 9.25586H6.39504C6.64504 7.00586 8.52504 5.25586 10.845 5.25586C13.335 5.25586 15.345 7.26586 15.345 9.75586C15.345 12.2459 13.335 14.2559 10.845 14.2559C10.675 14.2559 10.515 14.2259 10.345 14.2059V16.2259C10.515 16.2459 10.675 16.2559 10.845 16.2559C12.455 16.2559 13.935 15.6659 15.075 14.6859L15.345 14.9659V15.7559L20.345 20.7459L21.835 19.2559L16.845 14.2559Z" fill="white"/>
<path d="M7.81504 11.0759L5.34504 13.5459L2.87504 11.0759L2.16504 11.7859L4.63504 14.2559L2.16504 16.7259L2.87504 17.4359L5.34504 14.9659L7.81504 17.4359L8.52504 16.7259L6.05504 14.2559L8.52504 11.7859L7.81504 11.0759Z" fill="white"/>
</svg>
