<svg width="24" height="24" viewBox="0 0 24 24" fill="none" xmlns="http://www.w3.org/2000/svg">
<path d="M8.44531 10.2555C8.35531 10.5855 8.30531 10.9355 8.30531 11.2955C8.30531 12.3955 8.75531 13.3955 9.47531 14.1255L8.05531 15.5455C6.97531 14.4555 6.30531 12.9555 6.30531 11.2955C6.30531 10.3655 6.51531 9.49547 6.88531 8.70547L5.41531 7.23547C4.70531 8.42547 4.30531 9.81547 4.30531 11.2955C4.30531 13.5055 5.20531 15.5055 6.65531 16.9455L5.23531 18.3655C3.42531 16.5555 2.30531 14.0555 2.30531 11.2955C2.30531 9.25547 2.91531 7.36547 3.96531 5.78547L1.69531 3.51547L3.10531 2.10547L21.4853 20.4855L20.0753 21.8955L8.44531 10.2555ZM17.7253 13.8855C18.0953 13.0955 18.3053 12.2255 18.3053 11.2955C18.3053 9.63547 17.6353 8.13547 16.5453 7.05547L15.1253 8.47547C15.8553 9.19547 16.3053 10.1955 16.3053 11.2955C16.3053 11.6555 16.2553 12.0055 16.1653 12.3355L17.7253 13.8855ZM20.3053 11.2955C20.3053 12.7755 19.9053 14.1655 19.1953 15.3555L20.6453 16.8055C21.6953 15.2255 22.3053 13.3355 22.3053 11.2955C22.3053 8.53547 21.1853 6.03547 19.3753 4.22547L17.9553 5.64547C19.4053 7.08547 20.3053 9.08547 20.3053 11.2955Z" fill="white"/>
</svg>
