<svg width="16" height="16" viewBox="0 0 16 16" fill="none" xmlns="http://www.w3.org/2000/svg">
<path opacity="0.93" d="M7.99992 1.33398C4.31992 1.33398 1.33325 4.32065 1.33325 8.00065C1.33325 11.6807 4.31992 14.6673 7.99992 14.6673C11.6799 14.6673 14.6666 11.6807 14.6666 8.00065C14.6666 4.32065 11.6799 1.33398 7.99992 1.33398ZM10.9133 9.56732L9.43325 11.0473C9.07325 11.4073 8.60659 11.5807 8.13992 11.5807C7.67325 11.5807 7.19992 11.4007 6.84659 11.0473C6.49992 10.7007 6.30659 10.2407 6.30659 9.75398C6.30659 9.26732 6.49992 8.80065 6.84659 8.46065L7.78659 7.52065C7.97992 7.32732 8.29992 7.32732 8.49325 7.52065C8.68659 7.71398 8.68659 8.03398 8.49325 8.22732L7.55325 9.16732C7.39325 9.32732 7.30659 9.53398 7.30659 9.75398C7.30659 9.97398 7.39325 10.1873 7.55325 10.3407C7.87992 10.6673 8.40659 10.6673 8.73325 10.3407L10.2133 8.86065C11.0599 8.01398 11.0599 6.64065 10.2133 5.79398C9.36659 4.94732 7.99325 4.94732 7.14659 5.79398L5.53325 7.40732C5.19325 7.74732 5.00659 8.19398 5.00659 8.66732C5.00659 9.14065 5.19325 9.59398 5.53325 9.92732C5.72659 10.1207 5.72659 10.4407 5.53325 10.634C5.33992 10.8273 5.01992 10.8273 4.82659 10.634C4.29325 10.1207 3.99992 9.42065 3.99992 8.67398C3.99992 7.92732 4.28659 7.22732 4.81325 6.70065L6.42659 5.08732C7.65992 3.85398 9.67325 3.85398 10.9066 5.08732C12.1466 6.32065 12.1466 8.33398 10.9133 9.56732Z" fill="#898989"/>
</svg>
