<svg width="24" height="24" viewBox="0 0 24 24" fill="none" xmlns="http://www.w3.org/2000/svg">
<path d="M12 0C12.5787 0 13.1336 0.252856 13.5428 0.702944C13.9519 1.15303 14.1818 1.76348 14.1818 2.4C14.1818 3.288 13.7455 4.068 13.0909 4.476V6H14.1818C16.2071 6 18.1494 6.885 19.5815 8.4603C21.0136 10.0356 21.8182 12.1722 21.8182 14.4H22.9091C23.1984 14.4 23.4759 14.5264 23.6805 14.7515C23.8851 14.9765 24 15.2817 24 15.6V19.2C24 19.5183 23.8851 19.8235 23.6805 20.0485C23.4759 20.2736 23.1984 20.4 22.9091 20.4H21.8182V21.6C21.8182 22.2365 21.5883 22.847 21.1791 23.2971C20.77 23.7471 20.215 24 19.6364 24H4.36364C3.78498 24 3.23003 23.7471 2.82086 23.2971C2.41169 22.847 2.18182 22.2365 2.18182 21.6V20.4H1.09091C0.801582 20.4 0.524105 20.2736 0.31952 20.0485C0.114935 19.8235 0 19.5183 0 19.2V15.6C0 15.2817 0.114935 14.9765 0.31952 14.7515C0.524105 14.5264 0.801582 14.4 1.09091 14.4H2.18182C2.18182 12.1722 2.98636 10.0356 4.41846 8.4603C5.85055 6.885 7.79289 6 9.81818 6H10.9091V4.476C10.2545 4.068 9.81818 3.288 9.81818 2.4C9.81818 1.76348 10.0481 1.15303 10.4572 0.702944C10.8664 0.252856 11.4213 0 12 0ZM7.09091 13.2C6.36759 13.2 5.6739 13.5161 5.16244 14.0787C4.65097 14.6413 4.36364 15.4044 4.36364 16.2C4.36364 16.9956 4.65097 17.7587 5.16244 18.3213C5.6739 18.8839 6.36759 19.2 7.09091 19.2C7.81423 19.2 8.50792 18.8839 9.01938 18.3213C9.53085 17.7587 9.81818 16.9956 9.81818 16.2C9.81818 15.4044 9.53085 14.6413 9.01938 14.0787C8.50792 13.5161 7.81423 13.2 7.09091 13.2ZM16.9091 13.2C16.1858 13.2 15.4921 13.5161 14.9806 14.0787C14.4692 14.6413 14.1818 15.4044 14.1818 16.2C14.1818 16.9956 14.4692 17.7587 14.9806 18.3213C15.4921 18.8839 16.1858 19.2 16.9091 19.2C17.6324 19.2 18.3261 18.8839 18.8376 18.3213C19.349 17.7587 19.6364 16.9956 19.6364 16.2C19.6364 15.4044 19.349 14.6413 18.8376 14.0787C18.3261 13.5161 17.6324 13.2 16.9091 13.2Z" fill="#898989"/>
</svg>
