<svg width="20" height="21" viewBox="0 0 20 21" fill="none" xmlns="http://www.w3.org/2000/svg">
<path d="M1.22754 19.5996H18.7275" stroke="#8589A0" stroke-width="1.5" stroke-linecap="round" stroke-linejoin="round"/>
<path fill-rule="evenodd" clip-rule="evenodd" d="M2.47754 10.2988C2.47754 9.4704 3.14911 8.79883 3.97754 8.79883H15.9775C16.806 8.79883 17.4775 9.4704 17.4775 10.2988V15.6988C17.4775 16.5273 16.806 17.1988 15.9775 17.1988H3.97754C3.14911 17.1988 2.47754 16.5273 2.47754 15.6988V10.2988Z" stroke="#8589A0" stroke-width="1.5" stroke-linecap="round" stroke-linejoin="round"/>
<path d="M9.97754 7V8.8" stroke="#8589A0" stroke-width="1.5" stroke-linecap="round" stroke-linejoin="round"/>
<path fill-rule="evenodd" clip-rule="evenodd" d="M11.2275 3.39961C11.2275 4.06235 10.6679 4.59961 9.97754 4.59961C9.28718 4.59961 8.72754 4.06235 8.72754 3.39961C8.72754 2.73721 9.97754 1.59961 9.97754 1.59961C9.97754 1.59961 11.2275 2.73721 11.2275 3.39961Z" stroke="#8589A0" stroke-width="1.5" stroke-linecap="round" stroke-linejoin="round"/>
<path d="M14.9775 7V8.8" stroke="#8589A0" stroke-width="1.5" stroke-linecap="round" stroke-linejoin="round"/>
<path fill-rule="evenodd" clip-rule="evenodd" d="M16.2275 3.39961C16.2275 4.06235 15.6679 4.59961 14.9775 4.59961C14.2872 4.59961 13.7275 4.06235 13.7275 3.39961C13.7275 2.73721 14.9775 1.59961 14.9775 1.59961C14.9775 1.59961 16.2275 2.73721 16.2275 3.39961Z" stroke="#8589A0" stroke-width="1.5" stroke-linecap="round" stroke-linejoin="round"/>
<path d="M4.97754 7V8.8" stroke="#8589A0" stroke-width="1.5" stroke-linecap="round" stroke-linejoin="round"/>
<path fill-rule="evenodd" clip-rule="evenodd" d="M6.22754 3.39961C6.22754 4.06235 5.66789 4.59961 4.97754 4.59961C4.28718 4.59961 3.72754 4.06235 3.72754 3.39961C3.72754 2.73721 4.97754 1.59961 4.97754 1.59961C4.97754 1.59961 6.22754 2.73721 6.22754 3.39961Z" stroke="#8589A0" stroke-width="1.5" stroke-linecap="round" stroke-linejoin="round"/>
<path d="M2.47754 11.5C2.47644 12.3538 3.01457 13.1231 3.83827 13.4452C4.66198 13.7673 5.60686 13.578 6.22754 12.9664C6.70095 13.4344 7.375 13.6631 8.0496 13.5846C8.7242 13.5061 9.32181 13.1294 9.66504 12.5664C10.0541 13.2065 10.768 13.6001 11.54 13.6001C12.3121 13.6001 13.026 13.2065 13.415 12.5664C13.9143 13.3818 14.9209 13.7748 15.8713 13.5254C16.8217 13.2759 17.48 12.4459 17.4775 11.5" stroke="#8589A0" stroke-width="1.5" stroke-linecap="round" stroke-linejoin="round"/>
</svg>
