<svg width="20" height="21" viewBox="0 0 20 21" fill="none" xmlns="http://www.w3.org/2000/svg">
<path fill-rule="evenodd" clip-rule="evenodd" d="M17.25 1.5H2.25C1.55993 1.50069 1.00069 2.05993 1 2.75V17.75C1.00069 18.4401 1.55993 18.9993 2.25 19H17.25C17.9399 18.999 18.499 18.4399 18.5 17.75V2.75C18.4993 2.05993 17.9401 1.50069 17.25 1.5ZM17.25 7.125H8.5V2.75H17.25V7.125ZM7.25 7.125V2.75H2.25V7.125H7.25ZM2.25 17.75V8.375H17.25L17.2513 17.75H2.25ZM15.75 13.375H14.5V16.5H15.75V13.375ZM12 10.25H13.25V16.5H12V10.25ZM3.25 13.375C3.25207 15.1 4.64997 16.4979 6.375 16.5C8.10089 16.5 9.5 15.1009 9.5 13.375C9.5 11.6491 8.10089 10.25 6.375 10.25V11.5C7.41053 11.5 8.25 12.3395 8.25 13.375C8.25 14.4105 7.41053 15.25 6.375 15.25C5.33947 15.25 4.5 14.4105 4.5 13.375H3.25Z" fill="#898989" fill-opacity="0.6"/>
</svg>
