<svg width="31" height="31" viewBox="0 0 31 31" fill="none" xmlns="http://www.w3.org/2000/svg">
<path d="M15.4998 0.916748C7.43525 0.916748 0.916504 7.4355 0.916504 15.5001C0.916504 23.5647 7.43525 30.0834 15.4998 30.0834C23.5644 30.0834 30.0832 23.5647 30.0832 15.5001C30.0832 7.4355 23.5644 0.916748 15.4998 0.916748ZM20.0207 8.3105C20.2248 8.3105 20.429 8.38341 20.604 8.54383L22.4561 10.3959C22.7915 10.7167 22.7915 11.2272 22.4561 11.5334L20.9978 12.9917L18.0082 10.0022L19.4665 8.54383C19.6123 8.38341 19.8165 8.3105 20.0207 8.3105ZM17.1478 10.848L20.1519 13.8522L11.3144 22.6897H8.31025V19.6855L17.1478 10.848Z" fill="#775DA6"/>
</svg>
