<svg width="17" height="17" viewBox="0 0 17 17" fill="none" xmlns="http://www.w3.org/2000/svg">
<path d="M8.5 0C3.7995 0 0 3.7995 0 8.5C0 13.2005 3.7995 17 8.5 17C13.2005 17 17 13.2005 17 8.5C17 3.7995 13.2005 0 8.5 0ZM11.135 4.3095C11.254 4.3095 11.373 4.352 11.475 4.4455L12.5545 5.525C12.75 5.712 12.75 6.0095 12.5545 6.188L11.7045 7.038L9.962 5.2955L10.812 4.4455C10.897 4.352 11.016 4.3095 11.135 4.3095ZM9.4605 5.7885L11.2115 7.5395L6.0605 12.6905H4.3095V10.9395L9.4605 5.7885Z" fill="#775DA6"/>
</svg>
