<svg width="32" height="32" viewBox="0 0 32 32" fill="none" xmlns="http://www.w3.org/2000/svg">
<g id="24 / reactions / sad">
<path id="icon" fill-rule="evenodd" clip-rule="evenodd" d="M16.0002 30.6668C7.89999 30.6668 1.3335 24.1003 1.3335 16.0002C1.3335 7.89999 7.89999 1.3335 16.0002 1.3335C24.1003 1.3335 30.6668 7.89999 30.6668 16.0002C30.6668 24.1003 24.1003 30.6668 16.0002 30.6668ZM16.0002 28.0002C22.6276 28.0002 28.0002 22.6276 28.0002 16.0002C28.0002 9.37275 22.6276 4.00016 16.0002 4.00016C9.37275 4.00016 4.00016 9.37275 4.00016 16.0002C4.00016 22.6276 9.37275 28.0002 16.0002 28.0002ZM16.0002 21.7306C17.7595 21.7306 19.3726 22.5871 20.3664 24.0002L22.5476 22.4661C21.0596 20.3504 18.6369 19.0639 16.0002 19.0639C13.3634 19.0639 10.9408 20.3504 9.45276 22.4661L11.634 24.0002C12.6278 22.5871 14.2408 21.7306 16.0002 21.7306ZM18.6668 16.0002V13.3335H21.3335V16.0002H18.6668ZM10.6668 13.3335V16.0002H13.3335V13.3335H10.6668Z" fill="#775DA6"/>
</g>
</svg>
