<svg width="35" height="35" viewBox="0 0 35 35" fill="none" xmlns="http://www.w3.org/2000/svg">
<path d="M32.0832 23.6103C32.0832 28.9186 28.9186 32.0832 23.6103 32.0832H21.8748C21.0728 32.0832 20.4165 31.4269 20.4165 30.6248V22.2103C20.4165 21.8165 20.7373 21.4811 21.1311 21.4811L23.6978 21.4374C23.9019 21.4228 24.0769 21.2769 24.1207 21.0728L24.6311 18.2873C24.6749 18.0248 24.4707 17.7769 24.1936 17.7769L21.0873 17.8207C20.679 17.8207 20.3582 17.4999 20.3436 17.1061L20.2853 13.5332C20.2853 13.2998 20.4748 13.0957 20.7227 13.0957L24.2227 13.0373C24.4706 13.0373 24.6603 12.8478 24.6603 12.5999L24.6019 9.09982C24.6019 8.85191 24.4123 8.66234 24.1644 8.66234L20.2269 8.72069C17.8061 8.76444 15.8811 10.7478 15.9249 13.1686L15.9978 17.179C16.0123 17.5873 15.6915 17.9082 15.2832 17.9228L13.5332 17.9519C13.2853 17.9519 13.0957 18.1415 13.0957 18.3894L13.1394 21.1603C13.1394 21.4082 13.329 21.5977 13.5769 21.5977L15.3269 21.5686C15.7353 21.5686 16.0561 21.8894 16.0707 22.2832L16.2019 30.5957C16.2165 31.4124 15.5602 32.0832 14.7436 32.0832H11.3894C6.08108 32.0832 2.9165 28.9186 2.9165 23.5957V11.3894C2.9165 6.08108 6.08108 2.9165 11.3894 2.9165H23.6103C28.9186 2.9165 32.0832 6.08108 32.0832 11.3894V23.6103Z" fill="#1877F2"/>
</svg>
