<svg width="12" height="14" viewBox="0 0 12 14" fill="none" xmlns="http://www.w3.org/2000/svg">
<path fill-rule="evenodd" clip-rule="evenodd" d="M10 10.3333H2V8.99992H10V10.3333ZM10 7.66659H2V6.33325H10V7.66659ZM10 4.99992H2V3.66659H10V4.99992ZM0 13.6666L1 12.6666L2 13.6666L3 12.6666L4 13.6666L5 12.6666L6 13.6666L7 12.6666L8 13.6666L9 12.6666L10 13.6666L11 12.6666L12 13.6666V0.333252L11 1.33325L10 0.333252L9 1.33325L8 0.333252L7 1.33325L6 0.333252L5 1.33325L4 0.333252L3 1.33325L2 0.333252L1 1.33325L0 0.333252V13.6666Z" fill="#898989"/>
</svg>
