<svg width="22" height="23" viewBox="0 0 22 23" fill="none" xmlns="http://www.w3.org/2000/svg">
<mask id="mask0_271_43850" style="mask-type:alpha" maskUnits="userSpaceOnUse" x="0" y="0" width="22" height="23">
<circle cx="11" cy="11.5" r="11" fill="white"/>
</mask>
<g mask="url(#mask0_271_43850)">
<path fill-rule="evenodd" clip-rule="evenodd" d="M-9 -0.5H23V23.5H-9V-0.5Z" fill="#F7FCFF"/>
<path fill-rule="evenodd" clip-rule="evenodd" d="M-9 14.166V16.166H23V14.166H-9Z" fill="#E31D1C"/>
<path fill-rule="evenodd" clip-rule="evenodd" d="M-9 17.834V19.834H23V17.834H-9Z" fill="#E31D1C"/>
<path fill-rule="evenodd" clip-rule="evenodd" d="M-9 6.83398V8.83398H23V6.83398H-9Z" fill="#E31D1C"/>
<path fill-rule="evenodd" clip-rule="evenodd" d="M-9 21.5V23.5H23V21.5H-9Z" fill="#E31D1C"/>
<path fill-rule="evenodd" clip-rule="evenodd" d="M-9 10.5V12.5H23V10.5H-9Z" fill="#E31D1C"/>
<path fill-rule="evenodd" clip-rule="evenodd" d="M-9 -0.5V1.5H23V-0.5H-9Z" fill="#E31D1C"/>
<path fill-rule="evenodd" clip-rule="evenodd" d="M-9 3.16602V5.16602H23V3.16602H-9Z" fill="#E31D1C"/>
<rect x="-9" y="-0.5" width="20" height="13" fill="#2E42A5"/>
<path fill-rule="evenodd" clip-rule="evenodd" d="M-7.27779 2.43822L-8.00367 2.9471L-7.7586 2.04149L-8.40332 1.46758H-7.56123L-7.2788 0.728516L-6.94763 1.46758H-6.22978L-6.79381 2.04149L-6.57545 2.9471L-7.27779 2.43822ZM-3.27779 2.43822L-4.00367 2.9471L-3.7586 2.04149L-4.40332 1.46758H-3.56123L-3.2788 0.728516L-2.94763 1.46758H-2.22978L-2.79381 2.04149L-2.57545 2.9471L-3.27779 2.43822ZM-0.00366879 2.9471L0.722211 2.43822L1.42455 2.9471L1.20619 2.04149L1.77022 1.46758H1.05237L0.721196 0.728516L0.438766 1.46758H-0.40332L0.241396 2.04149L-0.00366879 2.9471ZM4.72221 2.43822L3.99633 2.9471L4.2414 2.04149L3.59668 1.46758H4.43877L4.7212 0.728516L5.05237 1.46758H5.77022L5.20619 2.04149L5.42455 2.9471L4.72221 2.43822ZM-8.00367 6.9471L-7.27779 6.43822L-6.57545 6.9471L-6.79381 6.04149L-6.22978 5.46758H-6.94763L-7.2788 4.72852L-7.56123 5.46758H-8.40332L-7.7586 6.04149L-8.00367 6.9471ZM-3.27779 6.43822L-4.00367 6.9471L-3.7586 6.04149L-4.40332 5.46758H-3.56123L-3.2788 4.72852L-2.94763 5.46758H-2.22978L-2.79381 6.04149L-2.57545 6.9471L-3.27779 6.43822ZM-0.00366879 6.9471L0.722211 6.43822L1.42455 6.9471L1.20619 6.04149L1.77022 5.46758H1.05237L0.721196 4.72852L0.438766 5.46758H-0.40332L0.241396 6.04149L-0.00366879 6.9471ZM4.72221 6.43822L3.99633 6.9471L4.2414 6.04149L3.59668 5.46758H4.43877L4.7212 4.72852L5.05237 5.46758H5.77022L5.20619 6.04149L5.42455 6.9471L4.72221 6.43822ZM-8.00367 10.9471L-7.27779 10.4382L-6.57545 10.9471L-6.79381 10.0415L-6.22978 9.46758H-6.94763L-7.2788 8.72852L-7.56123 9.46758H-8.40332L-7.7586 10.0415L-8.00367 10.9471ZM-3.27779 10.4382L-4.00367 10.9471L-3.7586 10.0415L-4.40332 9.46758H-3.56123L-3.2788 8.72852L-2.94763 9.46758H-2.22978L-2.79381 10.0415L-2.57545 10.9471L-3.27779 10.4382ZM-0.00366879 10.9471L0.722211 10.4382L1.42455 10.9471L1.20619 10.0415L1.77022 9.46758H1.05237L0.721196 8.72852L0.438766 9.46758H-0.40332L0.241396 10.0415L-0.00366879 10.9471ZM4.72221 10.4382L3.99633 10.9471L4.2414 10.0415L3.59668 9.46758H4.43877L4.7212 8.72852L5.05237 9.46758H5.77022L5.20619 10.0415L5.42455 10.9471L4.72221 10.4382ZM7.99633 2.9471L8.72221 2.43822L9.42455 2.9471L9.20619 2.04149L9.77022 1.46758H9.05237L8.7212 0.728516L8.43877 1.46758H7.59668L8.2414 2.04149L7.99633 2.9471ZM8.72221 6.43822L7.99633 6.9471L8.2414 6.04149L7.59668 5.46758H8.43877L8.7212 4.72852L9.05237 5.46758H9.77022L9.20619 6.04149L9.42455 6.9471L8.72221 6.43822ZM7.99633 10.9471L8.72221 10.4382L9.42455 10.9471L9.20619 10.0415L9.77022 9.46758H9.05237L8.7212 8.72852L8.43877 9.46758H7.59668L8.2414 10.0415L7.99633 10.9471ZM-5.27779 4.43822L-6.00367 4.9471L-5.7586 4.04149L-6.40332 3.46758H-5.56123L-5.2788 2.72852L-4.94763 3.46758H-4.22978L-4.79381 4.04149L-4.57545 4.9471L-5.27779 4.43822ZM-2.00367 4.9471L-1.27779 4.43822L-0.575451 4.9471L-0.793813 4.04149L-0.229776 3.46758H-0.947633L-1.2788 2.72852L-1.56123 3.46758H-2.40332L-1.7586 4.04149L-2.00367 4.9471ZM2.72221 4.43822L1.99633 4.9471L2.2414 4.04149L1.59668 3.46758H2.43877L2.7212 2.72852L3.05237 3.46758H3.77022L3.20619 4.04149L3.42455 4.9471L2.72221 4.43822ZM-6.00367 8.94711L-5.27779 8.43822L-4.57545 8.94711L-4.79381 8.04149L-4.22978 7.46758H-4.94763L-5.2788 6.72852L-5.56123 7.46758H-6.40332L-5.7586 8.04149L-6.00367 8.94711ZM-1.27779 8.43822L-2.00367 8.94711L-1.7586 8.04149L-2.40332 7.46758H-1.56123L-1.2788 6.72852L-0.947633 7.46758H-0.229776L-0.793813 8.04149L-0.575451 8.94711L-1.27779 8.43822ZM1.99633 8.94711L2.72221 8.43822L3.42455 8.94711L3.20619 8.04149L3.77022 7.46758H3.05237L2.7212 6.72852L2.43877 7.46758H1.59668L2.2414 8.04149L1.99633 8.94711ZM6.72221 4.43822L5.99633 4.9471L6.2414 4.04149L5.59668 3.46758H6.43877L6.7212 2.72852L7.05237 3.46758H7.77022L7.20619 4.04149L7.42455 4.9471L6.72221 4.43822ZM5.99633 8.94711L6.72221 8.43822L7.42455 8.94711L7.20619 8.04149L7.77022 7.46758H7.05237L6.7212 6.72852L6.43877 7.46758H5.59668L6.2414 8.04149L5.99633 8.94711Z" fill="#F7FCFF"/>
</g>
</svg>
