<svg width="40" height="40" viewBox="0 0 40 40" fill="none" xmlns="http://www.w3.org/2000/svg">
<path fill-rule="evenodd" clip-rule="evenodd" d="M20 0C31.046 0 40 8.954 40 20C40 31.046 31.046 40 20 40C8.954 40 0 31.046 0 20C0 8.954 8.954 0 20 0Z" fill="#775DA6"/>
<path fill-rule="evenodd" clip-rule="evenodd" d="M21 21V26.5C21 26.776 20.776 27 20.5 27H19.5C19.224 27 19 26.776 19 26.5V21H13.5C13.224 21 13 20.776 13 20.5V19.5C13 19.224 13.224 19 13.5 19H19V13.5C19 13.224 19.224 13 19.5 13H20.5C20.776 13 21 13.224 21 13.5V19H26.5C26.776 19 27 19.224 27 19.5V20.5C27 20.776 26.776 21 26.5 21H21Z" fill="white"/>
</svg>
