<svg width="11" height="10" viewBox="0 0 11 10" fill="none" xmlns="http://www.w3.org/2000/svg">
<path d="M5.2002 0C2.5452 0 0.200195 2.25 0.200195 5C0.200195 7.75 2.4502 10 5.2002 10C8.4502 10 10.1952 7.25 10.1952 5C10.1952 2.75 8.4502 0 5.2002 0ZM7.64019 4.765C7.64019 4.96 7.4852 5.115 7.2902 5.115C7.0952 5.115 6.9402 4.96 6.9402 4.765V4.675L5.5802 6.035C5.5052 6.11 5.4052 6.145 5.3002 6.135C5.1952 6.125 5.10019 6.07 5.0452 5.98L4.5352 5.22L3.3452 6.41C3.2752 6.48 3.1902 6.51 3.1002 6.51C3.0102 6.51 2.9202 6.475 2.8552 6.41C2.7202 6.275 2.7202 6.055 2.8552 5.915L4.3452 4.425C4.4202 4.35 4.5202 4.315 4.6252 4.325C4.7302 4.335 4.8252 4.39 4.8802 4.48L5.3902 5.24L6.4452 4.185H6.3552C6.1602 4.185 6.0052 4.03 6.0052 3.835C6.0052 3.64 6.1602 3.485 6.3552 3.485H7.2852C7.3302 3.485 7.3752 3.495 7.4202 3.51C7.5052 3.545 7.5752 3.615 7.6102 3.7C7.6302 3.745 7.6352 3.79 7.6352 3.835V4.765H7.64019Z" fill="white"/>
</svg>
