<svg width="20" height="21" viewBox="0 0 20 21" fill="none" xmlns="http://www.w3.org/2000/svg">
<path fill-rule="evenodd" clip-rule="evenodd" d="M10.3812 1.88072C10.1541 1.70122 9.8334 1.70122 9.60625 1.88072L0.625 8.88697L1.4 9.87447L2.5 9.01197V16.7495C2.5 17.4398 3.05964 17.9995 3.75 17.9995H16.25C16.9404 17.9995 17.5 17.4398 17.5 16.7495V9.01822L18.6 9.87447L19.375 8.89322L10.3812 1.88072ZM11.25 16.7495H8.75V11.7495H11.25V16.7495ZM12.5 16.7495V11.7495C12.5 11.0591 11.9404 10.4995 11.25 10.4995H8.75C8.05964 10.4995 7.5 11.0591 7.5 11.7495V16.7495H3.75V8.03697L10 3.16822L16.25 8.04322V16.7495H12.5Z" fill="#898989" fill-opacity="0.6"/>
</svg>
