<svg width="20" height="20" viewBox="0 0 20 20" fill="none" xmlns="http://www.w3.org/2000/svg">
<path fill-rule="evenodd" clip-rule="evenodd" d="M2.5 15H10.625V16.25H2.5C1.80993 16.2493 1.25069 15.6901 1.25 15V6.25C1.25069 5.55993 1.80993 5.00069 2.5 5H6.25V2.5C6.25069 1.80993 6.80993 1.25069 7.5 1.25H12.5C13.1901 1.25069 13.7493 1.80993 13.75 2.5V5H17.5C18.1901 5.00069 18.7493 5.55993 18.75 6.25V9.375H17.5V6.25H2.5V15ZM12.5 2.5H7.5V5H12.5V2.5ZM11.875 15H14.375V17.5H11.875V15ZM11.875 10.625H14.375V13.125H11.875V10.625ZM18.75 13.125V10.625H16.25V13.125H18.75ZM18.75 15H16.25V17.5H18.75V15Z" fill="#898989" fill-opacity="0.6"/>
</svg>
