<svg width="35" height="35" viewBox="0 0 35 35" fill="none" xmlns="http://www.w3.org/2000/svg">
<mask id="mask0_2151_52091" style="mask-type:alpha" maskUnits="userSpaceOnUse" x="2" y="2" width="31" height="31">
<path d="M17.4961 2.9165C13.5368 2.9165 13.0404 2.93343 11.4852 3.00395C10.276 3.02815 9.0797 3.25737 7.94719 3.68185C6.97846 4.05621 6.09867 4.62889 5.36423 5.36317C4.62979 6.09745 4.05691 6.97712 3.68233 7.94576C3.25706 9.0787 3.02782 10.2758 3.00443 11.4857C2.93486 13.0408 2.91699 13.5382 2.91699 17.5031C2.91699 21.4681 2.93486 21.9588 3.00537 23.514C3.02971 24.7234 3.2586 25.92 3.68233 27.053C4.05654 28.0212 4.62873 28.9006 5.36231 29.635C6.09589 30.3694 6.97469 30.9426 7.94249 31.3178C9.0755 31.7416 10.2721 31.9705 11.4815 31.9948C13.0366 32.0653 13.5331 32.0832 17.4914 32.0832C21.4497 32.0832 21.9462 32.0653 23.5013 31.9948C24.711 31.9703 25.9079 31.7415 27.0412 31.3178C28.0094 30.9423 28.8885 30.3689 29.6225 29.6344C30.3566 28.8999 30.9293 28.0204 31.3042 27.052C31.7263 25.9182 31.9555 24.7217 31.9821 23.5121C32.0517 21.957 32.0696 21.4615 32.0696 17.5012C32.0696 13.541 32.0517 13.0436 31.9821 11.4885C31.9556 10.2793 31.7264 9.08299 31.3042 7.94952C30.9299 6.9808 30.3572 6.101 29.6229 5.36656C28.8886 4.63212 28.0089 4.05924 27.0403 3.68467C25.9067 3.26051 24.7095 3.0313 23.4994 3.00677C21.9443 2.93625 21.4488 2.91932 17.4886 2.91932L17.4961 2.9165ZM16.1882 5.54913H17.4961C21.3886 5.54913 21.8503 5.56229 23.3866 5.63281C24.311 5.64389 25.2266 5.81372 26.0935 6.13489C26.7221 6.3777 27.2929 6.74931 27.7692 7.22585C28.2456 7.7024 28.617 8.27333 28.8596 8.90197C29.1808 9.76885 29.3506 10.6845 29.3617 11.6089C29.4313 13.1461 29.4473 13.6078 29.4473 17.4994C29.4473 21.391 29.4313 21.8526 29.3617 23.3899C29.3506 24.3143 29.1808 25.2299 28.8596 26.0968C28.6168 26.7252 28.2453 27.2959 27.769 27.7722C27.2926 28.2486 26.7219 28.6201 26.0935 28.8629C25.2267 29.1845 24.311 29.3544 23.3866 29.365C21.8503 29.4346 21.3886 29.4496 17.4961 29.4496C13.6036 29.4496 13.1419 29.4346 11.6056 29.365C10.6811 29.3536 9.76551 29.1835 8.89869 28.862C8.27006 28.6194 7.69913 28.248 7.22258 27.7716C6.74604 27.2952 6.37442 26.7244 6.13162 26.0958C5.80952 25.2292 5.63966 24.3134 5.62954 23.3889C5.55902 21.8517 5.54492 21.39 5.54492 17.4956C5.54492 13.6012 5.55902 13.1424 5.62954 11.6051C5.64024 10.6807 5.81008 9.76499 6.13162 8.8982C6.37395 8.26916 6.74537 7.69785 7.22196 7.2211C7.69855 6.74435 8.26973 6.37273 8.89869 6.13019C9.76523 5.80764 10.681 5.63746 11.6056 5.62717C12.9501 5.56605 13.4719 5.54819 16.1882 5.54537V5.54913ZM25.2774 7.9702C24.9313 7.9702 24.5929 8.07285 24.3052 8.26516C24.0174 8.45746 23.7931 8.73079 23.6607 9.05057C23.5283 9.37036 23.4937 9.72222 23.5613 10.0617C23.6289 10.4011 23.7957 10.7129 24.0405 10.9576C24.2853 11.2022 24.5971 11.3688 24.9366 11.4362C25.2761 11.5036 25.6279 11.4688 25.9476 11.3363C26.2674 11.2037 26.5406 10.9793 26.7327 10.6914C26.9249 10.4035 27.0273 10.0651 27.0271 9.71902C27.0271 9.48928 26.9819 9.2618 26.8939 9.04956C26.806 8.83732 26.6771 8.64449 26.5146 8.48209C26.3521 8.31968 26.1592 8.19089 25.9469 8.10306C25.7346 8.01522 25.5071 7.97008 25.2774 7.9702ZM17.4961 10.0095C16.0148 10.0084 14.5665 10.4467 13.3344 11.2688C12.1022 12.091 11.1416 13.2601 10.574 14.6283C10.0064 15.9965 9.85741 17.5023 10.1458 18.9552C10.4341 20.4081 11.1469 21.7429 12.194 22.7906C13.2411 23.8383 14.5754 24.552 16.0281 24.8412C17.4809 25.1305 18.9868 24.9824 20.3553 24.4157C21.7239 23.849 22.8936 22.8891 23.7165 21.6575C24.5394 20.4258 24.9786 18.9778 24.9784 17.4965C24.9781 15.5118 24.1899 13.6083 22.7869 12.2044C21.3839 10.8005 19.4809 10.011 17.4961 10.0095ZM17.4961 12.6422C18.4577 12.6424 19.3977 12.9278 20.1971 13.4623C20.9965 13.9968 21.6194 14.7565 21.987 15.6451C22.3546 16.5337 22.4503 17.5114 22.2621 18.4545C22.0739 19.3975 21.6102 20.2635 20.9297 20.943C20.2492 21.6225 19.3824 22.0848 18.4391 22.2715C17.4958 22.4583 16.5182 22.361 15.6302 21.9921C14.7421 21.6231 13.9834 20.9991 13.4502 20.1988C12.9169 19.3986 12.6329 18.4582 12.6342 17.4965C12.6343 16.8582 12.7602 16.2262 13.0046 15.6366C13.249 15.0469 13.6072 14.5112 14.0587 14.0599C14.5101 13.6087 15.0461 13.2509 15.6359 13.0068C16.2257 12.7627 16.8578 12.6372 17.4961 12.6375V12.6422Z" fill="white"/>
</mask>
<g mask="url(#mask0_2151_52091)">
<path d="M17.5028 -2.24819C9.25983 -2.24819 6.84816 -2.23973 6.37993 -2.20118C5.02937 -2.14709 3.70466 -1.81383 2.48928 -1.22241C1.63943 -0.8093 0.870917 -0.246528 0.220527 0.438966C-1.03767 1.75285 -1.83971 3.43672 -2.06704 5.24163C-2.20055 6.16586 -2.2391 6.35391 -2.24756 11.071C-2.24756 12.644 -2.24756 14.7134 -2.24756 17.489C-2.24756 25.7272 -2.23816 28.137 -2.19867 28.6043C-2.14275 29.9261 -1.82308 31.2233 -1.25844 32.4197C-0.731284 33.4998 0.0236068 34.4528 0.954286 35.2132C1.88497 35.9736 2.96934 36.5234 4.1328 36.8247C5.07283 37.0487 6.03354 37.1747 6.99954 37.2008C7.48845 37.2224 12.4726 37.2374 17.4595 37.2374C22.4465 37.2374 27.4334 37.2318 27.9101 37.2073C28.9115 37.1883 29.9077 37.0578 30.8803 36.8181C32.0461 36.5191 33.1325 35.9692 34.0637 35.2067C34.9949 34.4442 35.7484 33.4876 36.2715 32.4037C36.8274 31.231 37.1439 29.9591 37.2023 28.6626C37.2286 28.3222 37.2399 22.8971 37.2399 17.4796C37.2399 12.062 37.2277 6.64632 37.2014 6.30596C37.1445 4.99498 36.8214 3.7093 36.2518 2.5272C35.8349 1.65774 35.2612 0.872665 34.5594 0.211432C33.2417 -1.04312 31.557 -1.8428 29.752 -2.07049C28.8296 -2.204 28.6463 -2.24349 23.9226 -2.25195L17.5028 -2.24819Z" fill="url(#paint0_radial_2151_52091)"/>
<path d="M17.5028 -2.24819C9.25983 -2.24819 6.84816 -2.23973 6.37993 -2.20118C5.02937 -2.14709 3.70466 -1.81383 2.48928 -1.22241C1.63943 -0.8093 0.870917 -0.246528 0.220527 0.438966C-1.03767 1.75285 -1.83971 3.43672 -2.06704 5.24163C-2.20055 6.16586 -2.2391 6.35391 -2.24756 11.071C-2.24756 12.644 -2.24756 14.7134 -2.24756 17.489C-2.24756 25.7272 -2.23816 28.137 -2.19867 28.6043C-2.14275 29.9261 -1.82308 31.2233 -1.25844 32.4197C-0.731284 33.4998 0.0236068 34.4528 0.954286 35.2132C1.88497 35.9736 2.96934 36.5234 4.1328 36.8247C5.07283 37.0487 6.03354 37.1747 6.99954 37.2008C7.48845 37.2224 12.4726 37.2374 17.4595 37.2374C22.4465 37.2374 27.4334 37.2318 27.9101 37.2073C28.9115 37.1883 29.9077 37.0578 30.8803 36.8181C32.0461 36.5191 33.1325 35.9692 34.0637 35.2067C34.9949 34.4442 35.7484 33.4876 36.2715 32.4037C36.8274 31.231 37.1439 29.9591 37.2023 28.6626C37.2286 28.3222 37.2399 22.8971 37.2399 17.4796C37.2399 12.062 37.2277 6.64632 37.2014 6.30596C37.1445 4.99498 36.8214 3.7093 36.2518 2.5272C35.8349 1.65774 35.2612 0.872665 34.5594 0.211432C33.2417 -1.04312 31.557 -1.8428 29.752 -2.07049C28.8296 -2.204 28.6463 -2.24349 23.9226 -2.25195L17.5028 -2.24819Z" fill="url(#paint1_radial_2151_52091)"/>
</g>
<defs>
<radialGradient id="paint0_radial_2151_52091" cx="0" cy="0" r="1" gradientUnits="userSpaceOnUse" gradientTransform="translate(8.33 40.3528) rotate(-90) scale(39.1463 36.4023)">
<stop stop-color="#FFDD55"/>
<stop offset="0.1" stop-color="#FFDD55"/>
<stop offset="0.5" stop-color="#FF543E"/>
<stop offset="1" stop-color="#C837AB"/>
</radialGradient>
<radialGradient id="paint1_radial_2151_52091" cx="0" cy="0" r="1" gradientUnits="userSpaceOnUse" gradientTransform="translate(-8.92577 0.424464) rotate(78.6774) scale(17.4954 72.1147)">
<stop stop-color="#3771C8"/>
<stop offset="0.128" stop-color="#3771C8"/>
<stop offset="1" stop-color="#6600FF" stop-opacity="0"/>
</radialGradient>
</defs>
</svg>
