<svg width="16" height="16" viewBox="0 0 16 16" fill="none" xmlns="http://www.w3.org/2000/svg">
<path fill-rule="evenodd" clip-rule="evenodd" d="M1.92857 3.85714C1.40476 3.85714 0.952381 3.66667 0.571429 3.28571C0.190476 2.90476 0 2.45238 0 1.92857C0 1.40476 0.190476 0.952381 0.571429 0.571429C0.952381 0.190476 1.40476 0 1.92857 0C2.45238 0 2.90476 0.190476 3.28571 0.571429C3.66667 0.952381 3.85714 1.40476 3.85714 1.92857C3.85714 2.45238 3.66667 2.90476 3.28571 3.28571C2.90476 3.66667 2.45238 3.85714 1.92857 3.85714ZM3.57143 16H0.25V5.32143H3.57143V16ZM12.6786 16H16V10.1429C16 8.5 15.7619 7.28571 15.2857 6.5C14.6667 5.52381 13.5833 5.03571 12.0357 5.03571C11.2738 5.03571 10.6071 5.22619 10.0357 5.60714C9.5119 5.91667 9.13095 6.30952 8.89286 6.78571H8.85714V5.32143H5.67857V16H8.96428V10.7143C8.96428 9.88095 9.08333 9.25 9.32143 8.82143C9.63095 8.25 10.1667 7.96429 10.9286 7.96429C11.6905 7.96429 12.2024 8.28571 12.4643 8.92857C12.6071 9.30952 12.6786 9.92857 12.6786 10.7857V16Z" fill="white"/>
</svg>
