<svg width="16" height="16" viewBox="0 0 16 16" fill="none" xmlns="http://www.w3.org/2000/svg">
<path d="M8.79325 4H4.52659C4.35325 4 4.18659 4.00667 4.02659 4.02667C2.23325 4.18 1.33325 5.24 1.33325 7.19333V9.86C1.33325 12.5267 2.39992 13.0533 4.52659 13.0533H4.79325C4.93992 13.0533 5.13325 13.1533 5.21992 13.2667L6.01992 14.3333C6.37325 14.8067 6.94659 14.8067 7.29992 14.3333L8.09992 13.2667C8.19992 13.1333 8.35992 13.0533 8.52659 13.0533H8.79325C10.7466 13.0533 11.8066 12.16 11.9599 10.36C11.9799 10.2 11.9866 10.0333 11.9866 9.86V7.19333C11.9866 5.06667 10.9199 4 8.79325 4ZM4.33325 9.33333C3.95992 9.33333 3.66659 9.03333 3.66659 8.66667C3.66659 8.3 3.96659 8 4.33325 8C4.69992 8 4.99992 8.3 4.99992 8.66667C4.99992 9.03333 4.69992 9.33333 4.33325 9.33333ZM6.65992 9.33333C6.28659 9.33333 5.99325 9.03333 5.99325 8.66667C5.99325 8.3 6.29325 8 6.65992 8C7.02659 8 7.32659 8.3 7.32659 8.66667C7.32659 9.03333 7.03325 9.33333 6.65992 9.33333ZM8.99325 9.33333C8.61992 9.33333 8.32659 9.03333 8.32659 8.66667C8.32659 8.3 8.62659 8 8.99325 8C9.35992 8 9.65992 8.3 9.65992 8.66667C9.65992 9.03333 9.35992 9.33333 8.99325 9.33333Z" fill="#898989"/>
<path d="M14.6534 4.52732V7.19398C14.6534 8.52732 14.2401 9.43398 13.4134 9.93398C13.2134 10.054 12.9801 9.89398 12.9801 9.66065L12.9867 7.19398C12.9867 4.52732 11.4601 3.00065 8.79342 3.00065L4.73342 3.00732C4.50008 3.00732 4.34008 2.77398 4.46008 2.57398C4.96008 1.74732 5.86675 1.33398 7.19342 1.33398H11.4601C13.5867 1.33398 14.6534 2.40065 14.6534 4.52732Z" fill="white"/>
</svg>
