<svg width="12" height="12" viewBox="0 0 12 12" fill="none" xmlns="http://www.w3.org/2000/svg">
<path d="M8.94004 3.06078L1.96004 10.0408C1.74504 10.2558 1.38504 10.2358 1.21004 9.99078C0.960044 9.64578 0.910044 9.16578 1.17004 8.75078L2.55004 6.53578C2.73504 6.24078 2.73504 5.76078 2.55004 5.46578L1.17004 3.25078C0.705044 2.51078 1.24004 1.55078 2.11004 1.55078H7.83504C8.17504 1.55078 8.59504 1.78578 8.77504 2.07078L9.01004 2.44078C9.13004 2.64078 9.10504 2.89578 8.94004 3.06078Z" fill="#7DC066"/>
<path d="M10.8149 6.55597L8.22494 10.006C8.04494 10.251 7.64494 10.451 7.33494 10.451H3.75494C3.30994 10.451 3.08494 9.91097 3.39994 9.59597L9.15994 3.84097C9.38494 3.61597 9.76994 3.65597 9.93994 3.93097L10.8649 5.41597C11.0649 5.73597 11.0449 6.25097 10.8149 6.55597Z" fill="#7DC066"/>
</svg>
