<svg width="22" height="22" viewBox="0 0 22 22" fill="none" xmlns="http://www.w3.org/2000/svg">
<path d="M16.625 13.875C16.7976 13.875 16.9375 14.0149 16.9375 14.1875C16.9375 14.3601 16.7976 14.5 16.625 14.5C16.4524 14.5 16.3125 14.3601 16.3125 14.1875C16.3125 14.0149 16.4524 13.875 16.625 13.875" stroke="#8589A0" stroke-width="1.5" stroke-linecap="round" stroke-linejoin="round"/>
<path fill-rule="evenodd" clip-rule="evenodd" d="M16.625 10.4375C18.6961 10.4375 20.375 12.1164 20.375 14.1875C20.375 15.7883 18.135 18.835 17.1175 20.1358C16.9991 20.2874 16.8174 20.376 16.625 20.376C16.4326 20.376 16.2509 20.2874 16.1325 20.1358C15.115 18.8342 12.875 15.7883 12.875 14.1875C12.875 12.1164 14.5539 10.4375 16.625 10.4375V10.4375Z" stroke="#8589A0" stroke-width="1.5" stroke-linecap="round" stroke-linejoin="round"/>
<path d="M12.8733 20.1939C7.80247 21.2286 2.85189 17.9604 1.81078 12.8909C0.769673 7.82136 4.03154 2.86662 9.09972 1.81906C14.1679 0.771501 19.1268 4.02706 20.1808 9.0939" stroke="#8589A0" stroke-width="1.5" stroke-linecap="round" stroke-linejoin="round"/>
<path d="M8.74083 20.1021C7.4725 18.2421 6.625 14.8621 6.625 11.0012C6.625 7.14039 7.4725 3.76122 8.74083 1.90039" stroke="#8589A0" stroke-width="1.5" stroke-linecap="round" stroke-linejoin="round"/>
<path d="M1.646 10.375H11.6252" stroke="#8589A0" stroke-width="1.5" stroke-linecap="round" stroke-linejoin="round"/>
<path d="M3.49902 5.375H18.4999" stroke="#8589A0" stroke-width="1.5" stroke-linecap="round" stroke-linejoin="round"/>
<path d="M2.70654 15.375H10.3749" stroke="#8589A0" stroke-width="1.5" stroke-linecap="round" stroke-linejoin="round"/>
<path d="M13.2593 1.90039C14.339 3.72481 14.9964 5.76785 15.1834 7.87956" stroke="#8589A0" stroke-width="1.5" stroke-linecap="round" stroke-linejoin="round"/>
</svg>
