<svg width="22" height="22" viewBox="0 0 22 22" fill="none" xmlns="http://www.w3.org/2000/svg">
<path d="M9.125 12.25H2.44C1.98989 12.25 1.625 11.8851 1.625 11.435V6.38C1.625 5.47978 2.35478 4.75 3.255 4.75H18.7442C19.6445 4.75 20.3745 5.47964 20.375 6.38V11.435C20.375 11.8851 20.0101 12.25 19.56 12.25H12.875" stroke="#8589A0" stroke-width="1.5" stroke-linecap="round" stroke-linejoin="round"/>
<path fill-rule="evenodd" clip-rule="evenodd" d="M14.75 4.74927H7.25V3.96761C7.29484 2.63087 8.41316 1.58263 9.75 1.62427H12.25C13.587 1.58216 14.7056 2.63066 14.75 3.96761V4.74927Z" stroke="#8589A0" stroke-width="1.5" stroke-linecap="round" stroke-linejoin="round"/>
<path fill-rule="evenodd" clip-rule="evenodd" d="M9.75 9.75C9.40482 9.75 9.125 10.0298 9.125 10.375V12.25C9.125 13.2855 9.96447 14.125 11 14.125C12.0355 14.125 12.875 13.2855 12.875 12.25V10.375C12.875 10.0298 12.5952 9.75 12.25 9.75H9.75Z" stroke="#8589A0" stroke-width="1.5" stroke-linecap="round" stroke-linejoin="round"/>
<path d="M19.1252 12.25L20.1535 18.935C20.209 19.2957 20.1041 19.6626 19.8663 19.9394C19.6286 20.2162 19.2818 20.3753 18.9169 20.375H3.08352C2.7189 20.3749 2.37252 20.2155 2.13516 19.9388C1.89779 19.662 1.7931 19.2954 1.84852 18.935L2.87518 12.25" stroke="#8589A0" stroke-width="1.5" stroke-linecap="round" stroke-linejoin="round"/>
</svg>
