<svg width="25" height="24" viewBox="0 0 25 24" fill="none" xmlns="http://www.w3.org/2000/svg">
<path fill-rule="evenodd" clip-rule="evenodd" d="M20.1169 12.98C20.1569 12.66 20.1869 12.34 20.1869 12C20.1869 11.66 20.1569 11.34 20.1169 11.02L22.2269 9.37C22.4169 9.22 22.4669 8.95 22.3469 8.73L20.3469 5.27C20.2269 5.05 19.9569 4.97 19.7369 5.05L17.2469 6.05C16.7269 5.65 16.1669 5.32 15.5569 5.07L15.1769 2.42C15.1469 2.18 14.9369 2 14.6869 2H10.6869C10.4369 2 10.2269 2.18 10.1969 2.42L9.81685 5.07C9.20685 5.32 8.64685 5.66 8.12685 6.05L5.63685 5.05C5.40685 4.96 5.14685 5.05 5.02685 5.27L3.02685 8.73C2.89685 8.95 2.95685 9.22 3.14685 9.37L5.25685 11.02C5.21685 11.34 5.18685 11.67 5.18685 12C5.18685 12.33 5.21685 12.66 5.25685 12.98L3.14685 14.63C2.95685 14.78 2.90685 15.05 3.02685 15.27L5.02685 18.73C5.14685 18.95 5.41685 19.03 5.63685 18.95L8.12685 17.95C8.64685 18.35 9.20685 18.68 9.81685 18.93L10.1969 21.58C10.2269 21.82 10.4369 22 10.6869 22H14.6869C14.9369 22 15.1469 21.82 15.1769 21.58L15.5569 18.93C16.1669 18.68 16.7269 18.34 17.2469 17.95L19.7369 18.95C19.9669 19.04 20.2269 18.95 20.3469 18.73L22.3469 15.27C22.4669 15.05 22.4169 14.78 22.2269 14.63L20.1169 12.98ZM12.6868 15.5C10.7568 15.5 9.18677 13.93 9.18677 12C9.18677 10.07 10.7568 8.5 12.6868 8.5C14.6168 8.5 16.1868 10.07 16.1868 12C16.1868 13.93 14.6168 15.5 12.6868 15.5Z" fill="#775DA6"/>
</svg>
