<svg width="24" height="19" viewBox="0 0 24 19" fill="none" xmlns="http://www.w3.org/2000/svg">
<path fill-rule="evenodd" clip-rule="evenodd" d="M19.4301 7.98C19.4701 7.66 19.5001 7.34 19.5001 7C19.5001 6.66 19.4701 6.34 19.4301 6.02L21.5401 4.37C21.7301 4.22 21.7801 3.95 21.6601 3.73L19.6601 0.27C19.5401 0.05 19.2701 -0.03 19.0501 0.05L16.5601 1.05C16.0401 0.65 15.4801 0.32 14.8701 0.0699999L14.4901 -2.58C14.4601 -2.82 14.2501 -3 14.0001 -3H10.0001C9.75008 -3 9.54008 -2.82 9.51008 -2.58L9.13008 0.0699999C8.52008 0.32 7.96008 0.66 7.44008 1.05L4.95008 0.05C4.72008 -0.04 4.46008 0.05 4.34008 0.27L2.34008 3.73C2.21008 3.95 2.27008 4.22 2.46008 4.37L4.57008 6.02C4.53008 6.34 4.50008 6.67 4.50008 7C4.50008 7.33 4.53008 7.66 4.57008 7.98L2.46008 9.63C2.27008 9.78 2.22008 10.05 2.34008 10.27L4.34008 13.73C4.46008 13.95 4.73008 14.03 4.95008 13.95L7.44008 12.95C7.96008 13.35 8.52008 13.68 9.13008 13.93L9.51008 16.58C9.54008 16.82 9.75008 17 10.0001 17H14.0001C14.2501 17 14.4601 16.82 14.4901 16.58L14.8701 13.93C15.4801 13.68 16.0401 13.34 16.5601 12.95L19.0501 13.95C19.2801 14.04 19.5401 13.95 19.6601 13.73L21.6601 10.27C21.7801 10.05 21.7301 9.78 21.5401 9.63L19.4301 7.98ZM12.0001 10.5C10.0701 10.5 8.50008 8.93 8.50008 7C8.50008 5.07 10.0701 3.5 12.0001 3.5C13.9301 3.5 15.5001 5.07 15.5001 7C15.5001 8.93 13.9301 10.5 12.0001 10.5Z" fill="#898989"/>
</svg>
