<svg width="20" height="21" viewBox="0 0 20 21" fill="none" xmlns="http://www.w3.org/2000/svg">
<path d="M9.95098 1L13.4604 6.12067L19.4149 7.87596L15.6293 12.796L15.8 19.0015L9.95098 16.9216L4.10194 19.0015L4.27261 12.796L0.487036 7.87596L6.44156 6.12067L9.95098 1Z" fill="#E0D043"/>
<path d="M10.812 15C10.732 15 10.664 14.976 10.608 14.928C10.56 14.872 10.536 14.804 10.536 14.724V12.996H6.648C6.568 12.996 6.5 12.972 6.444 12.924C6.396 12.868 6.372 12.8 6.372 12.72V12.24C6.372 12.208 6.38 12.16 6.396 12.096C6.42 12.024 6.456 11.952 6.504 11.88L10.104 6.804C10.2 6.668 10.348 6.6 10.548 6.6H11.412C11.492 6.6 11.556 6.628 11.604 6.684C11.66 6.732 11.688 6.796 11.688 6.876V11.952H12.768C12.856 11.952 12.924 11.98 12.972 12.036C13.028 12.084 13.056 12.148 13.056 12.228V12.72C13.056 12.8 13.028 12.868 12.972 12.924C12.924 12.972 12.86 12.996 12.78 12.996H11.688V14.724C11.688 14.804 11.66 14.872 11.604 14.928C11.556 14.976 11.492 15 11.412 15H10.812ZM7.656 11.976H10.548V7.86L7.656 11.976Z" fill="black"/>
</svg>
