<svg width="14" height="13" viewBox="0 0 14 13" fill="none" xmlns="http://www.w3.org/2000/svg">
<path d="M3.76562 0.203125L4.60938 1.04688L2.35938 3.29688L1.9375 3.64844L1.51562 3.29688L0.390625 2.17188L1.23438 1.32812L1.9375 2.06641L3.76562 0.203125ZM6.4375 1.1875H13.75V2.3125H6.4375V1.1875ZM3.76562 4.70312L4.60938 5.54688L2.35938 7.79688L1.9375 8.14844L1.51562 7.79688L0.390625 6.67188L1.23438 5.82812L1.9375 6.56641L3.76562 4.70312ZM6.4375 5.6875H13.75V6.8125H6.4375V5.6875ZM3.76562 9.20312L4.60938 10.0469L2.35938 12.2969L1.9375 12.6484L1.51562 12.2969L0.390625 11.1719L1.23438 10.3281L1.9375 11.0664L3.76562 9.20312ZM6.4375 10.1875H13.75V11.3125H6.4375V10.1875Z" fill="#775DA6"/>
<path d="M3.76562 0.203125L4.60938 1.04688L2.35938 3.29688L1.9375 3.64844L1.51562 3.29688L0.390625 2.17188L1.23438 1.32812L1.9375 2.06641L3.76562 0.203125ZM6.4375 1.1875H13.75V2.3125H6.4375V1.1875ZM3.76562 4.70312L4.60938 5.54688L2.35938 7.79688L1.9375 8.14844L1.51562 7.79688L0.390625 6.67188L1.23438 5.82812L1.9375 6.56641L3.76562 4.70312ZM6.4375 5.6875H13.75V6.8125H6.4375V5.6875ZM3.76562 9.20312L4.60938 10.0469L2.35938 12.2969L1.9375 12.6484L1.51562 12.2969L0.390625 11.1719L1.23438 10.3281L1.9375 11.0664L3.76562 9.20312ZM6.4375 10.1875H13.75V11.3125H6.4375V10.1875Z" fill="#775DA6"/>
</svg>
