<svg width="16" height="16" viewBox="0 0 16 16" fill="none" xmlns="http://www.w3.org/2000/svg">
<path d="M10.5312 0.691406L10.9531 1.07812L15.1719 5.29688L15.5234 5.71875L15.1719 6.14062C14.4453 6.84375 13.543 7.125 12.4648 6.98438L10.4609 9.02344C10.6484 9.77344 10.6367 10.5234 10.4258 11.2734C10.2383 12.0234 9.86328 12.6797 9.30078 13.2422L8.91406 13.6641L8.49219 13.2422L6.13672 10.8867L1.46094 15.5625H0.6875V14.7891L5.36328 10.1133L2.9375 7.6875L2.51562 7.30078L2.9375 6.91406C4.01562 5.8125 5.32812 5.40234 6.875 5.68359L9.19531 3.39844C9.26562 2.48438 9.57031 1.72266 10.1094 1.11328L10.5312 0.691406ZM10.6367 2.41406C10.3789 2.88281 10.25 3.31641 10.25 3.71484V3.92578L10.1094 4.10156L7.50781 6.70312L7.26172 6.91406L6.94531 6.84375C6.05469 6.58594 5.15234 6.77344 4.23828 7.40625L8.84375 12.0117C9.52344 11.0742 9.6875 10.0664 9.33594 8.98828L9.19531 8.67188L9.47656 8.39062L11.7969 6.07031L12.043 5.82422L12.3594 5.92969C12.8047 6.02344 13.2969 5.91797 13.8359 5.61328L10.6367 2.41406Z" fill="#778CA2"/>
</svg>
