<svg width="68" height="68" viewBox="0 0 68 68" fill="none" xmlns="http://www.w3.org/2000/svg">
<g opacity="0.5">
<path fill-rule="evenodd" clip-rule="evenodd" d="M43.5767 17L58.4233 17L52.7567 28.3333L59.5 28.3333L59.5 51L36.8333 51L36.8333 30.4867L43.5767 17ZM30.09 17L15.2433 17L8.49999 30.4867L8.49999 51L31.1667 51L31.1667 28.3333L24.4233 28.3333L30.09 17ZM18.7567 22.6667L20.91 22.6667L15.2433 34L25.5 34L25.5 45.3333L14.1667 45.3333L14.1667 31.8467L18.7567 22.6667ZM47.09 22.6667L49.2433 22.6667L43.5767 34L53.8333 34L53.8333 45.3333L42.5 45.3333L42.5 31.8467L47.09 22.6667Z" fill="#DFE3EC"/>
</g>
</svg>
