<svg width="21" height="25" viewBox="0 0 21 25" fill="none" xmlns="http://www.w3.org/2000/svg">
<path d="M20.7884 6.22092C19.5672 5.97804 18.4549 5.35313 17.6122 4.43652C16.3903 3.70725 15.4678 2.49696 14.9566 0.386719H11.6795V17.5425C11.6926 18.027 11.6076 18.5092 11.4296 18.96C11.2516 19.4109 10.9842 19.821 10.6436 20.1659C10.3029 20.5107 9.89609 20.7831 9.44748 20.9666C8.99887 21.1502 8.51777 21.2411 8.03312 21.2339C7.47394 21.2657 6.91563 21.1581 6.40834 20.9207C5.90106 20.6833 5.46072 20.3236 5.12688 19.8739C4.50255 19.5394 3.98656 19.0338 3.63944 18.4163C3.29233 17.7989 3.12849 17.0953 3.16715 16.3881C3.20423 15.8354 3.36546 15.2982 3.63885 14.8164C3.91223 14.3346 4.29073 13.9207 4.74619 13.6054C5.20165 13.2901 5.72234 13.0815 6.26952 12.9953C6.8167 12.909 7.37629 12.9473 7.90666 13.1071V9.6935C5.86013 9.70927 3.89908 10.5163 2.43424 11.9456C0.969398 13.3748 0.114408 15.3154 0.0483398 17.361C0.061468 19.5863 0.923016 21.7229 2.45727 23.3348C3.76078 24.1932 5.29252 24.6393 6.85309 24.6149C12.1597 24.6149 14.8736 19.96 14.8736 16.3912V7.80049C17.1824 9.543 20.7877 9.79824 20.7877 9.79824L20.7884 6.22092Z" fill="black"/>
</svg>
