<svg width="16" height="16" viewBox="0 0 16 16" fill="none" xmlns="http://www.w3.org/2000/svg">
<path fill-rule="evenodd" clip-rule="evenodd" d="M13.9545 5.75H11.9091V3H2.36364C1.61364 3 1 3.61875 1 4.375V11.9375H2.36364C2.36364 13.0787 3.27727 14 4.40909 14C5.54091 14 6.45455 13.0787 6.45455 11.9375H10.5455C10.5455 13.0787 11.4591 14 12.5909 14C13.7227 14 14.6364 13.0787 14.6364 11.9375H16V8.5L13.9545 5.75ZM4.40909 12.9688C3.84318 12.9688 3.38636 12.5081 3.38636 11.9375C3.38636 11.3669 3.84318 10.9062 4.40909 10.9062C4.975 10.9062 5.43182 11.3669 5.43182 11.9375C5.43182 12.5081 4.975 12.9688 4.40909 12.9688ZM13.6136 6.78125L14.95 8.5H11.9091V6.78125H13.6136ZM12.5909 12.9688C12.025 12.9688 11.5682 12.5081 11.5682 11.9375C11.5682 11.3669 12.025 10.9062 12.5909 10.9062C13.1568 10.9062 13.6136 11.3669 13.6136 11.9375C13.6136 12.5081 13.1568 12.9688 12.5909 12.9688Z" fill="#898989"/>
</svg>
