<svg width="39" height="35" viewBox="0 0 39 35" fill="none" xmlns="http://www.w3.org/2000/svg">
<path d="M34.9629 8.75C35.0137 8.97436 35.0391 9.33894 35.0391 9.84375C35.0391 13.8822 34.1504 17.7804 32.373 21.5385C30.5449 25.5208 27.9805 28.6899 24.6797 31.0457C21.0742 33.6819 16.9355 35 12.2637 35C7.79492 35 3.70703 33.6819 0 31.0457C0.558593 31.1018 1.19336 31.1298 1.9043 31.1298C5.61133 31.1298 8.9375 29.8678 11.8828 27.3437C10.1055 27.3437 8.54395 26.7688 7.19824 25.619C5.85254 24.4691 4.92578 23.0248 4.41797 21.2861C4.92578 21.3421 5.4082 21.3702 5.86523 21.3702C6.57617 21.3702 7.28711 21.2861 7.99805 21.1178C6.16992 20.6691 4.64648 19.6314 3.42773 18.0048C2.20898 16.3782 1.59961 14.5272 1.59961 12.4519V12.2837C2.7168 13.0128 3.91016 13.4054 5.17969 13.4615C4.11328 12.6202 3.25 11.5545 2.58984 10.2644C1.92969 8.97436 1.59961 7.55809 1.59961 6.01562C1.59961 4.47316 1.98047 3.0008 2.74219 1.59856C4.72266 4.34696 7.14746 6.53446 10.0166 8.16106C12.8857 9.78766 15.9453 10.6851 19.1953 10.8534C19.0938 10.1803 19.043 9.50721 19.043 8.83413C19.043 7.26362 19.3984 5.79127 20.1094 4.41707C20.8203 3.04287 21.7852 1.96314 23.0039 1.17788C24.2227 0.392629 25.543 0 26.9648 0C28.1328 0 29.2119 0.252404 30.2021 0.757212C31.1924 1.26202 32.0684 1.9351 32.8301 2.77644C34.6582 2.38381 36.3594 1.68269 37.9336 0.673077C37.3242 2.7484 36.1562 4.375 34.4297 5.55288C35.9531 5.32852 37.4766 4.85176 39 4.1226C37.8828 5.91747 36.5371 7.45994 34.9629 8.75Z" fill="#4D7CFE"/>
</svg>
