<svg width="31" height="31" viewBox="0 0 31 31" fill="none" xmlns="http://www.w3.org/2000/svg">
<path d="M30.0542 14.6396C29.5583 6.18124 21.8729 -0.337495 13.0208 1.12084C6.92501 2.12709 2.0396 7.07081 1.09169 13.1666C0.53752 16.6958 1.26672 20.0354 2.8563 22.7917L1.55836 27.6187C1.2667 28.7125 2.27292 29.7041 3.35209 29.3979L8.10627 28.0854C10.2646 29.3542 12.7875 30.0833 15.4854 30.0833C23.7104 30.0833 30.5354 22.8354 30.0542 14.6396ZM22.6167 20.925C22.4854 21.1875 22.325 21.4354 22.1208 21.6688C21.7562 22.0625 21.3625 22.3542 20.925 22.5292C20.4875 22.7187 20.0063 22.8062 19.4958 22.8062C18.7521 22.8062 17.95 22.6313 17.1188 22.2667C16.2729 21.9021 15.4417 21.4208 14.6105 20.8229C13.7646 20.2104 12.9771 19.525 12.2188 18.7812C11.4604 18.0229 10.7896 17.2208 10.1771 16.3895C9.57916 15.5583 9.09794 14.7271 8.74794 13.8958C8.39794 13.0646 8.22296 12.2625 8.22296 11.5042C8.22296 11.0083 8.31045 10.5271 8.48545 10.0896C8.66045 9.6375 8.93756 9.22917 9.33131 8.86459C9.79797 8.39792 10.3084 8.17917 10.8479 8.17917C11.0521 8.17917 11.2562 8.22291 11.4458 8.31041C11.6354 8.39791 11.8104 8.52916 11.9417 8.71874L13.6333 11.1104C13.7646 11.3 13.8667 11.4604 13.925 11.6208C13.9979 11.7812 14.0271 11.9271 14.0271 12.0729C14.0271 12.2479 13.9688 12.4229 13.8667 12.5979C13.7646 12.7729 13.6333 12.9479 13.4583 13.1229L12.9042 13.7062C12.8167 13.7937 12.7875 13.8812 12.7875 13.9979C12.7875 14.0562 12.8021 14.1146 12.8167 14.1729C12.8458 14.2312 12.8605 14.275 12.875 14.3187C13.0063 14.5667 13.2396 14.8729 13.5604 15.252C13.8958 15.6312 14.2459 16.025 14.6251 16.4041C15.0188 16.7979 15.398 17.1479 15.7917 17.4833C16.1709 17.8041 16.4917 18.0229 16.7396 18.1542C16.7833 18.1687 16.8271 18.1979 16.8709 18.2125C16.9292 18.2416 16.9875 18.2417 17.0605 18.2417C17.1917 18.2417 17.2792 18.1979 17.3667 18.1104L17.9208 17.5562C18.1104 17.3667 18.2855 17.2354 18.4459 17.1479C18.6209 17.0458 18.7813 16.9875 18.9709 16.9875C19.1167 16.9875 19.2625 17.0166 19.4229 17.0896C19.5834 17.1625 19.7583 17.25 19.9333 17.3812L22.3542 19.1021C22.5438 19.2333 22.675 19.3937 22.7625 19.5687C22.8354 19.7583 22.8792 19.9333 22.8792 20.1375C22.7917 20.3854 22.7334 20.6625 22.6167 20.925Z" fill="#3AC34C"/>
</svg>
