<svg width="20" height="21" viewBox="0 0 20 21" fill="none" xmlns="http://www.w3.org/2000/svg">
<path fill-rule="evenodd" clip-rule="evenodd" d="M7.5 3H3.75C3.05964 3 2.5 3.55964 2.5 4.25V8C2.5 8.69036 3.05964 9.25 3.75 9.25H7.5C8.19036 9.25 8.75 8.69036 8.75 8V4.25C8.75 3.55964 8.19036 3 7.5 3ZM7.5 8H3.75V4.25H7.5V8ZM16.25 3H12.5C11.8096 3 11.25 3.55964 11.25 4.25V8C11.25 8.69036 11.8096 9.25 12.5 9.25H16.25C16.9404 9.25 17.5 8.69036 17.5 8V4.25C17.5 3.55964 16.9404 3 16.25 3ZM16.25 8H12.5V4.25H16.25V8ZM7.5 11.75H3.75C3.05964 11.75 2.5 12.3096 2.5 13V16.75C2.5 17.4404 3.05964 18 3.75 18H7.5C8.19036 18 8.75 17.4404 8.75 16.75V13C8.75 12.3096 8.19036 11.75 7.5 11.75ZM7.5 16.75H3.75V13H7.5V16.75ZM16.25 11.75H12.5C11.8096 11.75 11.25 12.3096 11.25 13V16.75C11.25 17.4404 11.8096 18 12.5 18H16.25C16.9404 18 17.5 17.4404 17.5 16.75V13C17.5 12.3096 16.9404 11.75 16.25 11.75ZM16.25 16.75H12.5V13H16.25V16.75Z" fill="#A5A5A5"/>
</svg>
