<svg width="20" height="20" viewBox="0 0 20 20" fill="none" xmlns="http://www.w3.org/2000/svg">
<path fill-rule="evenodd" clip-rule="evenodd" d="M11.0875 18.75L10 18.125L12.5 13.75H16.25C16.9404 13.75 17.5 13.1904 17.5 12.5V5C17.5 4.30964 16.9404 3.75 16.25 3.75H3.75C3.05964 3.75 2.5 4.30964 2.5 5V12.5C2.5 13.1904 3.05964 13.75 3.75 13.75H9.375V15H3.75C2.36929 15 1.25 13.8807 1.25 12.5V5C1.25 3.61929 2.36929 2.5 3.75 2.5H16.25C17.6307 2.5 18.75 3.61929 18.75 5V12.5C18.75 13.8807 17.6307 15 16.25 15H13.225L11.0875 18.75ZM10.625 5.625H9.375V8.125H6.875V9.375H9.375V11.875H10.625V9.375H13.125V8.125H10.625V5.625Z" fill="#EEEEEE"/>
</svg>
