<svg width="20" height="20" viewBox="0 0 20 20" fill="none" xmlns="http://www.w3.org/2000/svg">
<path fill-rule="evenodd" clip-rule="evenodd" d="M16.25 6.87499H12.5V3.74999C12.6311 2.50046 11.7245 1.3812 10.475 1.24999C10.3172 1.23124 10.1578 1.23124 10 1.24999H9.01875C8.58907 1.26177 8.22162 1.5624 8.125 1.98124V2.05624L7.5 6.01874L5.2875 9.37499H1.25V18.125H13.125C17.775 18.125 18.75 15.4062 18.75 13.125V9.37499C18.8811 8.12546 17.9745 7.0062 16.725 6.87499C16.5672 6.85624 16.4078 6.85624 16.25 6.87499V6.87499ZM5 16.875H2.5V10.625H5V16.875ZM17.5 13.125C17.5 15.6812 16.1125 16.875 13.125 16.875H6.25V10.1875L8.75 6.48124L9.20625 3.12499L9.29375 2.49999H10C10.9 2.49999 11.25 2.84999 11.25 3.74999V8.12499H16.25C17.15 8.12499 17.5 8.47499 17.5 9.37499V13.125Z" fill="#EEEEEE"/>
</svg>
