<svg width="20" height="20" viewBox="0 0 20 20" fill="none" xmlns="http://www.w3.org/2000/svg">
<path fill-rule="evenodd" clip-rule="evenodd" d="M14.375 12.5C13.4274 12.5048 12.5331 12.9392 11.9437 13.6813L7.37499 10.825C7.5415 10.2876 7.5415 9.7124 7.37499 9.175L11.9437 6.31875C12.9012 7.50435 14.5742 7.82641 15.9034 7.08102C17.2326 6.33562 17.8304 4.74016 17.3181 3.3049C16.8058 1.86963 15.333 1.01317 13.8322 1.27784C12.3314 1.5425 11.2404 2.85109 11.25 4.375C11.2529 4.65449 11.295 4.93218 11.375 5.2L6.80624 8.05625C5.97952 7.01552 4.58496 6.6116 3.33 7.04938C2.07504 7.48717 1.23431 8.67087 1.23431 10C1.23431 11.3291 2.07504 12.5128 3.33 12.9506C4.58496 13.3884 5.97952 12.9845 6.80624 11.9438L11.375 14.8C11.295 15.0678 11.2529 15.3455 11.25 15.625C11.25 17.3509 12.6491 18.75 14.375 18.75C16.1009 18.75 17.5 17.3509 17.5 15.625C17.5 13.8991 16.1009 12.5 14.375 12.5ZM14.375 2.5C15.4105 2.5 16.25 3.33947 16.25 4.375C16.25 5.41054 15.4105 6.25 14.375 6.25C13.3395 6.25 12.5 5.41054 12.5 4.375C12.5 3.33947 13.3395 2.5 14.375 2.5ZM4.37499 11.875C3.33946 11.875 2.49999 11.0355 2.49999 10C2.49999 8.96447 3.33946 8.125 4.37499 8.125C5.41053 8.125 6.24999 8.96447 6.24999 10C6.24999 11.0355 5.41053 11.875 4.37499 11.875V11.875ZM14.375 17.5C13.3395 17.5 12.5 16.6605 12.5 15.625C12.5 14.5895 13.3395 13.75 14.375 13.75C15.4105 13.75 16.25 14.5895 16.25 15.625C16.25 16.6605 15.4105 17.5 14.375 17.5V17.5Z" fill="#EEEEEE"/>
</svg>
