<svg width="20" height="20" viewBox="0 0 20 20" fill="none" xmlns="http://www.w3.org/2000/svg">
<path fill-rule="evenodd" clip-rule="evenodd" d="M17.5 5H18.75V10H17.5V5ZM14.375 3.125H15.625V10H14.375V3.125ZM11.25 6.25H12.5V10H11.25V6.25ZM10 18.75H8.75V15C8.74897 13.9649 7.91011 13.126 6.875 13.125H4.375C3.33989 13.126 2.50103 13.9649 2.5 15V18.75H1.25V15C1.25207 13.275 2.64997 11.8771 4.375 11.875H6.875C8.60003 11.8771 9.99793 13.275 10 15V18.75ZM5.625 5.625C6.66053 5.625 7.5 6.46447 7.5 7.5C7.5 8.53553 6.66053 9.375 5.625 9.375C4.58947 9.375 3.75 8.53553 3.75 7.5C3.75 6.46447 4.58947 5.625 5.625 5.625V5.625ZM5.625 4.375C3.89911 4.375 2.5 5.77411 2.5 7.5C2.5 9.22589 3.89911 10.625 5.625 10.625C7.35089 10.625 8.75 9.22589 8.75 7.5C8.75 6.6712 8.42076 5.87634 7.83471 5.29029C7.24866 4.70424 6.4538 4.375 5.625 4.375V4.375Z" fill="#EEEEEE"/>
</svg>
