<svg width="20" height="20" viewBox="0 0 20 20" fill="none" xmlns="http://www.w3.org/2000/svg">
<path fill-rule="evenodd" clip-rule="evenodd" d="M17.5 1.25H2.5C1.80993 1.25069 1.25069 1.80993 1.25 2.5V17.5C1.25069 18.1901 1.80993 18.7493 2.5 18.75H17.5C18.1899 18.749 18.749 18.1899 18.75 17.5V2.5C18.7493 1.80993 18.1901 1.25069 17.5 1.25ZM17.5 6.875H8.75V2.5H17.5V6.875ZM7.5 6.875V2.5H2.5V6.875H7.5ZM2.5 17.5V8.125H17.5L17.5013 17.5H2.5ZM16.25 13.125H15V16.25H16.25V13.125ZM12.5 10H13.75V16.25H12.5V10ZM3.75 13.125C3.75207 14.85 5.14997 16.2479 6.875 16.25C8.60089 16.25 10 14.8509 10 13.125C10 11.3991 8.60089 10 6.875 10V11.25C7.91053 11.25 8.75 12.0895 8.75 13.125C8.75 14.1605 7.91053 15 6.875 15C5.83947 15 5 14.1605 5 13.125H3.75Z" fill="#EEEEEE"/>
</svg>
