<svg width="20" height="20" viewBox="0 0 20 20" fill="none" xmlns="http://www.w3.org/2000/svg">
<path fill-rule="evenodd" clip-rule="evenodd" d="M17.9788 2.66C17.0031 1.6686 15.4246 1.60728 14.375 2.52C13.3254 1.60728 11.7469 1.6686 10.7713 2.66C9.74346 3.70944 9.74346 5.38807 10.7713 6.4375L14.3738 10.0875L14.375 10.0863L14.3763 10.0869L17.9788 6.4375C19.0065 5.38807 19.0065 3.70944 17.9788 2.66V2.66ZM17.0887 5.55938L14.3762 8.3075L14.375 8.30625L14.3737 8.3075L11.6613 5.55938C11.1103 4.99826 11.1103 4.09925 11.6613 3.53813C12.2104 3.00434 13.0846 3.00434 13.6337 3.53813L14.3719 4.2925L14.375 4.28938L14.3781 4.2925L15.1156 3.53813C15.6649 3.00394 16.5395 3.00394 17.0887 3.53813C17.6397 4.09925 17.6397 4.99826 17.0887 5.55938V5.55938ZM10 18.75H8.75V15.625C8.74897 14.5899 7.91011 13.751 6.875 13.75H4.375C3.33989 13.751 2.50103 14.5899 2.5 15.625V18.75H1.25V15.625C1.25207 13.9 2.64997 12.5021 4.375 12.5H6.875C8.60003 12.5021 9.99793 13.9 10 15.625V18.75ZM5.625 6.25C6.66053 6.25 7.5 7.08947 7.5 8.125C7.5 9.16054 6.66053 10 5.625 10C4.58947 10 3.75 9.16054 3.75 8.125C3.75 7.08947 4.58947 6.25 5.625 6.25V6.25ZM5.625 5C3.89911 5 2.5 6.39911 2.5 8.125C2.5 9.85089 3.89911 11.25 5.625 11.25C7.35089 11.25 8.75 9.85089 8.75 8.125C8.75 7.2962 8.42076 6.50134 7.83471 5.91529C7.24866 5.32924 6.4538 5 5.625 5V5Z" fill="#EEEEEE"/>
</svg>
