<svg width="20" height="20" viewBox="0 0 20 20" fill="none" xmlns="http://www.w3.org/2000/svg">
<path fill-rule="evenodd" clip-rule="evenodd" d="M19.3375 9.7875C17.835 5.90106 14.1638 3.28158 9.99998 3.125C5.83617 3.28158 2.16496 5.90106 0.662478 9.7875C0.612833 9.92482 0.612833 10.0752 0.662478 10.2125C2.16496 14.0989 5.83617 16.7184 9.99998 16.875C14.1638 16.7184 17.835 14.0989 19.3375 10.2125C19.3871 10.0752 19.3871 9.92482 19.3375 9.7875ZM6.25024 10C6.25024 7.92893 7.92918 6.25 10.0002 6.25C12.0713 6.25 13.7502 7.92893 13.7502 10C13.7502 12.0711 12.0713 13.75 10.0002 13.75C7.92918 13.75 6.25024 12.0711 6.25024 10ZM7.50024 10C7.50024 11.3807 8.61953 12.5 10.0002 12.5C10.6633 12.5 11.2992 12.2366 11.768 11.7678C12.2369 11.2989 12.5002 10.663 12.5002 10C12.5002 8.61929 11.381 7.5 10.0002 7.5C8.61953 7.5 7.50024 8.61929 7.50024 10ZM1.91873 10C3.18748 13.1687 6.68748 15.625 9.99998 15.625C13.3125 15.625 16.8125 13.1687 18.0812 10C16.8125 6.83125 13.3125 4.375 9.99998 4.375C6.68748 4.375 3.18748 6.83125 1.91873 10Z" fill="#EEEEEE"/>
</svg>
