<svg width="20" height="20" viewBox="0 0 20 20" fill="none" xmlns="http://www.w3.org/2000/svg">
<path fill-rule="evenodd" clip-rule="evenodd" d="M2.5 16.25H13.125C13.8151 16.2493 14.3743 15.6901 14.375 15V12.465L17.7619 14.8837C17.9524 15.0198 18.203 15.0379 18.4111 14.9307C18.6192 14.8236 18.75 14.6091 18.75 14.375V5.625C18.7498 5.39102 18.6189 5.17675 18.4108 5.06975C18.2027 4.96274 17.9523 4.98093 17.7619 5.11688L14.375 7.53562V5C14.3743 4.30993 13.8151 3.75069 13.125 3.75H2.5C1.80993 3.75069 1.25069 4.30993 1.25 5V15C1.25069 15.6901 1.80993 16.2493 2.5 16.25ZM2.5 15.0006V5H13.125V8.75C13.125 8.9841 13.2558 9.19858 13.4639 9.30573C13.672 9.41289 13.9226 9.39476 14.1131 9.25875L17.5 6.84V13.16L14.1131 10.7413C13.9226 10.6052 13.672 10.5871 13.4639 10.6943C13.2558 10.8014 13.125 11.0159 13.125 11.25V15L2.5 15.0006ZM5 7.5H10.625V8.75H5V7.5ZM8.125 10.625H5V11.875H8.125V10.625Z" fill="#EEEEEE"/>
</svg>
