<svg width="20" height="20" viewBox="0 0 20 20" fill="none" xmlns="http://www.w3.org/2000/svg">
<path fill-rule="evenodd" clip-rule="evenodd" d="M16.875 1.875H3.125C2.43464 1.875 1.875 2.43464 1.875 3.125V16.875C1.875 17.5654 2.43464 18.125 3.125 18.125H16.875C17.5654 18.125 18.125 17.5654 18.125 16.875V3.125C18.125 2.43464 17.5654 1.875 16.875 1.875ZM16.875 3.125V5.625H3.125V3.125H16.875ZM10.625 6.875H16.875V11.25H10.625V6.875ZM9.375 11.25H3.125V6.875H9.375V11.25ZM3.125 12.5H9.375V16.875H3.125V12.5ZM10.625 16.875V12.5H16.875V16.875H10.625Z" fill="#EEEEEE"/>
</svg>
