<svg width="12" height="13" viewBox="0 0 12 13" fill="none" xmlns="http://www.w3.org/2000/svg">
<path d="M9.88814 5.24501L9.88814 5.245H9.885H7.865C7.50475 5.245 7.38061 5.17711 7.34075 5.14183C7.31661 5.12046 7.25 5.04669 7.25 4.755V2.49C7.25 2.20185 7.31613 2.12693 7.34148 2.1044C7.3819 2.06848 7.50653 2 7.865 2H9.885C10.2435 2 10.3681 2.06848 10.4085 2.1044C10.4339 2.12693 10.5 2.20185 10.5 2.49V4.76C10.5 5.04852 10.4337 5.12268 10.4093 5.14433C10.3699 5.17914 10.2463 5.24726 9.88814 5.24501Z" fill="#9DA1A7" stroke="#9DA1A7"/>
<path d="M10.5 8.365V10.385C10.5 10.7324 10.4271 10.847 10.3871 10.8871C10.347 10.9271 10.2324 11 9.885 11H7.865C7.51758 11 7.40298 10.9271 7.36293 10.8871C7.32287 10.847 7.25 10.7324 7.25 10.385V8.365C7.25 8.01758 7.32287 7.90298 7.36293 7.86293C7.40298 7.82287 7.51758 7.75 7.865 7.75H9.885C10.2324 7.75 10.347 7.82287 10.3871 7.86293C10.4271 7.90298 10.5 8.01758 10.5 8.365Z" fill="#9DA1A7" stroke="#9DA1A7"/>
<path d="M4.13814 5.24501L4.13814 5.245H4.135H2.115C1.75475 5.245 1.63061 5.17711 1.59075 5.14183C1.56661 5.12046 1.5 5.04669 1.5 4.755V2.49C1.5 2.20185 1.56613 2.12693 1.59148 2.1044C1.6319 2.06848 1.75653 2 2.115 2H4.135C4.49347 2 4.6181 2.06848 4.65852 2.1044C4.68387 2.12693 4.75 2.20185 4.75 2.49V4.76C4.75 5.04852 4.68371 5.12268 4.65925 5.14433C4.61991 5.17914 4.49634 5.24726 4.13814 5.24501Z" fill="#9DA1A7" stroke="#9DA1A7"/>
<path d="M4.75 8.365V10.385C4.75 10.7324 4.67713 10.847 4.63707 10.8871C4.59702 10.9271 4.48242 11 4.135 11H2.115C1.76758 11 1.65298 10.9271 1.61293 10.8871C1.57287 10.847 1.5 10.7324 1.5 10.385V8.365C1.5 8.01758 1.57287 7.90298 1.61293 7.86293C1.65298 7.82287 1.76758 7.75 2.115 7.75H4.135C4.48242 7.75 4.59702 7.82287 4.63707 7.86293C4.67713 7.90298 4.75 8.01758 4.75 8.365Z" fill="#9DA1A7" stroke="#9DA1A7"/>
</svg>
