<svg width="40" height="40" viewBox="0 0 40 40" fill="none" xmlns="http://www.w3.org/2000/svg">
<path d="M20.1329 19.8668L19.1929 20.8068C18.6729 21.3268 18.6729 22.1735 19.1929 22.6935C19.7129 23.2135 20.5596 23.2135 21.0796 22.6935L22.5596 21.2135C23.5996 20.1735 23.5996 18.4868 22.5596 17.4402C21.5196 16.4002 19.8329 16.4002 18.7863 17.4402L17.1729 19.0535C16.2796 19.9468 16.2796 21.3935 17.1729 22.2868" stroke="#C6C8CB" stroke-width="1.5" stroke-linecap="round" stroke-linejoin="round"/>
<path d="M19.9997 26.6673C23.6816 26.6673 26.6663 23.6825 26.6663 20.0007C26.6663 16.3188 23.6816 13.334 19.9997 13.334C16.3178 13.334 13.333 16.3188 13.333 20.0007C13.333 23.6825 16.3178 26.6673 19.9997 26.6673Z" stroke="#C6C8CB" stroke-width="1.5" stroke-linecap="round" stroke-linejoin="round"/>
<rect x="0.5" y="0.5" width="39" height="39" rx="19.5" stroke="white" stroke-opacity="0.16"/>
</svg>
