<svg width="17" height="16" viewBox="0 0 17 16" fill="none" xmlns="http://www.w3.org/2000/svg">
<path d="M14.9793 12.2207C14.9793 12.4607 14.926 12.7073 14.8127 12.9473C14.6993 13.1873 14.5527 13.414 14.3593 13.6273C14.0327 13.9873 13.6727 14.2473 13.266 14.414C12.866 14.5807 12.4327 14.6673 11.966 14.6673C11.286 14.6673 10.5593 14.5073 9.79268 14.1807C9.02602 13.854 8.25935 13.414 7.49935 12.8607C6.73268 12.3007 6.00602 11.6807 5.31268 10.994C4.62602 10.3007 4.00602 9.57398 3.45268 8.81398C2.90602 8.05398 2.46602 7.29398 2.14602 6.54065C1.82602 5.78065 1.66602 5.05398 1.66602 4.36065C1.66602 3.90732 1.74602 3.47398 1.90602 3.07398C2.06602 2.66732 2.31935 2.29398 2.67268 1.96065C3.09935 1.54065 3.56602 1.33398 4.05935 1.33398C4.24602 1.33398 4.43268 1.37398 4.59935 1.45398C4.77268 1.53398 4.92602 1.65398 5.04602 1.82732L6.59268 4.00732C6.71268 4.17398 6.79935 4.32732 6.85935 4.47398C6.91935 4.61398 6.95268 4.75398 6.95268 4.88065C6.95268 5.04065 6.90602 5.20065 6.81268 5.35398C6.72602 5.50732 6.59935 5.66732 6.43935 5.82732L5.93268 6.35398C5.85935 6.42732 5.82602 6.51398 5.82602 6.62065C5.82602 6.67398 5.83268 6.72065 5.84602 6.77398C5.86602 6.82732 5.88602 6.86732 5.89935 6.90732C6.01935 7.12732 6.22602 7.41398 6.51935 7.76065C6.81935 8.10732 7.13935 8.46065 7.48602 8.81398C7.84602 9.16732 8.19268 9.49398 8.54602 9.79398C8.89268 10.0873 9.17935 10.2873 9.40602 10.4073C9.43935 10.4207 9.47935 10.4407 9.52602 10.4607C9.57935 10.4807 9.63268 10.4873 9.69268 10.4873C9.80602 10.4873 9.89268 10.4473 9.96602 10.374L10.4727 9.87398C10.6393 9.70732 10.7993 9.58065 10.9527 9.50065C11.106 9.40732 11.2593 9.36065 11.426 9.36065C11.5527 9.36065 11.686 9.38732 11.8327 9.44732C11.9793 9.50732 12.1327 9.59398 12.2993 9.70732L14.506 11.274C14.6793 11.394 14.7993 11.534 14.8727 11.7007C14.9393 11.8673 14.9793 12.034 14.9793 12.2207Z" fill="#E5646C"/>
</svg>
