<svg width="40" height="40" viewBox="0 0 40 40" fill="none" xmlns="http://www.w3.org/2000/svg">
<path d="M19.9997 26.6673C24.333 26.6673 26.6663 24.334 26.6663 20.0007V18.0007C26.6663 14.6673 25.333 13.334 21.9997 13.334H17.9997C14.6663 13.334 13.333 14.6673 13.333 18.0007V20.0007C13.333 24.334 15.6663 26.6673 19.9997 26.6673Z" stroke="#C6C8CB" stroke-width="1.5" stroke-linecap="round" stroke-linejoin="round"/>
<path d="M22.333 18.5C22.8853 18.5 23.333 18.0523 23.333 17.5C23.333 16.9477 22.8853 16.5 22.333 16.5C21.7807 16.5 21.333 16.9477 21.333 17.5C21.333 18.0523 21.7807 18.5 22.333 18.5Z" stroke="#C6C8CB" stroke-width="1.5" stroke-miterlimit="10" stroke-linecap="round" stroke-linejoin="round"/>
<path d="M17.667 18.5C18.2193 18.5 18.667 18.0523 18.667 17.5C18.667 16.9477 18.2193 16.5 17.667 16.5C17.1147 16.5 16.667 16.9477 16.667 17.5C16.667 18.0523 17.1147 18.5 17.667 18.5Z" stroke="#C6C8CB" stroke-width="1.5" stroke-miterlimit="10" stroke-linecap="round" stroke-linejoin="round"/>
<path d="M17.6 20.8672H22.4C22.7333 20.8672 23 21.1339 23 21.4672C23 23.1272 21.66 24.4672 20 24.4672C18.34 24.4672 17 23.1272 17 21.4672C17 21.1339 17.2667 20.8672 17.6 20.8672Z" stroke="#C6C8CB" stroke-width="1.5" stroke-miterlimit="10" stroke-linecap="round" stroke-linejoin="round"/>
<rect x="0.5" y="0.5" width="39" height="39" rx="19.5" stroke="white" stroke-opacity="0.16"/>
</svg>
