<svg width="40" height="40" viewBox="0 0 40 40" fill="none" xmlns="http://www.w3.org/2000/svg">
<path d="M17.9997 26.6673H21.9997C25.333 26.6673 26.6663 25.334 26.6663 22.0007V18.0007C26.6663 14.6673 25.333 13.334 21.9997 13.334H17.9997C14.6663 13.334 13.333 14.6673 13.333 18.0007V22.0007C13.333 25.334 14.6663 26.6673 17.9997 26.6673Z" stroke="#C6C8CB" stroke-width="1.5" stroke-linecap="round" stroke-linejoin="round"/>
<path d="M18.0003 18.6667C18.7367 18.6667 19.3337 18.0697 19.3337 17.3333C19.3337 16.597 18.7367 16 18.0003 16C17.2639 16 16.667 16.597 16.667 17.3333C16.667 18.0697 17.2639 18.6667 18.0003 18.6667Z" stroke="#C6C8CB" stroke-width="1.5" stroke-linecap="round" stroke-linejoin="round"/>
<path d="M13.7803 24.633L17.0669 22.4264C17.5936 22.073 18.3536 22.113 18.8269 22.5197L19.0469 22.713C19.5669 23.1597 20.4069 23.1597 20.9269 22.713L23.7003 20.333C24.2203 19.8864 25.0603 19.8864 25.5803 20.333L26.6669 21.2664" stroke="#C6C8CB" stroke-width="1.5" stroke-linecap="round" stroke-linejoin="round"/>
<rect x="0.5" y="0.5" width="39" height="39" rx="19.5" stroke="white" stroke-opacity="0.16"/>
</svg>
