<svg width="30" height="30" viewBox="0 0 30 30" fill="none" xmlns="http://www.w3.org/2000/svg">
<path d="M24 10.92H20.1467C16.9867 10.92 14.4133 8.34667 14.4133 5.18667V1.33333C14.4133 0.6 13.8133 0 13.08 0H7.42667C3.32 0 0 2.66667 0 7.42667V19.24C0 24 3.32 26.6667 7.42667 26.6667H17.9067C22.0133 26.6667 25.3333 24 25.3333 19.24V12.2533C25.3333 11.52 24.7333 10.92 24 10.92Z" fill="url(#paint0_linear_309_43498)"/>
<path d="M17.7326 0.27934C17.1859 -0.267327 16.2393 0.106006 16.2393 0.866006V5.51934C16.2393 7.46601 17.8926 9.07934 19.9059 9.07934C21.1726 9.09267 22.9326 9.09267 24.4393 9.09267C25.1993 9.09267 25.5993 8.19934 25.0659 7.66601C23.1459 5.73267 19.7059 2.25267 17.7326 0.27934Z" fill="#E5646C"/>
<path fill-rule="evenodd" clip-rule="evenodd" d="M5.11111 6.66602C4.49746 6.66602 4 7.26297 4 7.99935C4 8.73573 4.49746 9.33268 5.11111 9.33268H9.55556C10.1692 9.33268 10.6667 8.73573 10.6667 7.99935C10.6667 7.26297 10.1692 6.66602 9.55556 6.66602H5.11111ZM5.11111 11.9988C4.49746 11.9988 4 12.5958 4 13.3322C4 14.0685 4.49746 14.6655 5.11111 14.6655H12.8889C13.5025 14.6655 14 14.0685 14 13.3322C14 12.5958 13.5025 11.9988 12.8889 11.9988H5.11111Z" fill="white"/>
<path d="M6.66699 23.9993C6.66699 21.0538 9.05481 18.666 12.0003 18.666H24.0003C26.9458 18.666 29.3337 21.0538 29.3337 23.9993V23.9993C29.3337 26.9449 26.9458 29.3327 24.0003 29.3327H12.0003C9.05481 29.3327 6.66699 26.9449 6.66699 23.9993V23.9993Z" fill="#E5646C"/>
<path d="M11.4332 26.6673C11.2078 26.6673 11.0225 26.6022 10.8773 26.472C10.7371 26.3368 10.667 26.1715 10.667 25.9762C10.667 25.7759 10.7371 25.6082 10.8773 25.473C11.0225 25.3377 11.2078 25.2701 11.4332 25.2701C11.6535 25.2701 11.8338 25.3377 11.974 25.473C12.1193 25.6082 12.1919 25.7759 12.1919 25.9762C12.1919 26.1715 12.1193 26.3368 11.974 26.472C11.8338 26.6022 11.6535 26.6673 11.4332 26.6673Z" fill="white"/>
<path d="M16.971 23.0316C16.971 23.3371 16.9009 23.6176 16.7607 23.873C16.6205 24.1233 16.4052 24.3262 16.1147 24.4814C15.8242 24.6366 15.4637 24.7143 15.033 24.7143H14.2368V26.6072H12.9523V21.334H15.033C15.4537 21.334 15.8092 21.4066 16.0997 21.5518C16.3901 21.6971 16.608 21.8974 16.7532 22.1528C16.8984 22.4082 16.971 22.7011 16.971 23.0316ZM14.9354 23.6927C15.1807 23.6927 15.3635 23.6351 15.4837 23.5199C15.6039 23.4047 15.664 23.242 15.664 23.0316C15.664 22.8213 15.6039 22.6586 15.4837 22.5434C15.3635 22.4282 15.1807 22.3706 14.9354 22.3706H14.2368V23.6927H14.9354Z" fill="white"/>
<path d="M19.6153 21.334C20.1712 21.334 20.657 21.4442 21.0726 21.6645C21.4883 21.8848 21.8088 22.1953 22.0341 22.596C22.2645 22.9916 22.3797 23.4498 22.3797 23.9706C22.3797 24.4864 22.2645 24.9446 22.0341 25.3453C21.8088 25.7459 21.4858 26.0564 21.0651 26.2767C20.6495 26.4971 20.1662 26.6072 19.6153 26.6072H17.6398V21.334H19.6153ZM19.5327 25.4955C20.0185 25.4955 20.3966 25.3628 20.667 25.0974C20.9374 24.832 21.0726 24.4564 21.0726 23.9706C21.0726 23.4848 20.9374 23.1068 20.667 22.8363C20.3966 22.5659 20.0185 22.4307 19.5327 22.4307H18.9243V25.4955H19.5327Z" fill="white"/>
<path d="M26.5304 21.334V22.3631H24.382V23.4748H25.9895V24.4739H24.382V26.6072H23.0975V21.334H26.5304Z" fill="white"/>
<defs>
<linearGradient id="paint0_linear_309_43498" x1="12.6667" y1="0" x2="12.6667" y2="26.6667" gradientUnits="userSpaceOnUse">
<stop stop-color="#FFD8A0"/>
<stop offset="1" stop-color="#FFC48E"/>
</linearGradient>
</defs>
</svg>
