<svg width="30" height="30" viewBox="0 0 30 30" fill="none" xmlns="http://www.w3.org/2000/svg">
<path d="M24 11.254H20.1467C16.9867 11.254 14.4133 8.68065 14.4133 5.52065V1.66732C14.4133 0.933984 13.8133 0.333984 13.08 0.333984H7.42667C3.32 0.333984 0 3.00065 0 7.76065V19.574C0 24.334 3.32 27.0006 7.42667 27.0006H17.9067C22.0133 27.0006 25.3333 24.334 25.3333 19.574V12.5873C25.3333 11.854 24.7333 11.254 24 11.254Z" fill="url(#paint0_linear_309_43507)"/>
<path d="M17.7326 0.613324C17.1859 0.0666574 16.2393 0.439991 16.2393 1.19999V5.85332C16.2393 7.79999 17.8926 9.41332 19.9059 9.41332C21.1726 9.42666 22.9326 9.42666 24.4393 9.42666C25.1993 9.42666 25.5993 8.53332 25.0659 7.99999C23.1459 6.06666 19.7059 2.58666 17.7326 0.613324Z" fill="url(#paint1_linear_309_43507)"/>
<path fill-rule="evenodd" clip-rule="evenodd" d="M11.9336 7.77523C11.4096 9.08317 10.2136 10.7911 9.07368 11.9071C8.90969 10.8751 8.08572 10.0671 7.04576 9.92314C8.16572 8.77919 9.88565 7.56723 11.1976 7.03925C11.4296 6.95126 11.6616 7.01925 11.8056 7.16325C11.9576 7.31524 12.0296 7.54323 11.9336 7.77523ZM8.72148 12.2354L8.72146 12.2354L8.72144 12.2354C8.64145 12.3034 8.56147 12.3714 8.48149 12.4354L7.76552 13.0074C7.76552 13.0018 7.76466 12.9954 7.76374 12.9885C7.76267 12.9805 7.76152 12.972 7.76152 12.9634C7.70552 12.5354 7.50553 12.1394 7.18154 11.8154C6.85356 11.4874 6.44557 11.2874 5.99759 11.2314C5.99159 11.2314 5.98459 11.2304 5.97759 11.2294C5.97059 11.2284 5.96359 11.2274 5.95759 11.2274L6.53757 10.4955C6.59356 10.4235 6.65356 10.3555 6.71756 10.2835L6.98955 10.3195C7.84952 10.4395 8.54149 11.1155 8.67749 11.9714L8.72148 12.2354ZM6.89317 14.4226C7.21316 14.1067 7.38115 13.6867 7.38115 13.2467C7.38115 13.1743 7.3739 13.102 7.3663 13.0261L7.36515 13.0147C7.32115 12.6827 7.16916 12.3667 6.90117 12.0987C6.62518 11.8267 6.29719 11.6708 5.95721 11.6268C5.87721 11.6188 5.79321 11.6148 5.71722 11.6188C4.94124 11.6348 4.20927 12.1947 4.11328 13.0707L4.00528 14.0547C3.94528 14.5946 4.40527 15.0546 4.94124 14.9946L5.92121 14.8866C6.32119 14.8386 6.64918 14.6706 6.89317 14.4226Z" fill="white"/>
<path d="M6.66699 24.3333C6.66699 21.3878 9.05481 19 12.0003 19H24.0003C26.9458 19 29.3337 21.3878 29.3337 24.3333V24.3333C29.3337 27.2789 26.9458 29.6667 24.0003 29.6667H12.0003C9.05481 29.6667 6.66699 27.2789 6.66699 24.3333V24.3333Z" fill="#9E57E5"/>
<path d="M11.4225 27.0013C11.2003 27.0013 11.0176 26.9371 10.8744 26.8087C10.7361 26.6754 10.667 26.5124 10.667 26.3198C10.667 26.1223 10.7361 25.9569 10.8744 25.8235C11.0176 25.6902 11.2003 25.6235 11.4225 25.6235C11.6398 25.6235 11.8176 25.6902 11.9559 25.8235C12.0991 25.9569 12.1707 26.1223 12.1707 26.3198C12.1707 26.5124 12.0991 26.6754 11.9559 26.8087C11.8176 26.9371 11.6398 27.0013 11.4225 27.0013Z" fill="white"/>
<path d="M16.8835 23.4161C16.8835 23.7174 16.8143 23.9939 16.6761 24.2457C16.5378 24.4927 16.3255 24.6927 16.039 24.8457C15.7526 24.9988 15.3971 25.0754 14.9724 25.0754H14.1872V26.942H12.9205V21.742H14.9724C15.3872 21.742 15.7378 21.8136 16.0242 21.9569C16.3106 22.1001 16.5255 22.2976 16.6687 22.5495C16.8119 22.8013 16.8835 23.0902 16.8835 23.4161ZM14.8761 24.068C15.1181 24.068 15.2983 24.0112 15.4168 23.8976C15.5353 23.784 15.5946 23.6235 15.5946 23.4161C15.5946 23.2087 15.5353 23.0482 15.4168 22.9346C15.2983 22.8211 15.1181 22.7643 14.8761 22.7643H14.1872V24.068H14.8761Z" fill="white"/>
<path d="M19.4244 26.9939C19.0442 26.9939 18.7034 26.9322 18.4022 26.8087C18.1009 26.6853 17.859 26.5025 17.6763 26.2606C17.4985 26.0186 17.4046 25.7272 17.3948 25.3865H18.7429C18.7627 25.5791 18.8293 25.7272 18.9429 25.8309C19.0565 25.9297 19.2046 25.9791 19.3874 25.9791C19.575 25.9791 19.7232 25.9371 19.8318 25.8532C19.9404 25.7643 19.9948 25.6433 19.9948 25.4902C19.9948 25.3618 19.9503 25.2556 19.8614 25.1717C19.7775 25.0877 19.6713 25.0186 19.5429 24.9643C19.4195 24.9099 19.2417 24.8482 19.0096 24.7791C18.6738 24.6754 18.3997 24.5717 18.1874 24.468C17.975 24.3643 17.7923 24.2112 17.6392 24.0087C17.4861 23.8062 17.4096 23.542 17.4096 23.2161C17.4096 22.7322 17.5849 22.3544 17.9355 22.0828C18.2861 21.8062 18.7429 21.668 19.3059 21.668C19.8787 21.668 20.3404 21.8062 20.6911 22.0828C21.0417 22.3544 21.2293 22.7346 21.254 23.2235H19.8837C19.8738 23.0556 19.8121 22.9248 19.6985 22.8309C19.5849 22.7322 19.4392 22.6828 19.2614 22.6828C19.1083 22.6828 18.9849 22.7248 18.8911 22.8087C18.7972 22.8877 18.7503 23.0038 18.7503 23.1569C18.7503 23.3248 18.8293 23.4556 18.9874 23.5495C19.1454 23.6433 19.3923 23.7445 19.7281 23.8532C20.0639 23.9667 20.3355 24.0754 20.5429 24.1791C20.7553 24.2828 20.938 24.4334 21.0911 24.6309C21.2442 24.8285 21.3207 25.0828 21.3207 25.3939C21.3207 25.6902 21.2442 25.9593 21.0911 26.2013C20.9429 26.4433 20.7256 26.6359 20.4392 26.7791C20.1528 26.9223 19.8145 26.9939 19.4244 26.9939Z" fill="white"/>
<path d="M24.0484 21.742C24.5965 21.742 25.0755 21.8507 25.4854 22.068C25.8953 22.2853 26.2113 22.5914 26.4335 22.9865C26.6607 23.3766 26.7743 23.8285 26.7743 24.342C26.7743 24.8507 26.6607 25.3025 26.4335 25.6976C26.2113 26.0927 25.8928 26.3988 25.478 26.6161C25.0681 26.8334 24.5916 26.942 24.0484 26.942H22.1002V21.742H24.0484ZM23.9669 25.8457C24.4459 25.8457 24.8187 25.7149 25.0854 25.4532C25.3521 25.1914 25.4854 24.8211 25.4854 24.342C25.4854 23.863 25.3521 23.4902 25.0854 23.2235C24.8187 22.9569 24.4459 22.8235 23.9669 22.8235H23.3669V25.8457H23.9669Z" fill="white"/>
<defs>
<linearGradient id="paint0_linear_309_43507" x1="12.6667" y1="0.333984" x2="12.6667" y2="27.0007" gradientUnits="userSpaceOnUse">
<stop stop-color="#FFD8A0"/>
<stop offset="1" stop-color="#FFC48E"/>
</linearGradient>
<linearGradient id="paint1_linear_309_43507" x1="20.7746" y1="0.353516" x2="20.7746" y2="9.42666" gradientUnits="userSpaceOnUse">
<stop stop-color="#FFD8A0"/>
<stop offset="1" stop-color="#FFC48E"/>
</linearGradient>
</defs>
</svg>
