<svg width="40" height="40" viewBox="0 0 40 40" fill="none" xmlns="http://www.w3.org/2000/svg">
<path d="M26.0703 16.5106L17.5103 12.2306C11.7603 9.35062 9.40026 11.7106 12.2803 17.4606L13.1503 19.2006C13.4003 19.7106 13.4003 20.3006 13.1503 20.8106L12.2803 22.5406C9.40026 28.2906 11.7503 30.6506 17.5103 27.7706L26.0703 23.4906C29.9103 21.5706 29.9103 18.4306 26.0703 16.5106ZM22.8403 20.7506H17.4403C17.0303 20.7506 16.6903 20.4106 16.6903 20.0006C16.6903 19.5906 17.0303 19.2506 17.4403 19.2506H22.8403C23.2503 19.2506 23.5903 19.5906 23.5903 20.0006C23.5903 20.4106 23.2503 20.7506 22.8403 20.7506Z" fill="#0075FF"/>
</svg>
