<svg width="17" height="16" viewBox="0 0 17 16" fill="none" xmlns="http://www.w3.org/2000/svg">
<path d="M14.7673 4.11268C14.494 3.96602 13.9206 3.81268 13.1406 4.35935L12.1607 5.05268C12.0873 2.97935 11.1873 2.16602 9.00065 2.16602H5.00065C2.72065 2.16602 1.83398 3.05268 1.83398 5.33268V10.666C1.83398 12.1993 2.66732 13.8327 5.00065 13.8327H9.00065C11.1873 13.8327 12.0873 13.0193 12.1607 10.946L13.1406 11.6393C13.554 11.9327 13.914 12.026 14.2006 12.026C14.4473 12.026 14.6407 11.9527 14.7673 11.886C15.0406 11.746 15.5007 11.366 15.5007 10.4127V5.58602C15.5007 4.63268 15.0406 4.25268 14.7673 4.11268ZM8.00065 7.58602C7.31398 7.58602 6.74732 7.02602 6.74732 6.33268C6.74732 5.63935 7.31398 5.07935 8.00065 5.07935C8.68732 5.07935 9.25398 5.63935 9.25398 6.33268C9.25398 7.02602 8.68732 7.58602 8.00065 7.58602Z" fill="#0075FF"/>
</svg>
