<svg width="14" height="14" viewBox="0 0 14 14" fill="none" xmlns="http://www.w3.org/2000/svg">
<path d="M7.30299 4.26736L7.30282 4.26726C6.66286 3.89907 5.89828 3.89733 5.26154 4.26876C4.62802 4.63832 4.24681 5.30272 4.24681 6.03398V8.26732C4.24681 9.00646 4.62907 9.6636 5.26154 10.0325C5.58028 10.2185 5.92762 10.3073 6.28014 10.3073C6.62438 10.3073 6.97804 10.2193 7.29736 10.0333C7.29782 10.0331 7.29829 10.0328 7.29874 10.0325L9.22949 8.92071C9.87236 8.55084 10.2535 7.88491 10.2535 7.14732C10.2535 6.40817 9.87122 5.75104 9.23875 5.38209L9.23633 5.38069L7.30299 4.26736ZM0.813477 7.00065C0.813477 3.59679 3.57629 0.833984 6.98014 0.833984C10.3903 0.833984 13.1468 3.59647 13.1468 7.00065C13.1468 10.4045 10.384 13.1673 6.98014 13.1673C3.57629 13.1673 0.813477 10.4045 0.813477 7.00065Z" fill="white" stroke="white"/>
</svg>
