<svg width="41" height="40" viewBox="0 0 41 40" fill="none" xmlns="http://www.w3.org/2000/svg">
<rect x="0.666504" width="40" height="40" rx="20" fill="#F6931A"/>
<path d="M27.9957 20.7191C28.3698 20.9173 28.7261 21.1474 29.0606 21.4069C30.2282 22.3327 30.7218 23.5366 30.5338 25.0124C30.4095 26.1069 30.0227 27.1551 29.4063 28.068C28.6484 29.1692 27.5722 29.7642 26.2744 29.9872C25.1982 30.1726 24.1233 30.1125 23.0497 29.9684C22.6588 29.9171 22.2704 29.8507 21.8833 29.7793C21.7581 29.7555 21.7192 29.7956 21.6904 29.9146C21.3947 31.1198 21.0878 32.3224 20.7947 33.5289C20.7533 33.6992 20.7032 33.7293 20.5316 33.683C19.8538 33.5001 19.1698 33.3334 18.487 33.1693C18.3617 33.1418 18.348 33.1067 18.3768 32.9889C18.68 31.7912 18.9744 30.5911 19.2788 29.3934C19.3126 29.2581 19.3001 29.2017 19.1535 29.1667C18.6248 29.0364 18.0978 28.8986 17.5725 28.7532C17.4384 28.7157 17.3996 28.7532 17.3683 28.8785C17.0726 30.0837 16.767 31.2876 16.4725 32.4928C16.4387 32.6281 16.3999 32.6507 16.2658 32.6181C15.576 32.4394 14.8832 32.2669 14.1875 32.1007C14.0622 32.0706 14.0446 32.018 14.0735 31.899C14.3791 30.69 14.6748 29.4786 14.983 28.2659C15.0231 28.1093 14.9905 28.0579 14.8377 28.0153C13.3343 27.6395 11.8422 27.2637 10.3439 26.8878C10.2374 26.8615 10.2049 26.8352 10.255 26.7225C10.6208 25.8873 10.982 25.0521 11.3386 24.2169C11.3837 24.1104 11.4401 24.1129 11.5353 24.1392C12.0515 24.2745 12.5664 24.4148 13.0863 24.5301C13.7352 24.6742 14.1186 24.4199 14.2789 23.7784C14.7725 21.7982 15.2669 19.8184 15.7622 17.839C16.138 16.3356 16.5139 14.8323 16.8897 13.3289C17.0413 12.7201 16.7219 12.1338 16.0967 11.8932C15.6098 11.7273 15.1126 11.593 14.6084 11.4911C14.4606 11.4548 14.314 11.4159 14.1649 11.3884C14.0835 11.3733 14.0722 11.342 14.091 11.2631C14.2877 10.4826 14.4844 9.7021 14.6735 8.91911C14.7061 8.77879 14.7901 8.8239 14.8665 8.84269C15.4603 8.98926 16.0516 9.1421 16.6467 9.28743C17.5462 9.50541 18.4382 9.75722 19.3427 9.95892C19.4918 9.99274 19.5481 9.97395 19.587 9.8161C19.8751 8.6272 20.1758 7.43581 20.4639 6.25318C20.5003 6.1041 20.5454 6.0615 20.702 6.10284C21.381 6.28324 22.0637 6.45236 22.7465 6.61523C22.8906 6.65031 22.9044 6.70543 22.8718 6.83948C22.5736 8.01334 22.2842 9.18971 21.9873 10.3636C21.956 10.4889 21.9685 10.5252 22.1013 10.5552C22.6325 10.6718 23.1637 10.797 23.6911 10.9311C23.8427 10.9712 23.8853 10.9223 23.9191 10.787C24.1997 9.63946 24.4879 8.49441 24.7672 7.34686C24.8061 7.18901 24.8499 7.13263 25.0303 7.18149C25.7018 7.36314 26.3796 7.52851 27.0561 7.69012C27.1889 7.72144 27.2152 7.76529 27.1814 7.89933C26.8782 9.097 26.5863 10.2972 26.2794 11.4936C26.2405 11.6464 26.2794 11.6915 26.4147 11.7441C27.3548 12.0504 28.2497 12.481 29.0756 13.0245C29.8511 13.5544 30.4937 14.2009 30.842 15.0941C31.2179 16.0725 31.1439 17.0572 30.8508 18.0369C30.4374 19.4241 29.5283 20.3011 28.1235 20.6677C28.0759 20.6753 28.0445 20.6928 27.9957 20.7191ZM22.5511 26.6323H22.7139C23.3002 26.6135 23.8765 26.5496 24.4115 26.2903C25.7632 25.6338 26.0526 23.8348 24.9852 22.7399C24.3588 22.1009 23.5796 21.7376 22.764 21.4345C21.7618 21.0586 20.7057 20.8431 19.6634 20.5913C19.5118 20.555 19.483 20.6026 19.4517 20.7304C19.0449 22.3832 18.6332 24.0344 18.2164 25.6839C18.1826 25.8167 18.2239 25.8493 18.3417 25.8768C18.7889 25.9846 19.2324 26.1061 19.6797 26.2151C20.6179 26.4572 21.5801 26.5951 22.5486 26.626L22.5511 26.6323ZM23.631 18.7898C23.9528 18.7955 24.2744 18.7678 24.5906 18.7071C25.4262 18.5317 26.0301 18.0807 26.2731 17.2376C26.5161 16.3945 26.3169 15.6341 25.6467 15.0252C25.2913 14.712 24.8878 14.4582 24.4516 14.2735C23.4781 13.8388 22.4396 13.6208 21.4048 13.3878C21.2795 13.359 21.2695 13.4367 21.2482 13.5231C21.0978 14.1278 20.9463 14.7329 20.7934 15.3384C20.5742 16.2153 20.3562 17.1011 20.1307 17.9805C20.0981 18.1058 20.1194 18.1609 20.256 18.191C20.5165 18.2461 20.7709 18.325 21.0302 18.3889C21.8846 18.5894 22.7427 18.7798 23.6285 18.7836L23.631 18.7898Z" fill="white"/>
</svg>
