<svg width="41" height="40" viewBox="0 0 41 40" fill="none" xmlns="http://www.w3.org/2000/svg">
<rect x="0.333008" width="40" height="40" rx="20" fill="white"/>
<g clip-path="url(#clip0_277_43904)">
<path d="M20.3609 25.1955C20.2763 25.2242 20.228 25.1506 20.1705 25.1168C17.3504 23.4523 14.5333 21.7867 11.7194 20.12C11.6921 20.1063 11.6638 20.0947 11.6348 20.0853V20.0481L11.6847 20.0193C11.7556 20.0007 11.8253 19.9781 11.8937 19.9517L18.5393 16.9279C19.1316 16.658 19.7238 16.3924 20.316 16.125H20.3583C20.3583 16.2096 20.3583 16.2849 20.3583 16.3653C20.3606 19.3089 20.3614 22.2523 20.3609 25.1955Z" fill="#393939"/>
<path d="M20.3655 16.1271H20.3232C20.3232 16.0424 20.3317 15.9578 20.3317 15.869C20.3317 12.5627 20.3317 9.25604 20.3317 5.94913C20.322 5.86419 20.3277 5.7782 20.3486 5.69531H20.3664C20.7141 6.20886 21.017 6.75033 21.3368 7.2808C23.8704 11.4834 26.4026 15.6854 28.9335 19.8869C28.958 19.9283 28.9774 19.9715 28.9994 20.0172C28.9278 20.0019 28.8574 19.9812 28.7888 19.9554C28.3243 19.7456 27.8581 19.5324 27.3979 19.3183C26.677 18.9884 25.9559 18.659 25.2345 18.3302L21.759 16.7557C21.2962 16.5425 20.8309 16.3352 20.3655 16.1271Z" fill="#343434"/>
<path d="M20.3511 5.69204C20.3302 5.77493 20.3244 5.86093 20.3341 5.94586C20.3341 9.2522 20.3341 12.5588 20.3341 15.8657C20.3341 15.9503 20.3291 16.0349 20.3257 16.1238C19.7335 16.3911 19.1412 16.6568 18.549 16.9267L11.9033 19.9504C11.835 19.9769 11.7652 19.9995 11.6943 20.0181C11.8864 19.6188 12.136 19.2567 12.3636 18.8743C15.0004 14.4912 17.6392 10.109 20.28 5.72758C20.2974 5.70331 20.3164 5.68014 20.3367 5.6582L20.3511 5.69204Z" fill="#8C8C8C"/>
<path d="M20.3656 16.127C20.8309 16.3351 21.2962 16.5424 21.7607 16.7522L25.2362 18.3267C25.9582 18.6549 26.6793 18.9843 27.3996 19.3149C27.8632 19.5272 28.3302 19.7421 28.7905 19.9519C28.8591 19.9777 28.9295 19.9984 29.0011 20.0137C29.0857 20.1194 28.9605 20.1237 28.9225 20.1465C28.2008 20.578 27.4757 21.0036 26.7524 21.4317C24.6762 22.6601 22.6005 23.8883 20.5255 25.1162C20.473 25.1466 20.4163 25.1695 20.3613 25.1957C20.3613 22.2532 20.3613 19.3103 20.3613 16.3672C20.3622 16.2869 20.3647 16.2073 20.3656 16.127Z" fill="#141414"/>
<path d="M20.3311 26.8664L25.7669 23.6624C26.8048 23.0499 27.842 22.4368 28.8787 21.8231L28.9726 21.7715C28.9819 21.8561 28.9235 21.9009 28.888 21.95C26.5191 25.2896 24.1502 28.6281 21.7812 31.9655C21.3328 32.5983 20.8853 33.2346 20.4326 33.8623C20.4089 33.8953 20.3726 34.0501 20.2998 33.886C20.3573 33.8369 20.332 33.7709 20.332 33.7168C20.3325 31.4325 20.3322 29.149 20.3311 26.8664Z" fill="#3D3D3C"/>
<path d="M20.3306 26.8679C20.3306 29.1505 20.3306 31.4326 20.3306 33.7141C20.3306 33.7725 20.356 33.8385 20.2985 33.8833C20.1775 33.8105 20.1251 33.6803 20.0447 33.5728C17.2978 29.7036 14.5524 25.8337 11.8084 21.9634C11.7737 21.9143 11.7416 21.8618 11.7061 21.8077C11.7771 21.7662 11.8152 21.8229 11.8567 21.8475C14.6345 23.4877 17.4118 25.1293 20.1885 26.7723C20.2401 26.8044 20.2841 26.8374 20.3306 26.8679Z" fill="#8C8C8C"/>
<path d="M20.3523 5.69166L20.332 5.66035C20.3693 5.63666 20.3642 5.67135 20.3701 5.68912L20.3523 5.69166Z" fill="#393939"/>
</g>
<defs>
<clipPath id="clip0_277_43904">
<rect width="17.3913" height="28.3095" fill="white" transform="translate(11.6377 5.65234)"/>
</clipPath>
</defs>
</svg>
