<svg width="40" height="40" viewBox="0 0 40 40" fill="none" xmlns="http://www.w3.org/2000/svg">
<rect width="40" height="40" rx="20" fill="#26A07B"/>
<path d="M19.9856 9.19201C22.9412 9.19201 25.8968 9.19201 28.8614 9.19201C29.1251 9.19201 29.1979 9.25566 29.1979 9.52393C29.1979 10.8198 29.1979 12.1112 29.1979 13.4025C29.1979 13.6526 29.1251 13.7072 28.8887 13.7026C26.838 13.7026 24.7964 13.7026 22.732 13.7026C22.4638 13.7026 22.4092 13.7754 22.4137 14.0255C22.4319 14.8045 22.4319 15.5821 22.4137 16.3581C22.4137 16.6037 22.4638 16.6809 22.7275 16.6946C24.8867 16.7658 27.0332 17.0552 29.1342 17.5585C29.8247 17.7189 30.4933 17.9616 31.1258 18.2815C31.3805 18.4073 31.6113 18.5766 31.8079 18.7817C31.8827 18.8486 31.9426 18.9306 31.9836 19.0223C32.0246 19.114 32.0457 19.2133 32.0457 19.3137C32.0457 19.4141 32.0246 19.5134 31.9836 19.605C31.9426 19.6967 31.8827 19.7787 31.8079 19.8457C31.4232 20.22 30.9559 20.4988 30.4438 20.6596C29.197 21.1024 27.9056 21.4073 26.5924 21.569C25.2943 21.7676 23.9855 21.8891 22.6729 21.9328C22.4274 21.9328 22.4274 22.0601 22.4274 22.242C22.4274 25.1884 22.4274 28.1531 22.4274 31.0814C22.4274 31.3815 22.3501 31.4451 22.0591 31.4451C20.6404 31.4451 19.2172 31.4451 17.7985 31.4451C17.5575 31.4451 17.5121 31.3769 17.5121 31.1541C17.5121 28.2349 17.5121 25.3203 17.5121 22.4011C17.5121 21.9464 17.5121 21.9464 17.0574 21.9464C14.9338 21.8526 12.8245 21.5511 10.7597 21.0461C9.97982 20.8772 9.23214 20.5839 8.54533 20.1776C7.63593 19.6092 7.63593 18.9772 8.54533 18.4179C9.462 17.9005 10.4624 17.5481 11.5009 17.3766C13.395 16.9806 15.3192 16.7449 17.2529 16.6719C17.4757 16.6719 17.5257 16.5991 17.5212 16.3899C17.5212 15.5988 17.5212 14.8121 17.5212 14.0255C17.5212 13.7709 17.4711 13.6845 17.1938 13.689C15.1476 13.689 13.1014 13.689 11.0598 13.689C10.7825 13.689 10.7325 13.6026 10.7325 13.348C10.7325 12.0657 10.7325 10.7835 10.7325 9.49665C10.7325 9.21473 10.8234 9.17383 11.0735 9.17383C14.0472 9.19656 17.0164 9.19201 19.9856 9.19201ZM20.1448 21.1779C21.6963 21.1944 23.2475 21.1276 24.7918 20.9779C26.1732 20.8652 27.5424 20.634 28.8841 20.2867C29.4245 20.1634 29.9418 19.9546 30.4165 19.6683C31.0212 19.2727 31.0122 18.8544 30.4165 18.4588C30.1216 18.2623 29.8 18.1092 29.4616 18.0041C27.2189 17.3866 24.9077 17.0521 22.582 17.0083C22.3683 17.0083 22.4046 17.1266 22.4046 17.2493C22.4046 18.1587 22.4046 19.0954 22.4046 20.0185C22.4046 20.2276 22.3546 20.314 22.1364 20.3231C20.6677 20.3777 19.199 20.3868 17.7303 20.3231C17.5393 20.3231 17.4939 20.2458 17.4939 20.0639C17.4939 19.1272 17.4939 18.1951 17.4939 17.263C17.4939 17.0538 17.4348 17.0083 17.2301 17.0129C16.2207 17.0584 15.2113 17.1447 14.2064 17.263C12.9293 17.3905 11.6681 17.6448 10.4414 18.0223C10.0788 18.1235 9.73262 18.2766 9.41382 18.477C8.86363 18.8544 8.86817 19.2636 9.41382 19.641C9.62652 19.7803 9.85368 19.8962 10.0913 19.9866C10.894 20.282 11.7242 20.4968 12.5694 20.6278C15.0733 21.0346 17.6084 21.2187 20.1448 21.1779Z" fill="white"/>
</svg>
