<svg width="41" height="40" viewBox="0 0 41 40" fill="none" xmlns="http://www.w3.org/2000/svg">
<rect x="0.666992" width="40" height="40" rx="20" fill="#2775CA"/>
<path d="M25.5379 22.2267C25.5379 19.6625 24.002 18.7831 20.9303 18.4174C18.7362 18.124 18.2974 17.538 18.2974 16.5123C18.2974 15.4866 19.0288 14.8266 20.4915 14.8266C21.808 14.8266 22.5429 15.2663 22.905 16.3651C22.9425 16.4714 23.0117 16.5635 23.1032 16.629C23.1948 16.6946 23.3043 16.7305 23.4169 16.7317H24.6023C24.6701 16.7334 24.7376 16.7213 24.8007 16.6962C24.8637 16.671 24.921 16.6333 24.969 16.5854C25.0171 16.5374 25.0549 16.4802 25.0801 16.4172C25.1054 16.3542 25.1176 16.2867 25.116 16.2189V16.1457C24.9731 15.3519 24.5723 14.6273 23.9756 14.0845C23.3789 13.5417 22.6198 13.2109 21.816 13.1436V11.3946C21.816 11.1011 21.5966 10.8817 21.2309 10.8086H20.1294C19.836 10.8086 19.6165 11.028 19.5434 11.3946V13.0776C17.3493 13.3701 15.9597 14.8338 15.9597 16.663C15.9597 19.0774 17.4225 20.0291 20.4951 20.3948C22.5464 20.7604 23.2011 21.1975 23.2011 22.3703C23.2011 23.5432 22.1763 24.3468 20.7876 24.3468C18.8852 24.3468 18.227 23.5441 18.0076 22.4435C17.9855 22.3228 17.9228 22.2134 17.8297 22.1336C17.7367 22.0537 17.6191 22.0082 17.4965 22.0047H16.2425C16.1747 22.0031 16.1073 22.0152 16.0444 22.0405C15.9814 22.0657 15.9242 22.1034 15.8763 22.1513C15.8284 22.1993 15.7906 22.2564 15.7654 22.3194C15.7402 22.3823 15.728 22.4497 15.7296 22.5175V22.5906C16.0231 24.4217 17.1959 25.7399 19.6139 26.1056V27.8689C19.6139 28.1624 19.8333 28.3818 20.199 28.4549H21.296C21.5885 28.4549 21.808 28.2355 21.8811 27.8689V26.1101C24.0752 25.7444 25.5379 24.205 25.5379 22.2267Z" fill="white"/>
<path d="M16.9786 29.9121C11.2704 27.8608 8.33693 21.4908 10.4614 15.8513C11.5594 12.7751 13.9764 10.4321 16.9786 9.33327C17.272 9.18699 17.4183 8.96759 17.4183 8.60102V7.57622C17.4183 7.28278 17.272 7.06337 16.9786 6.99023C16.9054 6.99023 16.7592 6.99024 16.686 7.06338C9.72919 9.26013 5.92077 16.6567 8.11752 23.6144C8.75586 25.6241 9.86722 27.4512 11.3582 28.9422C12.8493 30.4332 14.6764 31.5446 16.686 32.1829C16.747 32.2181 16.8154 32.2384 16.8856 32.242C16.9559 32.2457 17.0261 32.2327 17.0903 32.2041C17.1546 32.1755 17.2112 32.1321 17.2555 32.0774C17.2998 32.0227 17.3305 31.9583 17.3452 31.8895C17.4183 31.8164 17.4183 31.7432 17.4183 31.597V30.5713C17.4183 30.3519 17.2007 30.0584 16.9786 29.9121ZM24.7381 7.06338C24.6773 7.0282 24.6089 7.00791 24.5387 7.00418C24.4685 7.00045 24.3984 7.01338 24.3341 7.04191C24.2699 7.07043 24.2133 7.11374 24.1689 7.16831C24.1246 7.22288 24.0938 7.28717 24.079 7.35591C24.0059 7.42905 24.0059 7.50219 24.0059 7.64935V8.67415C24.0059 8.96758 24.2253 9.26012 24.4456 9.4064C30.1538 11.4578 33.0872 17.8286 30.9627 23.4673C30.4227 24.9662 29.5587 26.3275 28.4322 27.4542C27.3057 28.5808 25.9445 29.4451 24.4456 29.9853C24.1522 30.1316 24.0059 30.3519 24.0059 30.7175V31.7423C24.0059 32.0349 24.1522 32.2552 24.4456 32.3283C24.5187 32.3283 24.665 32.3283 24.7381 32.2552C31.695 30.0575 35.5034 22.661 33.3067 15.7041C32.6703 13.6852 31.5607 11.8475 30.0703 10.3443C28.5798 8.84113 26.7516 7.71593 24.7381 7.06248V7.06338Z" fill="white"/>
</svg>
